<svg width="48" height="66" viewBox="0 0 48 66" fill="none" xmlns="http://www.w3.org/2000/svg">
<mask id="mask0_2042_22452" style="mask-type:luminance" maskUnits="userSpaceOnUse" x="23" y="0" width="3" height="2">
<path d="M23.9375 0.489136H25.144V1.65998H23.9375V0.489136Z" fill="white"/>
</mask>
<g mask="url(#mask0_2042_22452)">
<path d="M24.183 0.66085C23.9904 0.747031 23.9453 0.827825 23.9453 1.09579C23.9453 1.38396 24.0665 1.54084 24.3244 1.60143C24.8556 1.7233 25.1943 1.41964 25.0428 0.959116C24.9465 0.666236 24.5014 0.50936 24.183 0.66085Z" fill="white"/>
</g>
<path d="M32.9221 1.10116C32.6595 1.14156 32.2596 1.27756 32.1532 1.36374C32.1182 1.38933 32.0879 1.44992 32.0879 1.50042C32.0879 1.65191 32.5578 2.05655 32.7349 2.05655C32.7908 2.05655 32.8615 2.08685 32.8918 2.12725C32.9679 2.21882 33.4176 2.26393 33.6048 2.19862C33.8984 2.09695 33.9792 1.73338 33.7772 1.41962C33.7058 1.31863 33.4075 1.13617 33.2002 1.07019C33.1853 1.06547 33.0635 1.08096 32.9221 1.10116Z" fill="white"/>
<path d="M34.3017 4.18083C34.0687 4.30741 34.0384 4.35319 34.0485 4.59086C34.064 4.92414 34.1293 5.02042 34.4081 5.11131C34.7063 5.20759 34.8174 5.21298 34.9891 5.1369C35.1258 5.07091 35.2726 4.81304 35.2726 4.63597C35.2726 4.23132 34.7063 3.96336 34.3017 4.18083Z" fill="white"/>
<path d="M16.2369 4.33765C16.181 4.37333 16.0901 4.45413 16.0295 4.52482C15.812 4.77798 16.0396 5.26342 16.4396 5.38461C16.6516 5.44521 17.0509 5.35431 17.1829 5.20754C17.4959 4.85339 17.1728 4.35313 16.6011 4.30196C16.4443 4.28715 16.2928 4.30196 16.2369 4.33765Z" fill="white"/>
<path d="M9.20258 4.84865C9.0659 4.87357 8.9198 4.91935 8.88411 4.95436C8.77773 5.04054 8.60605 5.43509 8.63634 5.51588C8.65183 5.55628 8.78783 5.66266 8.93461 5.74345C9.37965 6.00132 9.7843 5.94611 9.95666 5.60206C10.0577 5.41018 9.97147 5.02573 9.79978 4.88905C9.65772 4.77796 9.58702 4.77257 9.20258 4.84865Z" fill="white"/>
<path d="M10.6191 6.61875C10.4824 6.72984 10.3605 6.86114 10.3504 6.91231C10.3403 6.96751 10.4265 7.09881 10.5531 7.23077C10.7301 7.41256 10.8163 7.46305 11.0082 7.48864C11.2964 7.52904 11.5845 7.42804 11.6505 7.25568C11.7872 6.89682 11.7771 6.81603 11.5643 6.60865C11.3826 6.42619 11.3368 6.40599 11.1193 6.41138C10.9072 6.41138 10.8365 6.44168 10.6191 6.61875Z" fill="white"/>
<path d="M9.5413 7.17489C9.36423 7.21529 9.31373 7.25098 9.22755 7.41795C9.03499 7.7923 9.10636 8.01987 9.45983 8.17607C9.7177 8.28784 9.86448 8.30265 9.91026 8.22724C9.92507 8.19627 9.99644 8.17607 10.0618 8.17607C10.1277 8.17607 10.224 8.12086 10.2846 8.05017C10.659 7.56944 10.2139 7.03822 9.5413 7.17489Z" fill="white"/>
<path d="M25.0228 8.14109C24.8154 8.22189 24.7649 8.27238 24.7043 8.47504C24.6585 8.63125 24.674 8.66222 24.8255 8.81371C25.0989 9.08706 25.5284 9.02579 25.6799 8.70261C25.7917 8.46966 25.7863 8.40906 25.655 8.25218C25.5183 8.1007 25.2551 8.0502 25.0228 8.14109Z" fill="white"/>
<path d="M40.0181 8.18146C39.8464 8.27235 39.8262 8.29794 39.8262 8.47973C39.8262 8.6568 39.8511 8.6972 39.9931 8.78338C40.2254 8.93015 40.3668 8.90996 40.5641 8.71268C40.7769 8.49992 40.7816 8.37335 40.5796 8.20704C40.3971 8.05017 40.2712 8.04478 40.0181 8.18146Z" fill="white"/>
<path d="M7.65981 8.46965C7.40194 8.72752 7.34135 9.03589 7.51304 9.22306C7.7157 9.43582 7.79649 9.45602 8.12505 9.39004C8.39302 9.32944 8.43409 9.30453 8.52499 9.13217C8.57548 9.02579 8.62059 8.8844 8.62059 8.8238C8.62059 8.61643 8.44891 8.40367 8.23143 8.33836C7.92778 8.24747 7.86719 8.26228 7.65981 8.46965Z" fill="white"/>
<path d="M23.7784 8.43462C23.7327 8.45953 23.6673 8.46963 23.637 8.45482C23.561 8.40365 23.192 8.67701 23.1563 8.81368C23.0957 9.04597 23.394 9.39002 23.7279 9.47081C23.8747 9.51188 24.1878 9.35501 24.3198 9.17793C24.4053 9.05607 24.4107 9.01567 24.3548 8.83388C24.3144 8.6972 24.239 8.59082 24.107 8.50532C23.8996 8.36325 23.8996 8.36325 23.7784 8.43462Z" fill="white"/>
<path d="M4.43371 8.53023C4.22095 8.58073 3.91797 8.86418 3.91797 9.01096C3.91797 9.07155 3.99876 9.21294 4.09976 9.32942C4.27144 9.53208 4.29164 9.54218 4.57038 9.54218C4.91915 9.54218 5.10632 9.41022 5.16153 9.11195C5.2026 8.87428 5.12652 8.7073 4.91915 8.58073C4.74207 8.47502 4.69158 8.46963 4.43371 8.53023Z" fill="white"/>
<mask id="mask1_2042_22452" style="mask-type:luminance" maskUnits="userSpaceOnUse" x="0" y="9" width="3" height="2">
<path d="M0.736328 9.2439H2.39261V10.6228H0.736328V9.2439Z" fill="white"/>
</mask>
<g mask="url(#mask1_2042_22452)">
<path d="M1.04859 9.45598C0.810919 9.57718 0.735511 9.73405 0.826404 9.92594C0.856702 9.99192 0.907199 10.103 0.937497 10.1744C1.01829 10.336 1.38254 10.5029 1.66061 10.5029C1.85317 10.5029 1.91376 10.4774 2.06525 10.3205C2.16153 10.2249 2.25243 10.0882 2.26791 10.0175C2.30831 9.86063 2.17702 9.57246 2.00466 9.4405C1.82758 9.29911 1.33743 9.30921 1.04859 9.45598Z" fill="white"/>
</g>
<path d="M9.64716 9.64322C9.42969 9.7395 9.42969 9.7395 9.42969 10.0075C9.42969 10.3966 9.47008 10.4976 9.65726 10.5784C9.80404 10.6343 9.85453 10.6343 10.0417 10.5737C10.3703 10.4572 10.4161 10.4222 10.5123 10.2047C10.6032 10.0075 10.6032 10.0021 10.4968 9.825C10.4214 9.70381 10.3252 9.62773 10.1986 9.59272C9.9461 9.52674 9.89493 9.52674 9.64716 9.64322Z" fill="white"/>
<path d="M5.28629 10.9931C5.2156 11.0086 5.07892 11.0746 4.98331 11.1399C4.88165 11.2059 4.76045 11.2618 4.70996 11.2618C4.58877 11.2618 4.36591 11.3776 4.24943 11.5095C4.15854 11.6105 4.15854 11.6206 4.26963 11.929C4.3309 12.1061 4.43189 12.3135 4.4871 12.3996C4.60896 12.5767 4.87693 12.8292 4.94224 12.8292C4.96783 12.8292 5.04862 12.875 5.12942 12.9302C5.2055 12.9814 5.37719 13.0568 5.50915 13.0924C5.77712 13.1631 5.87811 13.2493 6.16156 13.6587C6.29286 13.8459 6.40395 13.9522 6.49013 13.9724C6.7076 14.0175 6.7682 14.0687 6.81398 14.2505C6.83889 14.3468 6.90487 14.4734 6.96076 14.534C7.10215 14.6854 7.45091 14.8524 7.62327 14.8524C7.86094 14.8524 8.24 14.6248 8.33628 14.4323C8.50326 14.0734 8.39688 13.8358 7.95655 13.5678C7.77947 13.4567 7.53709 13.2796 7.42061 13.1732C7.29942 13.0669 7.17284 12.9814 7.13783 12.9814C7.05165 12.9814 6.98567 12.6521 7.03145 12.44C7.12235 11.9748 6.7581 11.5499 5.8431 11.0746C5.62563 10.9628 5.53406 10.948 5.28629 10.9931Z" fill="white"/>
<path d="M33.4171 11.1904C33.3262 11.226 33.2151 11.3324 33.1693 11.4179C33.104 11.5546 33.0986 11.6105 33.1491 11.7923C33.2198 12.0454 33.2959 12.0804 33.6648 12.0353C33.9638 11.9996 34.1099 11.8482 34.1099 11.5701C34.1099 11.3472 34.0796 11.2967 33.8722 11.1904C33.6803 11.0948 33.6345 11.0948 33.4171 11.1904Z" fill="white"/>
<path d="M12.4996 11.8583C12.3731 11.9344 12.3582 11.9694 12.3832 12.1162C12.4491 12.531 12.7272 12.6521 12.9952 12.3741C13.1265 12.2374 13.1319 12.2172 13.0713 12.0704C12.9393 11.7573 12.7777 11.6968 12.4996 11.8583Z" fill="white"/>
<path d="M30.443 12.6272C30.3878 12.6474 30.2767 12.7584 30.1905 12.8749C30.1043 12.9914 29.998 13.0823 29.9374 13.0823C29.8821 13.0823 29.7098 13.1476 29.5583 13.2237C29.3206 13.3402 29.2802 13.3853 29.2647 13.5172C29.2445 13.7293 29.5125 14.0835 29.8108 14.2302C30.3979 14.5285 31.0449 14.1946 30.9493 13.6438C30.9291 13.5071 30.9392 13.4364 30.9897 13.3907C31.0806 13.32 31.1412 13.0163 31.1008 12.8749C31.0806 12.8143 30.9695 12.7281 30.8375 12.6723C30.5851 12.5666 30.5851 12.5666 30.443 12.6272Z" fill="white"/>
<path d="M44.6307 13.1833C44.4887 13.3247 44.4988 13.4769 44.661 13.5375C44.8428 13.6082 44.8731 13.6028 44.9593 13.4668C45.0556 13.3247 45.0199 13.2136 44.8529 13.1429C44.7519 13.0924 44.7115 13.1025 44.6307 13.1833Z" fill="white"/>
<path d="M23.7012 14.1798C23.58 14.2249 23.479 14.4882 23.5396 14.6047C23.6662 14.837 24.0755 14.8168 24.192 14.569C24.3085 14.3064 24.0001 14.0586 23.7012 14.1798Z" fill="white"/>
<path d="M3.15813 14.3064C2.98577 14.3973 2.90026 14.4835 2.80869 14.6652L2.6875 14.913L2.80869 15.0342C2.90497 15.1305 3.00596 15.1662 3.26922 15.1911C3.58297 15.2167 3.61327 15.2113 3.73446 15.0901C3.97213 14.847 3.96742 14.5239 3.71426 14.3414C3.50689 14.1946 3.3958 14.1899 3.15813 14.3064Z" fill="white"/>
<path d="M31.9852 14.9891C31.8034 15.0194 31.4694 15.181 31.3536 15.2921C31.2977 15.3432 31.1712 15.4388 31.0648 15.4994C30.8123 15.6563 30.7867 15.7472 30.9739 15.8536C31.0648 15.9041 31.126 15.9802 31.126 16.0408C31.126 16.2077 31.2472 16.339 31.6566 16.6171L32.041 16.8756L32.4713 16.8554C32.7089 16.8399 32.9311 16.8097 32.9668 16.7794C33.0018 16.7491 33.1284 16.7134 33.2496 16.6932C33.5182 16.6528 33.5734 16.6124 33.6798 16.405C33.7505 16.2683 33.7505 16.238 33.6744 16.1216C33.6293 16.0509 33.5129 15.9243 33.422 15.8489C33.3257 15.7681 33.2496 15.6718 33.2496 15.6361C33.2496 15.5048 33.0018 15.2719 32.7844 15.2066C32.6632 15.1709 32.5319 15.1103 32.4861 15.0699C32.3952 14.9938 32.1622 14.9534 31.9852 14.9891Z" fill="white"/>
<path d="M18.6336 15.6718C18.3905 15.8388 18.2693 16.026 18.2437 16.2838C18.2188 16.4811 18.239 16.5417 18.3602 16.7134C18.5878 17.0271 18.7548 17.0978 19.119 17.0271C19.3008 16.9915 19.4833 16.916 19.5843 16.8299C19.731 16.7134 19.7512 16.6683 19.7559 16.4407C19.7559 16.1418 19.6146 15.8287 19.4119 15.6664C19.2247 15.5196 18.8558 15.5196 18.6336 15.6718Z" fill="white"/>
<path d="M10.8195 16.0812C10.5973 16.304 10.5765 16.5417 10.7636 16.739C10.9205 16.9107 11.1077 16.9565 11.3555 16.8804C11.7958 16.7491 11.8867 16.3794 11.548 16.1068C11.4517 16.026 11.2848 15.9499 11.1838 15.9297C11.0215 15.9041 10.9764 15.9243 10.8195 16.0812Z" fill="white"/>
<path d="M33.5633 16.7841C33.4724 16.8757 33.4872 16.9463 33.6238 17.0729C33.7201 17.1638 33.7659 17.1786 33.8467 17.1335C33.9019 17.1032 33.9578 17.0372 33.9733 16.9814C34.0238 16.7895 33.71 16.638 33.5633 16.7841Z" fill="white"/>
<path d="M26.8477 16.8757C26.6 16.9767 26.4835 17.452 26.6505 17.7045C26.7414 17.8412 27.0551 17.9119 27.2423 17.8412C27.4699 17.7557 27.6362 17.5483 27.6362 17.3611C27.6362 17.1484 27.4187 16.906 27.1763 16.8555C26.9891 16.8198 26.9838 16.8198 26.8477 16.8757Z" fill="white"/>
<path d="M35.0506 16.9712C34.9994 17.0271 34.8937 17.0877 34.8129 17.1032C34.6661 17.1382 34.5645 17.2547 34.5645 17.396C34.5645 17.4977 34.7873 17.5684 35.2068 17.6088C35.5966 17.6492 35.6976 17.5886 35.7582 17.2951C35.7838 17.1638 35.7636 17.1079 35.6626 17.0069C35.4956 16.8399 35.1819 16.8244 35.0506 16.9712Z" fill="white"/>
<path d="M34.0092 17.2042C33.923 17.3106 33.9789 17.4216 34.1358 17.462C34.3229 17.5078 34.4441 17.386 34.3687 17.2345C34.2974 17.1079 34.1001 17.0931 34.0092 17.2042Z" fill="white"/>
<path d="M20.9353 17.8363C20.4498 18.0336 20.5057 18.7163 21.0268 18.9843C21.2544 19.0954 21.2793 19.1008 21.3904 19.0301C21.4618 18.9843 21.5426 18.9486 21.583 18.9486C21.6691 18.9486 21.8711 18.5897 21.8711 18.4329C21.8711 18.2053 21.7648 17.9932 21.5931 17.8868C21.4261 17.7805 21.1177 17.7555 20.9353 17.8363Z" fill="white"/>
<path d="M24.4147 17.8613C24.2531 17.9327 24.1973 18.0236 24.1973 18.2155C24.1973 18.3569 24.3292 18.443 24.5366 18.443C24.7541 18.443 24.8706 18.3367 24.8652 18.1448C24.8605 17.8613 24.6834 17.7502 24.4147 17.8613Z" fill="white"/>
<path d="M36.1223 17.8364C35.6167 17.9327 35.5305 18.2155 35.9149 18.5596C36.3196 18.9238 36.3351 18.944 36.3351 19.1157C36.3351 19.313 36.5471 19.6469 36.704 19.6826C36.9417 19.7432 37.4372 19.6725 37.5786 19.5607C37.8823 19.3231 37.9126 19.1056 37.7005 18.711C37.584 18.4889 37.4372 18.398 37.2049 18.3926C37.038 18.3926 36.8656 18.2559 36.638 17.9475C36.5471 17.8263 36.3755 17.786 36.1223 17.8364Z" fill="white"/>
<path d="M13.3948 18.0942C13.38 18.1245 13.3847 18.1703 13.4157 18.2006C13.481 18.2659 13.5773 18.2107 13.5773 18.109C13.5773 18.0282 13.446 18.0134 13.3948 18.0942Z" fill="white"/>
<path d="M19.5086 18.6303C19.448 18.6404 19.3417 18.7313 19.2662 18.8276C19.1545 18.9689 19.1397 19.0302 19.17 19.1864C19.246 19.5965 19.6251 19.7378 19.9032 19.4598C20.0197 19.3386 20.05 19.2679 20.05 19.0908C20.05 18.7717 19.817 18.5744 19.5086 18.6303Z" fill="white"/>
<path d="M24.1222 18.9588C24.0562 19.1662 24.0818 19.3029 24.1875 19.3029C24.3093 19.3029 24.4002 19.2066 24.4002 19.0706C24.4002 18.9184 24.1673 18.8275 24.1222 18.9588Z" fill="white"/>
<path d="M27.8532 19.0504C27.697 19.111 27.4742 19.4652 27.5146 19.5863C27.6513 20.0112 27.8431 20.1378 28.2478 20.0617C28.5716 20.0011 28.6679 19.859 28.6221 19.5056C28.6019 19.3487 28.5514 19.1918 28.5057 19.146C28.4047 19.045 28.0101 18.9891 27.8532 19.0504Z" fill="white"/>
<path d="M38.1705 20.036C38.085 20.0973 38.0547 20.168 38.0547 20.3195C38.0547 20.4864 38.0749 20.5268 38.186 20.5672C38.3934 20.648 38.5347 20.6278 38.6559 20.4965C38.7724 20.37 38.7778 20.2387 38.6714 20.0717C38.6007 19.9653 38.2971 19.9451 38.1705 20.036Z" fill="white"/>
<path d="M30.0687 20.2838C29.6237 20.4508 29.588 20.9773 30.0075 21.1947C30.2249 21.3105 30.6956 21.2452 30.7966 21.0931C31.1002 20.6278 30.6094 20.0865 30.0687 20.2838Z" fill="white"/>
<path d="M18.1334 20.6939C18.0473 20.7949 17.9766 20.9214 17.9766 20.9773C17.9766 21.3308 18.5428 21.5685 18.7906 21.3207C18.8767 21.2352 18.8922 21.1692 18.872 20.9874C18.8215 20.5168 18.427 20.3599 18.1334 20.6939Z" fill="white"/>
<path d="M24.521 22.3629C24.4557 22.5298 24.6476 22.717 24.7641 22.6005C24.8045 22.5601 24.8045 22.5096 24.7641 22.4133C24.6981 22.272 24.5668 22.2464 24.521 22.3629Z" fill="white"/>
<path d="M16.5713 22.4182C16.5107 22.4586 16.4602 22.5198 16.4602 22.5501C16.4602 22.5804 16.4044 22.6814 16.3337 22.7723C16.2172 22.9292 16.2125 22.9548 16.263 23.1972C16.3081 23.4146 16.3539 23.4806 16.5256 23.6072C16.7127 23.7432 16.7632 23.7587 16.9659 23.7284C17.2487 23.688 17.3954 23.5971 17.4964 23.3944C17.623 23.1568 17.6129 22.8834 17.4715 22.676C17.2588 22.3677 16.8191 22.2411 16.5713 22.4182Z" fill="white"/>
<path d="M14.5117 22.4235C14.0613 22.5447 13.8741 23.0961 14.1778 23.4045C14.4202 23.6475 14.8955 23.5566 15.0524 23.2429C15.29 22.7675 14.9817 22.2969 14.5117 22.4235Z" fill="white"/>
<path d="M20.8788 27.6374C20.7421 27.7492 20.6055 28.0118 20.6055 28.1686C20.6055 28.3309 20.8027 28.6191 20.965 28.6945C21.0761 28.7504 21.1266 28.7457 21.2983 28.6642C21.5259 28.5484 21.6174 28.3915 21.6174 28.0825C21.6174 27.8906 21.5918 27.8401 21.4403 27.7034C21.2377 27.5263 21.0404 27.5014 20.8788 27.6374Z" fill="white"/>
<path d="M44.6247 27.7896C44.4934 27.906 44.4631 27.9814 44.4429 28.1888C44.4173 28.4265 44.4274 28.4622 44.5593 28.5834C44.7667 28.7759 44.8926 28.7907 45.1303 28.6339C45.6063 28.341 45.51 27.7741 44.9741 27.6785C44.8172 27.6475 44.7613 27.663 44.6247 27.7896Z" fill="white"/>
<path d="M18.3819 27.7741C18.2607 27.9209 18.4223 28.1539 18.6047 28.0879C18.7562 28.0273 18.6754 27.6987 18.5031 27.6987C18.4728 27.6987 18.4175 27.7337 18.3819 27.7741Z" fill="white"/>
<path d="M35.1375 27.7997C34.8951 27.9007 34.7483 28.3255 34.8695 28.5632C35.0264 28.8467 35.5778 28.8669 35.8054 28.5989C35.9771 28.3962 36.0128 28.2293 35.9118 28.0778C35.7448 27.8246 35.3806 27.6933 35.1375 27.7997Z" fill="white"/>
<path d="M16.7627 34.6626C16.6771 34.7736 16.6569 34.8497 16.6771 35.0012C16.7074 35.2295 16.7728 35.2847 17.0205 35.2847C17.2481 35.2847 17.3242 35.1985 17.3599 34.9056C17.3902 34.6174 17.3195 34.5259 17.0663 34.5259C16.9148 34.5259 16.8488 34.5562 16.7627 34.6626Z" fill="white"/>
<mask id="mask2_2042_22452" style="mask-type:luminance" maskUnits="userSpaceOnUse" x="46" y="34" width="2" height="3">
<path d="M46.8613 34.7534H47.2061V36.3047H46.8613V34.7534Z" fill="white"/>
</mask>
<g mask="url(#mask2_2042_22452)">
<path d="M47.4206 34.9157C47.158 35.0066 47.0059 35.2644 47.0059 35.6132C47.0059 35.8004 47.0314 35.8717 47.1479 35.9774C47.3957 36.2104 47.4967 36.2609 47.6078 36.2003C47.6637 36.17 47.7492 36.1444 47.8003 36.1444C47.9013 36.1397 48.1841 35.902 48.2656 35.7499C48.3464 35.6031 48.3363 35.3506 48.24 35.158C48.1841 35.0422 48.0986 34.9709 47.9518 34.9103C47.6987 34.8147 47.6987 34.8147 47.4206 34.9157Z" fill="white"/>
</g>
<path d="M46.2024 35.0221C46.0199 35.2039 45.9492 35.5324 46.0758 35.6233C46.2024 35.7149 46.506 35.7654 46.5969 35.7048C46.6979 35.6388 46.8447 35.3856 46.8494 35.2698C46.8548 35.1433 46.5868 34.88 46.4501 34.88C46.3896 34.88 46.2785 34.9406 46.2024 35.0221Z" fill="white"/>
<path d="M22.8509 36.6757C22.6793 36.8474 22.6995 37.0803 22.8967 37.2271C23.028 37.3227 23.0482 37.3227 23.1701 37.2574C23.2408 37.2116 23.3263 37.0951 23.362 36.984C23.428 36.8023 23.4226 36.7821 23.3115 36.6703C23.1546 36.5134 23.0078 36.5188 22.8509 36.6757Z" fill="white"/>
<path d="M34.0793 37.5604C33.9177 37.6264 33.8066 37.8136 33.8066 38.0156C33.8066 38.2586 33.9022 38.3751 34.1608 38.4505C34.5802 38.5771 34.828 38.3495 34.7923 37.8742C34.7721 37.6264 34.6408 37.5099 34.3931 37.5153C34.2766 37.5153 34.1352 37.5355 34.0793 37.5604Z" fill="white"/>
<path d="M43.6131 44.3834C43.4462 44.5504 43.426 44.7221 43.5424 44.9449C43.6481 45.1516 43.8205 45.1826 44.0683 45.0405C44.2602 44.9341 44.2756 44.9092 44.2756 44.7066C44.2756 44.277 43.9013 44.0952 43.6131 44.3834Z" fill="white"/>
<path d="M28.3036 46.983C28.0761 47.2254 28.2276 47.696 28.5669 47.8125C28.7642 47.8778 28.7743 47.8731 28.8854 47.7411C29.0523 47.5337 29.0369 47.286 28.845 47.0537C28.6625 46.8308 28.4706 46.8059 28.3036 46.983Z" fill="white"/>
<path d="M42.0209 49.1322C41.965 49.178 41.8788 49.2843 41.8283 49.3597C41.7071 49.557 41.7576 50.0425 41.9293 50.2956C42.0458 50.4673 42.3494 50.7104 42.4457 50.7104C42.4706 50.7104 42.5716 50.7912 42.6733 50.8874C43.0678 51.2719 43.5735 50.9527 43.4213 50.4168C43.3964 50.3259 43.3809 50.2552 43.391 50.2552C43.4469 50.2552 43.1486 49.5671 43.0523 49.4607C42.6982 49.0817 42.2531 48.9403 42.0209 49.1322Z" fill="white"/>
<path d="M26.0791 49.5119C25.9121 49.6075 25.7148 50.0075 25.7148 50.2599C25.7148 50.4828 25.8158 50.7454 26.003 50.9931C26.069 51.0793 26.1195 51.1601 26.1195 51.1756C26.1195 51.2315 26.6554 51.762 26.7463 51.7923C26.7968 51.8125 26.9133 51.8024 27.0042 51.7721C27.2116 51.7068 27.3583 51.3877 27.2775 51.1803C27.2472 51.0894 27.2472 50.9931 27.2829 50.8821C27.3738 50.6094 27.3078 50.3764 26.9941 49.8405C26.8729 49.6378 26.782 49.5422 26.6655 49.5018C26.4582 49.4304 26.2259 49.4358 26.0791 49.5119Z" fill="white"/>
<path d="M42.4653 52.8144C42.3233 52.9154 42.3233 53.042 42.4701 53.1786C42.6067 53.3099 42.7993 53.3247 42.8444 53.2089C42.8902 53.0925 42.804 52.8851 42.6828 52.8043C42.5919 52.7437 42.5609 52.7484 42.4653 52.8144Z" fill="white"/>
<mask id="mask3_2042_22452" style="mask-type:luminance" maskUnits="userSpaceOnUse" x="26" y="64" width="1" height="2">
<path d="M26.1777 64.9167H26.8672V65.7395H26.1777V64.9167Z" fill="white"/>
</mask>
<g mask="url(#mask3_2042_22452)">
<path d="M26.2454 65.0076C26.1336 65.1194 26.1848 65.4122 26.3464 65.5745C26.4473 65.6802 26.4776 65.6856 26.5483 65.6297C26.6904 65.5085 26.7254 65.4021 26.6702 65.2102C26.5995 64.9423 26.4022 64.8514 26.2454 65.0076Z" fill="white"/>
</g>
</svg>
