<svg width="6" height="5" viewBox="0 0 6 5" fill="none" xmlns="http://www.w3.org/2000/svg">
<mask id="mask0_2008_8323" style="mask-type:luminance" maskUnits="userSpaceOnUse" x="1" y="0" width="5" height="5">
<path d="M1.44141 0.413086H5.31752V4.2892H1.44141V0.413086Z" fill="white"/>
</mask>
<g mask="url(#mask0_2008_8323)">
<mask id="mask1_2008_8323" style="mask-type:luminance" maskUnits="userSpaceOnUse" x="1" y="0" width="5" height="5">
<path d="M3.3798 0.413086C2.30927 0.413086 1.44141 1.28095 1.44141 2.35148C1.44141 3.42133 2.30927 4.2892 3.3798 4.2892C4.45033 4.2892 5.31752 3.42133 5.31752 2.35148C5.31752 1.28095 4.45033 0.413086 3.3798 0.413086Z" fill="white"/>
</mask>
<g mask="url(#mask1_2008_8323)">
<path d="M1.44141 0.413086H5.31752V4.2892H1.44141V0.413086Z" fill="#AA6E38"/>
</g>
</g>
<mask id="mask2_2008_8323" style="mask-type:luminance" maskUnits="userSpaceOnUse" x="0" y="1" width="5" height="3">
<path d="M0.371094 1.42773H4.50777V3.49607H0.371094V1.42773Z" fill="white"/>
</mask>
<g mask="url(#mask2_2008_8323)">
<mask id="mask3_2008_8323" style="mask-type:luminance" maskUnits="userSpaceOnUse" x="0" y="1" width="5" height="3">
<path d="M0.462989 1.41553L4.45962 1.68417L4.33843 3.48858L0.341797 3.22061L0.462989 1.41553Z" fill="white"/>
</mask>
<g mask="url(#mask3_2008_8323)">
<mask id="mask4_2008_8323" style="mask-type:luminance" maskUnits="userSpaceOnUse" x="0" y="1" width="5" height="3">
<path d="M0.462989 1.41553L4.45962 1.68417L4.33843 3.48858L0.341797 3.22061L0.462989 1.41553Z" fill="white"/>
</mask>
<g mask="url(#mask4_2008_8323)">
<mask id="mask5_2008_8323" style="mask-type:luminance" maskUnits="userSpaceOnUse" x="0" y="1" width="5" height="3">
<path d="M0.462989 1.41553L4.45962 1.68417L4.33843 3.48858L0.341797 3.22061L0.462989 1.41553Z" fill="white"/>
</mask>
<g mask="url(#mask5_2008_8323)">
<path d="M4.38319 2.40191C4.37578 2.35141 4.34414 2.29822 4.35155 2.2585C4.37848 2.11374 4.2923 2.06392 4.1839 2.02016C3.72539 1.83433 3.25611 1.68419 2.76865 1.59195C2.59494 1.55895 2.54848 1.60272 2.57541 1.77643C2.57878 1.79797 2.58551 1.81884 2.59023 1.84039C2.60504 1.91243 2.65621 1.94879 2.72286 1.94138C2.78885 1.9333 2.8454 1.95215 2.90398 1.96831C3.05345 2.00804 3.2009 2.05315 3.34969 2.09624C3.35373 2.10432 3.35373 2.1124 3.35037 2.12115C3.18676 2.12384 3.02315 2.13192 2.85954 2.12856C2.44143 2.11846 2.02466 2.1905 1.60386 2.14269C1.40322 2.1198 1.19719 2.13933 0.995208 2.15414C0.835638 2.16626 0.676743 2.14337 0.51852 2.16626C0.437726 2.17703 0.421567 2.19656 0.464657 2.26389C0.548818 2.39787 0.637692 2.53185 0.832945 2.50358C0.867283 2.49886 0.903641 2.50492 0.939325 2.50358C1.27058 2.4928 1.60184 2.49684 1.9331 2.49819C2.29129 2.49954 2.64947 2.49954 3.00766 2.49954C3.12684 2.49954 3.24601 2.49617 3.3773 2.49482C3.3369 2.55003 3.28842 2.5635 3.24803 2.58774C3.11068 2.66786 2.98679 2.76549 2.85887 2.85975C2.66429 3.00316 2.7296 3.21659 2.81039 3.3499C2.82588 3.37481 2.84675 3.3903 2.87233 3.35933C2.94976 3.26574 3.05951 3.21457 3.16117 3.15397C3.45136 2.97892 3.75434 2.82541 4.05665 2.67257C4.13542 2.63217 4.21419 2.59312 4.29297 2.55475C4.3576 2.52378 4.39598 2.48742 4.38319 2.40191ZM3.40288 2.10566C3.40558 2.10499 3.4076 2.10499 3.40962 2.10297C3.40827 2.10499 3.40625 2.10566 3.40423 2.10634C3.40423 2.10634 3.40356 2.10634 3.40288 2.10566Z" fill="white"/>
</g>
</g>
</g>
</g>
</svg>
