<svg width="300" height="180" viewBox="0 0 300 180" fill="none" xmlns="http://www.w3.org/2000/svg">
<g clip-path="url(#clip0_2004_2)">
<mask id="mask0_2004_2" style="mask-type:luminance" maskUnits="userSpaceOnUse" x="0" y="0" width="300" height="180">
<mask id="mask1_2004_2" style="mask-type:luminance" maskUnits="userSpaceOnUse" x="0" y="0" width="300" height="180">
<mask id="mask2_2004_2" style="mask-type:luminance" maskUnits="userSpaceOnUse" x="0" y="0" width="300" height="180">
<path d="M0 0V179.272H300V0H0Z" fill="white"/>
</mask>
<g mask="url(#mask2_2004_2)">
<path d="M-94.9883 334.209H388.422V-149.196H-94.9883V334.209Z" fill="white"/>
</g>
</mask>
<g mask="url(#mask1_2004_2)">
<path d="M-94.9883 -149.196H388.422V334.209H-94.9883V-149.196Z" fill="white"/>
</g>
</mask>
<g mask="url(#mask0_2004_2)">
<path d="M243.666 43.4467L243.143 43.64C242.831 43.7536 242.581 43.9867 242.439 44.288L242.285 44.9303C242.581 45.7375 243.052 46.0672 243.575 46.0672L243.865 46.0445L244.548 45.7944C244.86 45.675 245.11 45.4419 245.247 45.1407L245.395 44.4983C245.036 43.5433 244.314 43.2136 243.666 43.458M248.237 41.9744L247.589 41.8607L246.77 42.2131C246.463 42.3439 246.224 42.5883 246.099 42.8953L245.98 43.5433C246.31 44.3107 246.759 44.612 247.265 44.612L247.6 44.5779L248.288 44.2823C248.595 44.1516 248.834 43.9014 248.953 43.5945L249.067 42.9464C248.8 42.3325 248.555 42.0938 248.242 41.9744M251.807 40.3031L251.153 40.2122L250.346 40.5987C250.044 40.7409 249.817 40.9967 249.703 41.3093L249.607 41.963C249.959 42.6963 250.403 42.9806 250.88 42.9806L251.25 42.9408L251.937 42.6111C252.239 42.4633 252.466 42.2131 252.574 41.8948L252.665 41.2411C252.375 40.6385 252.119 40.4112 251.807 40.3031ZM228.813 46.0729L228.472 46.0161C227.625 45.8512 226.971 46.2946 226.84 46.9711L226.846 47.6305C227.221 48.1819 227.505 48.3695 227.829 48.4377L228.233 48.5116L228.563 48.5571C229.239 48.5571 229.768 48.0966 229.859 47.4884C229.961 46.8062 229.489 46.1696 228.807 46.0672M239.983 44.6973L239.454 44.8564C238.795 45.0497 238.408 45.7432 238.602 46.4083C238.755 46.937 239.25 47.3121 239.801 47.3121L240.04 47.2951L240.71 47.0961C241.37 46.8972 241.745 46.198 241.546 45.5386C241.347 44.8792 240.648 44.504 239.989 44.703M237.192 45.8399L236.578 45.5954C236.072 45.6977 235.896 45.7375 235.714 45.7716L235.1 46.0218C234.725 46.5732 234.656 46.9085 234.719 47.2326C234.833 47.8238 235.344 48.2501 235.947 48.2501L236.1 48.2444L236.561 48.1535C237.078 48.0454 237.362 47.8579 237.544 47.5793L237.794 46.9654C237.658 46.3117 237.465 46.0274 237.186 45.8455M232.496 46.198L232.138 46.2207C231.627 46.2435 231.32 46.3856 231.092 46.6357L230.751 47.1985C230.797 48.1989 231.342 48.7276 232.064 48.7276L232.462 48.7049C232.997 48.6707 233.298 48.5173 233.52 48.2671L233.849 47.693C233.781 46.6755 233.184 46.1525 232.496 46.198ZM267.854 30.5258L267.382 30.8384C266.808 31.2193 266.649 31.9981 267.03 32.5722C267.263 32.9247 267.655 33.1293 268.076 33.1293L268.559 33.0554L269.241 32.6006C269.815 32.2198 269.969 31.441 269.588 30.8669C269.207 30.2927 268.428 30.1392 267.854 30.5201M271.089 28.2861L270.634 28.6101C270.361 28.8034 270.179 29.0876 270.122 29.4173L270.139 30.0767C270.566 30.6793 270.946 30.8782 271.356 30.8782L271.867 30.7986L272.549 30.3155C272.822 30.1222 272.998 29.8323 273.055 29.5026L273.033 28.8432C272.436 28.0132 271.651 27.8825 271.094 28.2804M275.687 26.2681C275.238 25.7451 274.448 25.6826 273.925 26.1317L273.726 26.2965C273.192 26.7342 273.118 27.5244 273.556 28.0587L274.147 28.5135C274.812 28.5135 275.096 28.4112 275.318 28.2292L275.551 28.0303C276.074 27.5812 276.136 26.7911 275.687 26.2681ZM258.753 36.5855L258.094 36.5343L257.315 36.972C256.712 37.3074 256.496 38.0691 256.832 38.6717C257.053 39.0696 257.474 39.314 257.923 39.314L258.344 39.2629L259.032 38.882C259.322 38.7172 259.532 38.45 259.623 38.1317L259.674 37.4723C259.344 36.8924 259.077 36.6821 258.753 36.5912M254.353 38.5864L253.853 38.8479C253.239 39.1662 253 39.9223 253.319 40.5362C253.535 40.9512 253.961 41.207 254.427 41.207L254.825 41.1615L255.513 40.8034C256.121 40.4851 256.36 39.7233 256.036 39.1151C255.712 38.5068 254.956 38.2681 254.348 38.5921M262.152 34.5959L261.493 34.5618L260.726 35.0222C260.436 35.1928 260.237 35.4656 260.151 35.7896L260.117 36.4491C260.51 37.1141 260.925 37.3472 261.362 37.3472L261.806 37.2847L262.488 36.8811C263.079 36.5286 263.272 35.7555 262.92 35.1644L262.476 34.6755M265.501 32.504L264.841 32.4869L264.085 32.9644C263.801 33.1407 263.602 33.4192 263.528 33.7432L263.511 34.4026C263.92 35.0507 264.313 35.2724 264.75 35.2724L265.216 35.2041L265.899 34.7721C266.484 34.4026 266.655 33.6295 266.285 33.044L265.83 32.5665M187.583 38.3875L187.441 38.6035C185.94 40.9398 184.644 42.9521 183.78 44.3391C180.142 50.1942 177.897 50.865 177.095 50.882C176.487 50.9048 175.947 50.5523 175.447 49.819C174.776 48.8356 174.605 47.7669 174.918 46.5675C175.981 42.4633 182.393 37.6201 188.277 34.6414L190.732 33.4704C189.629 35.1985 188.549 36.8811 187.577 38.3875M195.439 30.4576C197.957 26.3363 200.964 21.3339 201.254 20.4756C201.476 19.8219 201.124 19.1113 200.47 18.8896C199.816 18.6679 199.106 19.0203 198.884 19.6741C198.611 20.4813 197.656 22.2548 196.042 24.9436L195.905 24.9777C191.124 26.7854 182.808 29.747 182.223 29.9403L182.177 29.9517C172.354 33.1463 162.998 35.2496 160.724 34.7949C161.207 33.5386 163.43 30.3155 165.919 27.2856L165.914 27.2799C166.283 26.9673 166.795 26.0634 166.789 25.7906C166.783 25.0857 166.459 24.7049 166.187 24.5116C165.493 24.0113 164.356 24.1193 163.532 24.3865C160.332 25.2165 157.285 26.5125 154.34 27.7631C151.953 28.7806 149.497 29.8209 146.973 30.6167L149.65 27.837C149.798 27.7461 149.923 27.6267 150.02 27.4903C151.68 25.927 153.527 24.3922 155.517 22.9199L155.579 22.8744L155.608 22.8062C155.994 21.9194 155.557 21.459 155.346 21.3055C154.8 20.9019 153.885 20.9701 153.328 21.4476C151.668 22.5788 149.986 23.9829 148.178 25.7394C142.738 27.5073 137.184 29.6959 131.812 31.8162L131.665 31.873C123.087 35.261 112.44 39.4618 110.444 37.7508C110.433 36.7901 111.251 34.0786 116.441 26.4727L116.635 26.1885C119.085 22.7835 121.563 19.549 123.672 16.8318L124.03 16.3714C126.162 13.6144 128.18 11.0052 129.982 8.22546L130.016 8.16293C130.437 7.45236 131.068 6.37231 130.192 5.28657C129.129 4.07577 127.765 4.77496 127.111 5.11035C122.467 7.4012 118.351 10.3117 113.377 14.8309L113.014 15.1208C111.899 16.1212 110.683 17.1786 109.273 18.4007L106.954 20.4187C106.874 20.4983 106.789 20.5722 106.687 20.6518L106.829 20.2937C107.755 18.5997 108.614 17.116 109.472 15.7347L110.188 14.649C111.445 12.7446 112.525 11.0961 113.73 9.51584L115.299 6.85549C115.663 6.10514 115.805 5.51395 115.714 5.07624C115.413 4.04734 114.946 3.74038 114.611 3.513L114.509 3.44479C110.359 0.369465 92.1515 9.69206 77.7242 20.3107C64.9056 29.7413 53.9573 39.098 47.6873 45.9877L47.3462 46.5561C47.3746 47.2212 47.5224 47.5282 47.7668 47.7555C48.2614 48.2046 49.0857 48.1591 49.5347 47.6703C55.7024 40.8943 66.5144 31.657 79.2022 22.323C86.683 16.8204 94.6299 11.9943 101.582 8.74843C109.08 5.24109 112.189 5.10466 112.877 5.37183L112.678 5.80954C112.337 6.60537 112.053 7.25909 111.263 8.59495C109.393 11.2553 107.835 13.5234 106.323 15.9337C105.465 17.3207 104.771 18.8271 104.163 20.1516L103.953 20.6063L103.924 20.6802C103.64 21.4078 103.111 22.7664 104.345 23.6703C106.266 25.2335 112.172 20.0094 118.266 14.126C119.022 13.3927 119.568 12.8697 119.812 12.6651C122.046 10.8233 124.337 9.34531 127.151 7.94692L125.156 10.7039C124.241 11.9033 123.337 13.0857 122.433 14.2567C118.368 19.5433 114.531 24.5343 111.217 30.0312L110.956 30.4803C109.347 33.2487 107.147 37.0402 108.375 39.1435C108.938 40.1099 110.16 40.5987 112.007 40.5987H112.087C116.231 40.5533 123.263 37.8815 132.75 34.107L133.057 33.9877C136.803 32.504 140.669 30.9806 144.466 29.622L144.318 29.7925C143.653 30.5713 142.852 31.5092 143.414 32.612C144.017 33.8512 145.393 33.5556 146.404 33.3396L146.871 33.2373C150.043 32.3562 152.868 31.1511 155.608 29.9914C157.933 29.0023 160.326 27.9848 162.776 27.189C157.097 34.4254 158.041 35.7101 158.45 36.2728C159.03 37.0289 159.951 37.3301 161.633 37.3074C163.941 37.2847 167.42 36.6594 171.973 35.4656C173.093 35.1871 178.732 33.6807 183.143 32.2539C187.839 30.7475 191.835 29.2525 193.899 28.4566L192.983 29.9175C191.255 30.4689 189.402 31.2591 187.157 32.396C177.686 37.188 173.343 42.6793 172.502 45.9251C172.007 47.8351 172.303 49.6144 173.383 51.206C174.594 52.991 176.061 53.3661 177.072 53.3661H177.152C179.812 53.315 182.757 50.7172 185.912 45.6466C186.764 44.2709 188.066 42.2529 189.573 39.9109L189.647 39.7915C190.295 38.7854 192.108 35.892 194.206 32.4699L194.518 32.396C195.348 32.2198 195.78 31.5547 195.638 30.8782L195.541 30.5713M206.53 30.6565L206.149 30.5428C205.296 30.2984 204.602 30.685 204.409 31.3444C204.216 32.0038 204.608 32.703 205.268 32.8905L205.614 32.9929L206.029 33.1009C206.706 33.1009 207.183 32.7484 207.348 32.2255C207.553 31.5661 207.183 30.8669 206.53 30.6565ZM198.35 29.4457H198.332L197.929 29.4514C197.395 29.4742 197.088 29.6163 196.86 29.8607L196.519 30.4235C196.559 31.4296 197.11 31.9526 197.832 31.9526L198.185 31.9412C199.049 31.9299 199.606 31.3614 199.594 30.6736C199.583 29.9914 199.026 29.44 198.344 29.44M202.476 29.7356L202.084 29.6788C201.197 29.5708 200.578 30.054 200.493 30.7418L200.538 31.4012C200.947 31.9299 201.243 32.0947 201.573 32.1402L202.226 32.2255C202.903 32.2255 203.431 31.765 203.522 31.1568L203.488 30.4974C203.09 29.963 202.8 29.7868 202.465 29.7356M200.754 17.7243L201.3 18.0369C201.845 18.0369 202.101 17.9573 202.34 17.8039C202.954 17.4003 203.301 16.6215 203.13 16.0246C203.045 15.729 202.761 15.2288 201.806 15.2117H201.766L201.726 15.2231C201.118 15.3823 200.407 15.9393 200.277 16.5931C200.191 17.0194 200.362 17.423 200.754 17.7243ZM162.44 16.1667C163.1 15.2856 163.805 14.8309 164.532 14.8252L165.095 14.8763L165.283 15.0753C165.288 15.4334 165.163 16.0303 163.964 16.9398C162.691 17.9801 161.969 17.8664 161.889 17.8095C161.827 17.7129 161.838 17.116 162.446 16.1667M162.088 20.0663H162.122L162.713 20.0549C163.617 19.8958 164.566 19.4239 165.368 18.7361C166.84 17.5878 167.579 16.3941 167.562 15.189C167.557 14.6092 167.38 13.7792 166.562 13.08L166.408 12.9322H166.317C166.027 12.7503 165.323 12.4718 164.373 12.5457C163.367 12.5571 161.895 12.9777 160.599 14.8991C158.734 17.5481 159.928 19.0601 160.354 19.4751C160.826 19.856 161.44 20.0663 162.082 20.0663M217.069 37.0289L216.784 36.7674L216.642 36.6366C216.131 36.1762 215.335 36.2217 214.874 36.7333C214.414 37.2449 214.454 38.0407 214.965 38.5012L215.238 38.7456C215.608 39.081 215.909 39.2004 216.222 39.2004L216.904 39.0526C217.364 38.5523 217.484 38.234 217.472 37.8986L217.319 37.2563M210.384 32.2255L210.031 32.0436C209.23 31.657 208.479 31.9185 208.184 32.5381L208.019 33.1805C208.241 33.8114 208.468 34.0672 208.769 34.2094L209.093 34.3685L209.622 34.5902C210.293 34.5902 210.719 34.3287 210.935 33.9081C211.248 33.2941 211.009 32.5381 210.395 32.2255M222.321 42.2814C221.838 41.7925 221.042 41.7868 220.553 42.2757C220.064 42.7645 220.059 43.5547 220.548 44.0436L220.951 44.4528C221.19 44.6859 221.503 44.8166 221.832 44.8166L222.486 44.6859C223.208 43.9583 223.208 43.1625 222.719 42.6793L222.321 42.2814ZM219.956 39.8541L219.558 39.4448C219.075 38.9502 218.279 38.9445 217.791 39.4277C217.302 39.9109 217.29 40.7011 217.773 41.1956L218.166 41.5992C218.404 41.8436 218.723 41.9801 219.064 41.9801L219.701 41.855C220.172 41.3946 220.309 41.0819 220.314 40.7465L220.195 40.0985M213.931 34.414L213.612 34.1809C212.885 33.6693 212.1 33.8114 211.708 34.3742L211.447 34.9824C211.56 35.6418 211.748 35.9261 212.021 36.1193L212.316 36.324C212.674 36.5855 212.93 36.6707 213.197 36.6707L213.971 36.4775C214.613 35.6021 214.494 34.8176 213.936 34.4083M225.493 44.9701L225.209 44.811C224.788 44.5438 224.453 44.4869 224.129 44.5608L223.526 44.828C223.168 45.3908 223.111 45.7262 223.185 46.0559L223.458 46.6584C223.924 46.954 224.106 47.062 224.294 47.1644L224.686 47.3178C225.351 47.3178 225.772 47.0677 225.993 46.6698L226.192 46.0388C226.005 45.3965 225.789 45.135 225.499 44.9701" fill="#AF733A"/>
</g>
<mask id="mask3_2004_2" style="mask-type:luminance" maskUnits="userSpaceOnUse" x="0" y="0" width="300" height="180">
<mask id="mask4_2004_2" style="mask-type:luminance" maskUnits="userSpaceOnUse" x="0" y="0" width="300" height="180">
<mask id="mask5_2004_2" style="mask-type:luminance" maskUnits="userSpaceOnUse" x="0" y="0" width="300" height="180">
<path d="M0 0V179.272H300V0H0Z" fill="white"/>
</mask>
<g mask="url(#mask5_2004_2)">
<path d="M-94.9883 334.209H388.422V-149.196H-94.9883V334.209Z" fill="white"/>
</g>
</mask>
<g mask="url(#mask4_2004_2)">
<path d="M-94.9883 -149.196H388.422V334.209H-94.9883V-149.196Z" fill="white"/>
</g>
</mask>
<g mask="url(#mask3_2004_2)">
<path d="M93.0384 93.6409L100.167 67.4808L107.426 93.6409H93.0384ZM120.603 104.373L109.87 65.4913H98.4046C98.9162 67.1454 98.8025 67.9413 98.4046 69.5386L88.6954 104.993C88.1213 107.119 87.8314 108.364 86.4671 111.166H88.6954C88.8546 108.483 89.3719 107.119 89.9403 104.947L92.6803 94.829H107.756L110.382 104.373C111.132 107.113 111.524 108.301 111.644 111.161H123.286C122.041 108.875 121.41 107.392 120.603 104.373ZM43.8901 70.1071C48.6253 67.2023 52.5135 66.6907 55.7082 66.6907H56.4415V98.9503C56.4415 104.26 56.2824 106.823 55.8276 111.166H66.6623C66.2075 106.823 66.0484 104.26 66.0484 98.9503V66.6907H66.7817C69.9763 66.6907 73.9214 67.2023 78.5998 70.1071L81.9138 65.4913H40.5761L43.8901 70.1071ZM147.974 135.365L137.639 173.253L127.305 135.939C126.492 133.165 126.145 131.966 125.969 129.073H114.247C115.447 131.386 116.083 132.887 116.959 135.939L127.816 175.265H139.367C138.85 173.588 138.952 172.786 139.367 171.172L149.184 135.297C149.81 133.16 150.043 131.903 151.481 129.067H149.23C149.008 131.778 148.548 133.16 147.968 135.354M102.549 129.078H91.5889C92.0493 133.467 92.2142 136.064 92.2142 141.431V162.918C92.2142 168.284 92.0493 170.882 91.5889 175.271H102.549C102.088 170.882 101.923 168.284 101.923 162.918V141.431C101.923 136.064 102.088 133.467 102.549 129.078ZM294.242 70.7949C295.225 68.7428 295.68 67.7139 297.158 65.4856H295.163C294.412 67.7139 294.077 68.5666 292.934 70.8517L284.078 89.3378L274.664 70.8517C273.522 68.6803 273.067 67.7139 272.379 65.4856H260.169C261.823 67.3615 262.619 68.6803 263.761 70.8517L274.55 92.0834V98.9446C274.55 104.254 274.374 106.818 273.92 111.161H284.771C284.316 106.818 284.14 104.254 284.14 98.9446V92.0834L294.242 70.7949ZM185.082 175.214C173.872 175.214 168.267 164.356 168.267 152.169C168.267 140.055 173.872 129.135 185.082 129.135C196.28 129.135 201.942 140.049 201.942 152.169C201.942 164.356 196.275 175.214 185.082 175.214ZM185.082 127.924C169.484 127.924 157.768 137.224 157.768 152.169C157.768 167.193 169.484 176.43 185.082 176.43C200.669 176.43 212.442 167.193 212.442 152.169C212.442 137.218 200.669 127.924 185.082 127.924ZM219.769 133.751C224.561 130.812 228.489 130.295 231.723 130.295H232.462V162.918C232.462 168.284 232.298 170.882 231.837 175.271H242.797C242.336 170.882 242.172 168.284 242.172 162.918V130.295H242.911C246.145 130.295 250.13 130.812 254.865 133.751L258.219 129.078H216.415L219.769 133.751ZM214.96 111.161H217.234C216.779 106.818 216.62 104.254 216.62 98.9446V68.055L216.841 68.1118L240.711 111.161H252.176C251.778 106.818 251.619 104.254 251.619 98.9446V77.7016C251.619 72.3923 251.778 69.8285 252.176 65.4856H249.965C250.42 69.8229 250.539 72.3923 250.539 77.7016V108.597L250.306 108.54L226.494 65.4913H214.96C215.415 69.8285 215.574 72.3979 215.574 77.7073V98.956C215.574 104.265 215.415 106.829 214.96 111.172M24.6367 57.1976L24.7902 56.6689C20.5211 57.4932 18.3098 56.4756 16.7409 53.838C16.1611 52.8603 15.1834 52.667 14.4955 53.1047C13.7452 53.5822 13.7281 54.469 13.8418 54.8612C14.2397 56.2937 19.1853 60.1308 24.6367 57.2032M150.742 111.104C143.102 111.104 137.622 103.862 135.786 94.1526L128.999 97.9214C134.012 108.534 140.936 112.303 150.071 112.303C157.546 112.303 163.941 108.478 163.941 100.366C163.941 92.6518 158.575 88.9455 147.786 81.7603C139.56 76.3373 137.054 74.5637 137.054 70.9711C137.054 67.8787 139.737 65.5481 144.239 65.5481C151.674 65.5481 154.573 71.8806 156.233 78.1563L162.975 75.3539C157.83 67.5377 152.066 64.343 144.807 64.343C137.565 64.343 131.682 67.7764 131.682 74.4444C131.682 80.6177 135.451 83.7556 144.762 90.0881C153.942 96.54 158.632 99.5756 158.632 103.958C158.632 108.472 155.54 111.098 150.742 111.098M69.4932 121.944L69.6466 121.415C65.3776 122.24 63.172 121.222 61.5974 118.585C61.0176 117.607 60.0398 117.414 59.352 117.851C58.6016 118.329 58.5846 119.216 58.6983 119.608C59.0962 121.04 64.0417 124.877 69.4932 121.95M67.2364 56.163C67.4354 55.8105 67.6286 54.9465 67.009 54.3041C66.4406 53.7186 65.4515 53.6788 64.6556 54.4917C62.5126 56.686 60.1251 57.1578 56.4699 55.4922L55.9129 55.6571C60.8015 60.0341 66.5088 57.459 67.2364 56.163ZM183.058 66.6907H183.792V98.9503C183.792 104.26 183.632 106.823 183.178 111.166H194.012C193.558 106.823 193.398 104.26 193.398 98.9503V66.6907H194.132C197.326 66.6907 201.271 67.2023 205.95 70.1071L209.264 65.4913H167.92L171.235 70.1071C175.97 67.2023 179.858 66.6907 183.053 66.6907M282.725 60.5912C283.924 59.7044 288.739 55.7025 289.353 54.0313C289.523 53.5765 289.592 52.5135 288.733 51.8712C287.949 51.2857 286.664 51.7063 286.266 52.1781C284.828 53.8892 283.271 58.414 282.361 60.4036V60.8584M52.7978 174.054L79.0147 131.21V129.073H42.6395L46.0502 133.58C50.7798 130.63 55.5093 130.289 58.7608 130.289H68.0436L41.7812 173.139V175.276H78.3326L80.47 170.768C72.7902 173.719 68.3961 174.06 63.8314 174.06L52.7978 174.054ZM21.6239 81.7603C13.3984 76.3373 10.8916 74.5637 10.8916 70.9711C10.8916 67.8787 13.5746 65.5481 18.0768 65.5481C25.5121 65.5481 28.4112 71.8806 30.0711 78.1563L36.8186 75.3539C31.6741 67.5377 25.91 64.343 18.6509 64.343C11.4088 64.343 5.53106 67.7764 5.53106 74.4444C5.53106 80.6177 9.29989 83.7556 18.6111 90.0881C27.7916 96.54 32.4813 99.5756 32.4813 103.958C32.4813 108.472 29.3889 111.098 24.5912 111.098C16.9512 111.098 11.4657 103.856 9.63527 94.1469L2.84229 97.9214C7.85602 108.534 14.7798 112.303 23.9148 112.303C31.3899 112.303 37.785 108.478 37.785 100.366C37.785 92.6518 32.4188 88.9455 21.6296 81.7603" fill="#070004"/>
</g>
</g>
<defs>
<clipPath id="clip0_2004_2">
<rect width="300" height="179.272" fill="white"/>
</clipPath>
</defs>
</svg>
