<svg width="58" height="13" viewBox="0 0 58 13" fill="none" xmlns="http://www.w3.org/2000/svg">
<path d="M8.73412 3.39314C8.77068 3.48061 8.74979 3.54132 8.67146 3.57591C8.03765 3.87878 7.40645 4.11377 6.77851 4.28087C6.14992 4.44667 5.56441 4.56481 5.02133 4.63596C4.47825 4.70581 4.01415 4.74758 3.62968 4.76129C3.443 4.76847 3.27851 4.77173 3.13621 4.77173C2.99326 4.77173 2.87838 4.76912 2.79156 4.7639C2.4554 5.12944 2.14666 5.42839 1.86467 5.65946C1.58399 5.88923 1.33791 6.00803 1.12577 6.01455C0.979554 6.02173 0.872505 5.97474 0.804619 5.87356C0.73804 5.77304 0.721721 5.64837 0.755011 5.50019C0.794828 5.31938 0.886865 5.16534 1.03177 5.03805C1.17603 4.90946 1.35031 4.80568 1.55397 4.72735C1.75762 4.64902 1.96128 4.58831 2.16493 4.54458C2.36859 4.5015 2.54679 4.47082 2.70018 4.4532C2.76937 4.36965 2.84901 4.27826 2.93778 4.17904C3.02655 4.07852 3.13752 3.95124 3.27198 3.79784C3.40775 3.64314 3.58008 3.44406 3.78895 3.19993C3.99914 2.9545 4.26219 2.64641 4.57747 2.27565C4.89405 1.90359 5.28112 1.45254 5.73935 0.92317C5.66624 0.953196 5.58856 0.980611 5.50697 1.00672C5.42472 1.03283 5.34117 1.06155 5.25632 1.09288C4.48869 1.34745 3.97825 1.39967 3.72629 1.24954C3.52916 1.12944 3.396 1.01064 3.32681 0.891838C3.25893 0.771734 3.22629 0.672517 3.23021 0.594188C3.23543 0.514553 3.23804 0.47082 3.23804 0.46364C3.26023 0.374867 3.31898 0.34223 3.41297 0.364423C3.49979 0.389227 3.53177 0.447974 3.50958 0.541969C3.50958 0.541969 3.51872 0.590272 3.5383 0.685572C3.55919 0.781525 3.67211 0.891185 3.87773 1.01455C3.95736 1.06547 4.08726 1.07918 4.26676 1.05633C4.44561 1.03218 4.65057 0.987791 4.88034 0.92317C5.11141 0.859201 5.34117 0.782178 5.56963 0.693405C5.79744 0.604632 6.00044 0.520428 6.17799 0.440141C6.24196 0.403588 6.2994 0.417948 6.35031 0.481916C6.39209 0.548496 6.38686 0.605937 6.33465 0.65424C6.33465 0.65424 6.22499 0.781525 6.00566 1.03544C5.78765 1.28805 5.44496 1.68753 4.97694 2.23387C4.50827 2.78087 3.8947 3.49432 3.13621 4.37487L3.03961 4.48975C3.26545 4.48844 3.5729 4.47669 3.96128 4.45581C4.35096 4.43361 4.79287 4.38466 5.28765 4.30959C5.78177 4.23322 6.30658 4.11638 6.86206 3.95972C7.41885 3.80307 7.97955 3.59092 8.54352 3.32265C8.57616 3.30698 8.61206 3.30698 8.65057 3.32265C8.69039 3.33831 8.71846 3.36181 8.73412 3.39314ZM1.06311 5.45842C0.989998 5.60333 0.99522 5.68427 1.07877 5.70124C1.16232 5.7169 1.28373 5.68557 1.44431 5.60724C1.60423 5.52761 1.77329 5.41403 1.95083 5.26782C2.12838 5.1203 2.27329 4.95711 2.38686 4.77957C2.07485 4.83897 1.82681 4.91012 1.64274 4.99367C1.45997 5.07722 1.32485 5.16077 1.23804 5.24432C1.15253 5.32656 1.09444 5.39771 1.06311 5.45842Z" fill="#070004"/>
<path d="M14.6876 3.15848C14.6942 3.17088 14.6987 3.19373 14.7007 3.22637C14.6883 3.28054 14.6602 3.31906 14.6171 3.34125C14.61 3.34125 14.544 3.36671 14.4187 3.41697C14.2947 3.46788 14.1276 3.53381 13.9174 3.6154C13.7555 3.68329 13.5447 3.7688 13.2855 3.87128C13.0277 3.97441 12.7542 4.07689 12.4657 4.17937C12.1765 4.2825 11.8965 4.36932 11.625 4.44047C11.3547 4.51031 11.1269 4.54882 10.9409 4.55535C10.8208 4.55927 10.7274 4.54621 10.6615 4.51618C10.5584 4.46788 10.4983 4.38955 10.4814 4.2812C10.4709 4.20483 10.4853 4.11344 10.5258 4.00705C10.5656 3.89934 10.623 3.78707 10.6981 3.67023C10.6981 3.67023 10.7255 3.63302 10.7816 3.55796C10.8391 3.48159 10.9043 3.39738 10.9774 3.3047C11.0506 3.21266 11.1132 3.14216 11.1654 3.09321C10.7372 3.21527 10.3221 3.35692 9.92001 3.5188C9.51792 3.68067 9.1093 3.82297 8.69546 3.94438C8.63672 3.96527 8.56883 3.9731 8.49181 3.96788C8.41348 3.96135 8.34951 3.9359 8.2986 3.89216C8.24638 3.84712 8.23202 3.78381 8.25421 3.70156C8.32732 3.52075 8.44089 3.36605 8.59364 3.23681C8.74507 3.10626 8.89194 2.97963 9.03489 2.85561C9.27836 2.65913 9.54664 2.48616 9.83907 2.33603C10.1315 2.18459 10.4383 2.14216 10.7607 2.20809C10.8965 2.23094 11.0101 2.2936 11.1028 2.39608C11.1968 2.49921 11.2392 2.62062 11.2307 2.76161C11.2568 2.76031 11.279 2.759 11.2986 2.759C11.3195 2.7577 11.3436 2.75639 11.3717 2.75639C11.4135 2.76161 11.4768 2.77141 11.5623 2.78511C11.6491 2.79752 11.6778 2.84125 11.6485 2.91566C11.5088 3.10757 11.3991 3.25117 11.3195 3.34647C11.2392 3.44242 11.1478 3.54621 11.0453 3.65718C10.9513 3.78642 10.8769 3.90195 10.8234 4.00443C10.7712 4.10561 10.749 4.18133 10.7581 4.23159C10.7594 4.24595 10.7673 4.25639 10.7816 4.26292C10.856 4.29947 11.0101 4.29295 11.2438 4.24203C11.4788 4.18981 11.7568 4.11344 12.0793 4.01227C12.4011 3.90979 12.7327 3.79229 13.0741 3.65979C13.4148 3.52598 13.7281 3.39738 14.014 3.27336C14.014 3.27336 14.0741 3.24987 14.1942 3.20287C14.3156 3.15457 14.4194 3.11148 14.5049 3.07493C14.5362 3.06122 14.5714 3.06188 14.6119 3.07754C14.6537 3.0919 14.6785 3.11866 14.6876 3.15848ZM10.9174 2.87128C10.952 2.74987 10.9435 2.65718 10.8913 2.59451C10.8391 2.53054 10.762 2.49203 10.6615 2.47963C10.5623 2.46592 10.4579 2.46592 10.3482 2.47963C10.2398 2.49399 10.1504 2.51553 10.0793 2.5449C9.78489 2.6637 9.51139 2.82363 9.25943 3.02532C9.00682 3.22767 8.7751 3.44569 8.56492 3.68067C8.967 3.57101 9.35865 3.43981 9.73985 3.28642C10.1224 3.13172 10.5153 2.99334 10.9174 2.87128Z" fill="#070004"/>
<path d="M20.9098 2.92152C20.9464 3.01421 20.9229 3.07492 20.8393 3.10429C20.8321 3.10429 20.7479 3.13758 20.5861 3.20351C20.4255 3.27009 20.2114 3.35625 19.9438 3.46199C19.6755 3.56839 19.3726 3.68588 19.0351 3.81447C18.699 3.94372 18.3498 4.07492 17.9881 4.20873C17.9881 4.20873 17.9385 4.2257 17.8393 4.25834C17.7401 4.29163 17.6128 4.3334 17.4581 4.38367C17.3047 4.43262 17.1474 4.48158 16.9855 4.52988C16.825 4.57883 16.6859 4.61865 16.5678 4.64998C16.4425 4.67609 16.3041 4.69698 16.1526 4.71265C16.0012 4.72701 15.8693 4.68654 15.7584 4.59254C15.6905 4.52857 15.6644 4.4509 15.68 4.36017C15.697 4.27009 15.7218 4.19045 15.7532 4.12257C15.8576 3.90847 15.9836 3.71004 16.1317 3.52727C16.2793 3.3445 16.43 3.16108 16.5834 2.97635C15.8347 3.15782 15.122 3.44763 14.4451 3.84581C14.3791 3.89672 14.2962 3.92348 14.197 3.92675C14.0978 3.93066 14.0495 3.87192 14.0508 3.75181C14.1938 3.44045 14.3811 3.15912 14.6122 2.90847C14.8452 2.65651 15.0834 2.4163 15.3276 2.18784C15.3863 2.1304 15.4457 2.11343 15.5051 2.13562C15.5658 2.15651 15.6017 2.20612 15.6122 2.28445C15.4327 2.47766 15.2479 2.66826 15.0586 2.85625C14.8707 3.04293 14.697 3.24528 14.5391 3.46461C14.8785 3.2838 15.2244 3.12387 15.5782 2.98419C15.9314 2.84515 16.2962 2.74528 16.6722 2.68393C16.778 2.65259 16.8589 2.68523 16.915 2.78053C16.9725 2.87453 16.9653 2.95938 16.8941 3.0338C16.7303 3.2603 16.5547 3.48027 16.3667 3.69437C16.18 3.90716 16.0391 4.15064 15.9438 4.42544C16.2081 4.43588 16.4666 4.40129 16.7192 4.321C16.9731 4.24137 17.2244 4.16304 17.4738 4.08601C17.5397 4.06513 17.6056 4.04555 17.6722 4.02596C17.7381 4.00703 17.8034 3.98288 17.868 3.95286C18.2754 3.80664 18.7192 3.6415 19.1996 3.45677C19.6814 3.27074 20.1918 3.06774 20.7297 2.84842C20.806 2.81382 20.8661 2.83797 20.9098 2.92152Z" fill="#070004"/>
<path d="M26.8751 2.69559C26.8817 2.70799 26.8862 2.73084 26.8882 2.76348C26.8758 2.81765 26.8477 2.85617 26.8046 2.87836C26.7975 2.87836 26.7315 2.90382 26.6062 2.95408C26.4822 3.00499 26.3151 3.07092 26.1049 3.15251C25.943 3.2204 25.7322 3.3059 25.473 3.40838C25.2152 3.51152 24.9417 3.614 24.6532 3.71648C24.364 3.81961 24.084 3.90643 23.8125 3.97758C23.5422 4.04742 23.3144 4.08593 23.1284 4.09246C23.0083 4.09637 22.9149 4.08332 22.849 4.05329C22.7459 4.00499 22.6858 3.92666 22.6689 3.81831C22.6584 3.74194 22.6728 3.65055 22.7133 3.54416C22.7531 3.43645 22.8105 3.32418 22.8856 3.20734C22.8856 3.20734 22.913 3.17013 22.9691 3.09507C23.0266 3.0187 23.0918 2.93449 23.1649 2.84181C23.2381 2.74977 23.3007 2.67927 23.3529 2.63032C22.9247 2.75238 22.5096 2.89402 22.1075 3.0559C21.7054 3.21778 21.2968 3.36008 20.883 3.48149C20.8242 3.50238 20.7563 3.51021 20.6793 3.50499C20.601 3.49846 20.537 3.47301 20.4861 3.42927C20.4339 3.38423 20.4195 3.32092 20.4417 3.23867C20.5148 3.05786 20.6284 2.90316 20.7811 2.77392C20.9326 2.64337 21.0794 2.51674 21.2224 2.39272C21.4659 2.19624 21.7341 2.02327 22.0266 1.87314C22.319 1.7217 22.6258 1.67927 22.9482 1.7452C23.084 1.76805 23.1976 1.83071 23.2903 1.93319C23.3843 2.03632 23.4267 2.15773 23.4182 2.29872C23.4443 2.29742 23.4665 2.29611 23.4861 2.29611C23.507 2.29481 23.5311 2.2935 23.5592 2.2935C23.601 2.29872 23.6643 2.30852 23.7498 2.32222C23.8366 2.33463 23.8653 2.37836 23.836 2.45277C23.6963 2.64468 23.5866 2.78828 23.507 2.88358C23.4267 2.97953 23.3353 3.08332 23.2328 3.19429C23.1388 3.32353 23.0644 3.43906 23.0109 3.54154C22.9587 3.64272 22.9365 3.71844 22.9456 3.7687C22.9469 3.78306 22.9548 3.7935 22.9691 3.80003C23.0435 3.83658 23.1976 3.83006 23.4313 3.77914C23.6663 3.72692 23.9443 3.65055 24.2668 3.54938C24.5886 3.4469 24.9202 3.3294 25.2616 3.1969C25.6023 3.06308 25.9156 2.93449 26.2015 2.81047C26.2015 2.81047 26.2616 2.78697 26.3817 2.73998C26.5031 2.69167 26.6069 2.64859 26.6924 2.61204C26.7237 2.59833 26.7589 2.59899 26.7994 2.61465C26.8412 2.62901 26.866 2.65577 26.8751 2.69559ZM23.1049 2.40838C23.1395 2.28697 23.131 2.19429 23.0788 2.13162C23.0266 2.06765 22.9495 2.02914 22.849 2.01674C22.7498 2.00303 22.6454 2.00303 22.5357 2.01674C22.4273 2.0311 22.3379 2.05264 22.2668 2.08201C21.9724 2.20081 21.6989 2.36073 21.4469 2.56243C21.1943 2.76478 20.9626 2.9828 20.7524 3.21778C21.1545 3.10812 21.5461 2.97692 21.9273 2.82353C22.3099 2.66883 22.7028 2.53045 23.1049 2.40838Z" fill="#070004"/>
<path d="M17.1246 9.59605C17.1612 9.68352 17.1403 9.74423 17.062 9.77882C16.4301 10.0908 15.8381 10.3004 15.2865 10.4081C14.7343 10.5145 14.2167 10.5987 13.733 10.6613C13.5032 10.6966 13.2774 10.7305 13.0567 10.7632C12.8355 10.7945 12.6233 10.8415 12.4197 10.9041L12.2108 11.1705C12.0437 11.3761 11.872 11.5667 11.6964 11.7423C11.5202 11.9185 11.3394 12.0837 11.1533 12.2384C11.0887 12.2873 11.0189 12.3363 10.9445 12.3846C10.8694 12.4335 10.7858 12.4864 10.6938 12.5438C10.5959 12.5961 10.4908 12.63 10.3779 12.6457C10.1723 12.6541 10.0496 12.6085 10.0097 12.5073C9.96927 12.4048 9.97841 12.2827 10.0358 12.1417C10.0933 11.9994 10.1638 11.8767 10.2473 11.7736C10.357 11.6692 10.4614 11.5752 10.5607 11.4916C10.6599 11.4081 10.7578 11.3343 10.8557 11.2697C11.0646 11.1306 11.2793 11.0086 11.5006 10.9041C11.7232 10.7984 11.953 10.7122 12.1899 10.6457C12.2819 10.6143 12.3596 10.5543 12.4223 10.4655C12.5163 10.3088 12.6142 10.1541 12.7173 10.0008C12.8218 9.84605 12.9236 9.67699 13.0228 9.49423C13.0678 9.41981 13.1116 9.32843 13.1533 9.22007C13.1964 9.11237 13.2114 9.01054 13.1977 8.91459C13.1834 8.81733 13.1096 8.75141 12.9758 8.71616C12.8674 8.68874 12.7591 8.68352 12.6494 8.70049C12.5411 8.71812 12.4405 8.73835 12.3466 8.76054C11.9392 8.86368 11.6057 9.01316 11.3466 9.20963C11.308 9.2377 11.2689 9.25793 11.2291 9.26968C11.1886 9.28013 11.1455 9.26381 11.0985 9.22007C11.0567 9.18222 11.0626 9.13522 11.1168 9.07908C11.1723 9.0236 11.2121 8.98182 11.2369 8.95376C11.308 8.89827 11.3811 8.84279 11.4562 8.78665C11.5306 8.73117 11.6037 8.67438 11.6755 8.61694C11.8283 8.4988 11.9843 8.37673 12.1429 8.25141C12.3009 8.12608 12.4614 8.0001 12.6233 7.87282C12.6631 7.83822 12.733 7.77882 12.8322 7.69527C12.9314 7.61172 13.0254 7.52034 13.1142 7.42112C13.203 7.3206 13.246 7.23966 13.2447 7.1783C13.1977 7.16981 13.156 7.17047 13.1194 7.18091C13.0842 7.19135 13.0469 7.20441 13.0071 7.22007C12.8381 7.30036 12.6945 7.37086 12.5763 7.43156C12.4595 7.49292 12.3452 7.55428 12.2343 7.61694C11.4144 8.1078 10.5717 8.77229 9.70687 9.60911C9.52932 9.79579 9.34394 9.97921 9.15073 10.16C8.95752 10.3415 8.76431 10.5282 8.5711 10.7214C8.52541 10.7566 8.46731 10.8017 8.39616 10.8572C8.32632 10.9133 8.25648 10.9146 8.18729 10.8624C8.13311 10.8206 8.12071 10.7619 8.15073 10.6848C8.18206 10.6065 8.21339 10.5432 8.24473 10.4942C8.89877 9.32647 9.79629 8.27099 10.9366 7.32712C11.1227 7.17047 11.3126 7.02164 11.5058 6.88065C11.7003 6.73966 11.8949 6.58953 12.0881 6.42895C12.1716 6.35258 12.246 6.31864 12.3126 6.32712C12.3805 6.3343 12.4171 6.36759 12.4223 6.42634C12.4288 6.48574 12.374 6.55819 12.2578 6.64305C11.5894 7.13065 11.0006 7.60911 10.4928 8.07908C9.98624 8.54775 9.54368 9.03861 9.1664 9.55167C9.10373 9.63913 9.04107 9.72856 8.97841 9.8206C8.91574 9.91329 8.85308 10.0079 8.79042 10.1052C8.77606 10.1248 8.7617 10.1444 8.74603 10.1652C8.73037 10.1861 8.71535 10.207 8.70165 10.2279C8.72253 10.2142 8.75191 10.1861 8.79042 10.1444C9.0724 9.86107 9.37266 9.56472 9.6912 9.25663C10.011 8.94853 10.3439 8.65806 10.6886 8.38457C10.9458 8.18287 11.2278 7.97138 11.5345 7.7501C11.8426 7.52947 12.1697 7.32908 12.5163 7.14958C12.699 7.05754 12.8825 6.98117 13.0672 6.91981C13.1122 6.90611 13.1755 6.8937 13.2578 6.88326C13.3394 6.87282 13.4092 6.91394 13.4667 7.00598C13.5502 7.11955 13.5385 7.25532 13.4327 7.41329C13.387 7.47464 13.3374 7.53992 13.2839 7.60911C13.2317 7.67699 13.1729 7.739 13.109 7.79449C12.9797 7.91329 12.8459 8.0347 12.7069 8.16002C12.5691 8.28535 12.4255 8.39697 12.2761 8.49423C12.2761 8.49423 12.2774 8.49423 12.2813 8.49423C12.2845 8.49423 12.2865 8.49423 12.2865 8.49423C12.3994 8.47725 12.515 8.46159 12.6338 8.44723C12.7539 8.43156 12.8772 8.43548 13.0045 8.45767C13.1834 8.48378 13.3113 8.55558 13.3883 8.67177C13.4875 8.80101 13.5097 8.9531 13.4562 9.12869C13.404 9.30493 13.3446 9.45963 13.2787 9.59344C13.1964 9.74357 13.109 9.89044 13.015 10.0347C12.921 10.1776 12.8296 10.3271 12.7408 10.4838L12.6938 10.5438C12.8537 10.5125 13.0176 10.4857 13.1847 10.4629C13.3531 10.4387 13.5267 10.4133 13.7043 10.3872C14.1742 10.3232 14.6781 10.2377 15.216 10.1313C15.7552 10.0236 16.3315 9.8219 16.9445 9.52556C17.0208 9.489 17.0809 9.5125 17.1246 9.59605ZM10.6938 12.2331C11.122 11.9603 11.5424 11.5517 11.9549 11.0086C11.9079 11.0314 11.8635 11.053 11.8217 11.0739C11.78 11.0947 11.7356 11.1169 11.6886 11.1391C11.5528 11.2109 11.4144 11.2847 11.2734 11.3611C11.1338 11.4361 10.9954 11.5125 10.8583 11.5908C10.7415 11.6607 10.6298 11.7514 10.5241 11.8624C10.4177 11.974 10.3309 12.0974 10.263 12.2331C10.2264 12.3258 10.2402 12.3728 10.3048 12.3741C10.3687 12.3761 10.4432 12.3572 10.5267 12.3167C10.6116 12.2769 10.6677 12.2488 10.6938 12.2331Z" fill="#070004"/>
<path d="M22.138 9.41867C22.1517 9.45 22.151 9.48525 22.1354 9.52311C22.1197 9.55966 22.0962 9.58577 22.0649 9.60144C22.0577 9.60862 21.997 9.63538 21.8821 9.68238C21.7685 9.72938 21.6275 9.78421 21.4591 9.84687C21.292 9.90953 21.1145 9.97872 20.9265 10.0531C20.7398 10.1282 20.5695 10.1954 20.4148 10.2542C20.2614 10.3116 20.1458 10.3586 20.0675 10.3952C19.8638 10.4618 19.6615 10.5251 19.4617 10.5858C19.2614 10.6452 19.0557 10.6993 18.8456 10.7477C18.6471 10.7881 18.4369 10.8279 18.2163 10.8678C17.997 10.9063 17.7783 10.9134 17.561 10.8886C17.343 10.8625 17.1386 10.7836 16.9474 10.651C16.8103 10.5505 16.7405 10.4187 16.7385 10.2568C16.7352 10.0936 16.7666 9.9252 16.8325 9.75287C16.8991 9.58055 16.967 9.44086 17.0362 9.33251C17.1615 9.11515 17.3188 8.92259 17.5087 8.75549C17.698 8.58838 17.9082 8.46045 18.138 8.37167C18.2372 8.33512 18.3495 8.32141 18.4748 8.3299C18.6014 8.33708 18.6896 8.39648 18.7385 8.50744C18.7751 8.60862 18.7705 8.70327 18.7255 8.79204C18.6798 8.87951 18.6249 8.95327 18.561 9.01397C18.3625 9.20196 18.1367 9.3547 17.8847 9.47089C17.6341 9.58577 17.3834 9.6876 17.1328 9.77637C17.1099 9.87233 17.0792 9.97742 17.0414 10.0923C17.0016 10.2059 17.0198 10.3077 17.0962 10.3978C17.2333 10.5094 17.3899 10.574 17.5662 10.591C17.7437 10.6086 17.9161 10.6106 18.0832 10.5962C18.5584 10.5388 19.0238 10.4363 19.48 10.2881C19.9356 10.1386 20.3841 9.97154 20.8247 9.78682C20.9291 9.74896 21.0649 9.69739 21.232 9.63277C21.3991 9.56684 21.5564 9.50483 21.7046 9.44739C21.8521 9.38864 21.9356 9.3547 21.9552 9.34556C22.0336 9.30901 22.0943 9.33381 22.138 9.41867ZM18.5166 8.58838C18.262 8.60405 18.0336 8.69413 17.8299 8.85731C17.6275 9.02115 17.4539 9.20327 17.3077 9.403C17.5375 9.31423 17.7607 9.20914 17.9787 9.08708C18.198 8.96567 18.3769 8.79922 18.5166 8.58838Z" fill="#070004"/>
<path d="M28.0997 9.19188C28.1063 9.20429 28.1108 9.22713 28.1128 9.25977C28.1004 9.31395 28.0723 9.35246 28.0292 9.37465C28.0221 9.37465 27.9561 9.40011 27.8308 9.45037C27.7068 9.50128 27.5397 9.56721 27.3295 9.6488C27.1676 9.71669 26.9568 9.8022 26.6977 9.90468C26.4398 10.0078 26.1663 10.1103 25.8778 10.2128C25.5886 10.3159 25.3086 10.4027 25.0371 10.4739C24.7668 10.5437 24.539 10.5822 24.353 10.5888C24.2329 10.5927 24.1396 10.5796 24.0736 10.5496C23.9705 10.5013 23.9104 10.423 23.8935 10.3146C23.883 10.2382 23.8974 10.1468 23.9379 10.0404C23.9777 9.93274 24.0351 9.82047 24.1102 9.70363C24.1102 9.70363 24.1376 9.66643 24.1937 9.59136C24.2512 9.51499 24.3165 9.43079 24.3896 9.3381C24.4627 9.24606 24.5253 9.17556 24.5775 9.12661C24.1493 9.24867 23.7342 9.39032 23.3321 9.5522C22.93 9.71408 22.5214 9.85637 22.1076 9.97778C22.0488 9.99867 21.9809 10.0065 21.9039 10.0013C21.8256 9.99476 21.7616 9.9693 21.7107 9.92556C21.6585 9.88053 21.6441 9.81721 21.6663 9.73496C21.7394 9.55415 21.853 9.39945 22.0057 9.27021C22.1572 9.13966 22.304 9.01303 22.447 8.88901C22.6905 8.69254 22.9587 8.51956 23.2512 8.36943C23.5436 8.21799 23.8504 8.17556 24.1728 8.24149C24.3086 8.26434 24.4222 8.327 24.5149 8.42948C24.6089 8.53261 24.6513 8.65402 24.6428 8.79502C24.6689 8.79371 24.6911 8.79241 24.7107 8.79241C24.7316 8.7911 24.7557 8.78979 24.7838 8.78979C24.8256 8.79502 24.8889 8.80481 24.9744 8.81852C25.0612 8.83092 25.0899 8.87465 25.0606 8.94906C24.9209 9.14097 24.8112 9.28457 24.7316 9.37987C24.6513 9.47583 24.5599 9.57961 24.4574 9.69058C24.3634 9.81982 24.289 9.93536 24.2355 10.0378C24.1833 10.139 24.1611 10.2147 24.1702 10.265C24.1715 10.2794 24.1794 10.2898 24.1937 10.2963C24.2681 10.3329 24.4222 10.3263 24.6559 10.2754C24.8909 10.2232 25.1689 10.1468 25.4914 10.0457C25.8132 9.94319 26.1448 9.8257 26.4862 9.69319C26.8269 9.55938 27.1402 9.43079 27.4261 9.30677C27.4261 9.30677 27.4862 9.28327 27.6063 9.23627C27.7277 9.18797 27.8315 9.14489 27.917 9.10833C27.9483 9.09462 27.9836 9.09528 28.024 9.11094C28.0658 9.1253 28.0906 9.15207 28.0997 9.19188ZM24.3295 8.90468C24.3641 8.78327 24.3556 8.69058 24.3034 8.62791C24.2512 8.56395 24.1742 8.52543 24.0736 8.51303C23.9744 8.49932 23.87 8.49932 23.7603 8.51303C23.652 8.52739 23.5625 8.54893 23.4914 8.57831C23.197 8.69711 22.9235 8.85703 22.6715 9.05872C22.4189 9.26107 22.1872 9.47909 21.977 9.71408C22.3791 9.60442 22.7708 9.47321 23.152 9.31982C23.5345 9.16512 23.9274 9.02674 24.3295 8.90468Z" fill="#070004"/>
<path d="M34.9707 8.91836C34.9863 8.95165 34.9863 8.98755 34.9707 9.02541C34.955 9.06196 34.9269 9.08807 34.8871 9.10374C34.8871 9.10374 34.799 9.14225 34.6234 9.21862C34.4472 9.29564 34.2115 9.3929 33.9158 9.51105C33.6195 9.62789 33.2931 9.74995 32.9367 9.87658C32.7239 9.94839 32.5046 10.0202 32.2788 10.0933C32.0523 10.1651 31.8519 10.2278 31.6782 10.2813C31.504 10.3335 31.3865 10.3674 31.3258 10.3831C30.9511 10.4915 30.645 10.5678 30.4067 10.6129C30.1698 10.6586 29.9818 10.6834 29.8427 10.6886C29.7102 10.6938 29.6136 10.6847 29.5529 10.6599C29.4935 10.6357 29.4465 10.6044 29.4119 10.5659C29.3963 10.5469 29.3832 10.5182 29.3728 10.4797C29.3623 10.4399 29.3728 10.3714 29.4041 10.2735C29.4367 10.1742 29.5046 10.0385 29.6077 9.86614C29.7102 9.69251 29.8688 9.46275 30.0829 9.17685C29.6789 9.31262 29.284 9.47841 28.8976 9.67293C28.5111 9.86614 28.1149 10.0267 27.7096 10.1533C27.6299 10.1625 27.5399 10.1788 27.4406 10.203C27.3414 10.2278 27.2677 10.1945 27.2187 10.1037C27.1756 10.0254 27.1769 9.9523 27.2239 9.88442C27.2709 9.81523 27.3173 9.75256 27.3623 9.69643C27.5451 9.47711 27.7403 9.26431 27.9472 9.05674C28.1521 8.84982 28.3708 8.66248 28.6025 8.49538C28.66 8.43794 28.7305 8.42162 28.814 8.44577C28.8989 8.47058 28.9198 8.53324 28.8767 8.63376C28.6378 8.82175 28.4074 9.02019 28.1848 9.22906C27.9641 9.43664 27.7585 9.66118 27.5686 9.90269C28.002 9.76562 28.4185 9.59329 28.8192 9.38572C29.2213 9.17685 29.6423 9.00974 30.0829 8.88442C30.1613 8.857 30.25 8.84721 30.3493 8.8557C30.4498 8.86483 30.502 8.92554 30.5059 9.03846C30.5072 9.06653 30.4909 9.10635 30.4563 9.15857C30.4211 9.20948 30.4015 9.23429 30.3963 9.23429C30.2814 9.38572 30.1678 9.53977 30.0568 9.69643C29.9472 9.85309 29.8545 9.99408 29.7801 10.1194C29.707 10.2447 29.6639 10.3381 29.6521 10.3988C29.7252 10.4216 29.8669 10.4184 30.0777 10.3883C30.2899 10.357 30.5457 10.3022 30.8453 10.2238C31.1463 10.1442 31.4674 10.0535 31.8088 9.9523C32.1515 9.84982 32.4876 9.73951 32.8166 9.62071C32.8166 9.62071 32.8852 9.59591 33.0229 9.54499C33.16 9.49277 33.3316 9.42685 33.5373 9.34656C33.7422 9.26497 33.9563 9.17946 34.1795 9.09068C34.4021 9.00191 34.6025 8.92097 34.7801 8.84786C34.8649 8.81131 34.9289 8.83481 34.9707 8.91836Z" fill="#070004"/>
<path d="M41.7648 8.67085C41.7942 8.77007 41.7661 8.83208 41.6813 8.85623C41.6813 8.85623 41.599 8.89148 41.4359 8.96067C41.272 9.02856 41.0527 9.11668 40.7779 9.22438C40.5024 9.33077 40.1943 9.44827 39.8536 9.57686C39.5142 9.7061 39.163 9.83665 38.8014 9.9685C38.7942 9.9685 38.6558 10.0155 38.3862 10.1095C38.118 10.2035 37.755 10.3079 37.2975 10.4228C36.8412 10.5364 36.3275 10.6304 35.757 10.7048C35.6382 10.7087 35.4992 10.7139 35.3392 10.7205C35.1787 10.7257 35.022 10.7172 34.8693 10.6944C34.7165 10.6702 34.5886 10.6154 34.4855 10.5299C34.381 10.443 34.3255 10.3066 34.3184 10.1199C34.3184 9.92869 34.3419 9.7544 34.3889 9.59775C34.4359 9.43978 34.5188 9.2544 34.6369 9.04161C35.1206 8.2655 35.7048 7.57098 36.3889 6.95806C37.0729 6.34383 37.8197 5.82751 38.6291 5.40976C38.7596 5.35232 38.8934 5.29944 39.0312 5.25049C39.1702 5.20218 39.3131 5.18195 39.4594 5.19044C39.5514 5.19435 39.6271 5.23874 39.6865 5.32359C39.7472 5.40715 39.7596 5.49527 39.7231 5.5873C39.6565 5.79096 39.5468 5.9685 39.3941 6.11994C39.2407 6.27138 39.0899 6.41628 38.9424 6.55336C38.3347 7.0638 37.693 7.52138 37.0181 7.92673C36.3425 8.33077 35.6663 8.73221 34.9894 9.13038C34.7805 9.42477 34.6526 9.73809 34.6056 10.0703C34.5782 10.1976 34.6121 10.2883 34.7074 10.3419C34.8033 10.3941 34.9221 10.4267 35.0651 10.4385C35.2074 10.4489 35.3451 10.4483 35.4776 10.4359C35.6114 10.4241 35.7009 10.4169 35.7466 10.415C36.0703 10.3647 36.3706 10.3105 36.6473 10.2531C36.9241 10.1957 37.21 10.1278 37.5063 10.0494C37.804 9.97111 38.1382 9.87124 38.509 9.74918C38.8797 9.62581 39.3118 9.47177 39.8066 9.28704C40.3007 9.10101 40.8928 8.8719 41.5821 8.60036C41.6604 8.5638 41.7211 8.5873 41.7648 8.67085ZM38.5116 5.79357C37.881 6.14866 37.2896 6.56315 36.7361 7.03639C36.1826 7.51028 35.6943 8.04161 35.2714 8.63169C35.8125 8.33077 36.3451 8.01746 36.8693 7.69174C37.3947 7.36472 37.9039 7.01224 38.3967 6.6343C38.6016 6.4672 38.8053 6.29226 39.0077 6.1095C39.2113 5.92542 39.368 5.70871 39.4776 5.45936C39.3053 5.47373 39.1389 5.51158 38.9789 5.57425C38.8184 5.63691 38.663 5.71002 38.5116 5.79357Z" fill="#070004"/>
<path d="M42.6094 7.30289C42.7223 7.3068 42.7778 7.34336 42.7765 7.41255C42.7765 7.48239 42.7458 7.54505 42.6851 7.60054C42.6237 7.65667 42.5598 7.65798 42.4919 7.60576C42.422 7.55746 42.409 7.49871 42.4527 7.43082C42.4977 7.36163 42.55 7.31855 42.6094 7.30289ZM45.907 8.51438C45.9436 8.5927 45.9188 8.65406 45.8339 8.69714C45.8339 8.69714 45.7771 8.71999 45.6642 8.76503C45.5526 8.80876 45.4188 8.86033 45.2621 8.91907C45.1055 8.97847 44.9462 9.03918 44.7843 9.10184C44.6237 9.16451 44.4899 9.21868 44.3822 9.26372C44.2739 9.30746 44.2203 9.329 44.2203 9.329C44.0023 9.40406 43.7412 9.49218 43.437 9.5927C43.1322 9.69192 42.8235 9.77939 42.5102 9.8538C42.1968 9.92887 41.9207 9.97064 41.6825 9.97913C41.5624 9.98435 41.4318 9.96868 41.2908 9.93213C41.1498 9.89427 41.0702 9.79505 41.0506 9.63448C41.0402 9.51111 41.0754 9.36816 41.1551 9.20628C41.2353 9.0431 41.3372 8.88252 41.4605 8.72586C41.5846 8.5679 41.7034 8.42821 41.8182 8.30811C41.9331 8.1867 42.0128 8.10445 42.0585 8.06268C42.0846 8.03526 42.1159 8.0209 42.1524 8.0209C42.189 8.0196 42.2203 8.03396 42.2464 8.06529C42.281 8.09009 42.2974 8.12208 42.2961 8.16189C42.2961 8.20236 42.2791 8.23631 42.2464 8.26372C42.1694 8.34727 42.0689 8.45889 41.9436 8.59793C41.8196 8.73565 41.7021 8.87991 41.5911 9.03135C41.4801 9.18148 41.3998 9.31464 41.3509 9.43082C41.3026 9.54767 41.3091 9.62534 41.3718 9.6632C41.4521 9.70693 41.6081 9.71477 41.8391 9.6867C42.0722 9.65733 42.343 9.6025 42.6511 9.52221C42.9605 9.44062 43.2791 9.34727 43.6068 9.24283C43.9357 9.13709 44.2373 9.02874 44.5128 8.91907C44.5193 8.91777 44.5937 8.8897 44.7347 8.83552C44.8757 8.78004 45.0408 8.71411 45.2308 8.63709C45.422 8.55876 45.5865 8.49088 45.7242 8.43344C45.8215 8.40406 45.8822 8.43082 45.907 8.51438Z" fill="#070004"/>
<path d="M50.9173 8.32571C50.931 8.35705 50.9303 8.39229 50.9147 8.43015C50.899 8.46671 50.8755 8.49282 50.8442 8.50848C50.837 8.51566 50.7763 8.54242 50.6614 8.58942C50.5478 8.63642 50.4068 8.69125 50.2384 8.75391C50.0713 8.81658 49.8938 8.88577 49.7058 8.96018C49.5191 9.03524 49.3487 9.10248 49.194 9.16122C49.0407 9.21866 48.9251 9.26566 48.8468 9.30222C48.6431 9.36879 48.4408 9.43211 48.241 9.49282C48.0407 9.55222 47.835 9.60639 47.6249 9.6547C47.4264 9.69517 47.2162 9.73498 46.9956 9.7748C46.7763 9.81331 46.5576 9.82049 46.3403 9.79569C46.1222 9.76958 45.9179 9.6906 45.7267 9.55809C45.5896 9.45757 45.5198 9.32571 45.5178 9.16383C45.5145 9.00065 45.5459 8.83224 45.6118 8.65992C45.6784 8.48759 45.7463 8.34791 45.8155 8.23955C45.9408 8.02219 46.0981 7.82963 46.288 7.66253C46.4773 7.49543 46.6875 7.36749 46.9173 7.27872C47.0165 7.24216 47.1288 7.22846 47.2541 7.23694C47.3807 7.24412 47.4689 7.30352 47.5178 7.41449C47.5544 7.51566 47.5498 7.61031 47.5048 7.69908C47.4591 7.78655 47.4042 7.86031 47.3403 7.92101C47.1418 8.109 46.916 8.26175 46.664 8.37793C46.4134 8.49282 46.1627 8.59464 45.9121 8.68342C45.8892 8.77937 45.8585 8.88446 45.8207 8.99934C45.7809 9.11292 45.7991 9.21475 45.8755 9.30483C46.0126 9.41645 46.1692 9.48107 46.3455 9.49804C46.523 9.51566 46.6954 9.51762 46.8625 9.50326C47.3377 9.44582 47.8031 9.34334 48.2593 9.19517C48.7149 9.04569 49.1634 8.87859 49.604 8.69386C49.7084 8.656 49.8442 8.60443 50.0113 8.53981C50.1784 8.47389 50.3357 8.41188 50.4839 8.35443C50.6314 8.29569 50.7149 8.26175 50.7345 8.25261C50.8128 8.21605 50.8736 8.24086 50.9173 8.32571ZM47.2959 7.49543C47.0413 7.51109 46.8128 7.60117 46.6092 7.76436C46.4068 7.92819 46.2332 8.11031 46.087 8.31005C46.3168 8.22128 46.54 8.11618 46.758 7.99412C46.9773 7.87271 47.1562 7.70626 47.2959 7.49543Z" fill="#070004"/>
<path d="M57.7851 8.05195C57.8008 8.08524 57.8008 8.12114 57.7851 8.159C57.7695 8.19555 57.7414 8.22166 57.7016 8.23733C57.7016 8.23733 57.6135 8.27584 57.4379 8.35221C57.2616 8.42923 57.026 8.52649 56.7303 8.64464C56.4339 8.76148 56.1076 8.88354 55.7512 9.01017C55.5384 9.08198 55.3191 9.15378 55.0932 9.22688C54.8667 9.29869 54.6663 9.36135 54.4927 9.41487C54.3184 9.46709 54.2009 9.50104 54.1402 9.5167C53.7655 9.62506 53.4594 9.70143 53.2212 9.74647C52.9842 9.79216 52.7962 9.81696 52.6572 9.82219C52.5247 9.82741 52.4281 9.81827 52.3674 9.79346C52.308 9.76931 52.261 9.73798 52.2264 9.69947C52.2107 9.68054 52.1977 9.65182 52.1872 9.61331C52.1768 9.57349 52.1872 9.50495 52.2185 9.40704C52.2512 9.30782 52.3191 9.17205 52.4222 8.99973C52.5247 8.8261 52.6833 8.59634 52.8974 8.31044C52.4933 8.44621 52.0984 8.612 51.712 8.80652C51.3256 8.99973 50.9294 9.16031 50.524 9.28694C50.4444 9.29608 50.3543 9.31239 50.2551 9.33655C50.1559 9.36135 50.0821 9.32806 50.0332 9.23733C49.9901 9.159 49.9914 9.08589 50.0384 9.01801C50.0854 8.94882 50.1317 8.88615 50.1768 8.83002C50.3595 8.6107 50.5547 8.3979 50.7616 8.19033C50.9666 7.98341 51.1853 7.79608 51.417 7.62897C51.4744 7.57153 51.5449 7.55521 51.6285 7.57937C51.7133 7.60417 51.7342 7.66683 51.6911 7.76735C51.4522 7.95534 51.2218 8.15378 50.9992 8.36266C50.7786 8.57023 50.573 8.79477 50.383 9.03628C50.8165 8.89921 51.2329 8.72689 51.6337 8.51931C52.0358 8.31044 52.4568 8.14333 52.8974 8.01801C52.9757 7.99059 53.0645 7.9808 53.1637 7.98929C53.2642 7.99843 53.3165 8.05913 53.3204 8.17205C53.3217 8.20012 53.3054 8.23994 53.2708 8.29216C53.2355 8.34307 53.2159 8.36788 53.2107 8.36788C53.0958 8.51931 52.9823 8.67336 52.8713 8.83002C52.7616 8.98668 52.6689 9.12767 52.5945 9.25299C52.5214 9.37832 52.4783 9.47166 52.4666 9.53237C52.5397 9.55521 52.6813 9.55195 52.8922 9.52192C53.1043 9.49059 53.3602 9.43576 53.6598 9.35743C53.9607 9.2778 54.2819 9.18707 54.6232 9.08589C54.9659 8.98341 55.3021 8.8731 55.6311 8.7543C55.6311 8.7543 55.6996 8.7295 55.8373 8.67858C55.9744 8.62636 56.1461 8.56044 56.3517 8.48015C56.5567 8.39856 56.7708 8.31305 56.994 8.22427C57.2166 8.1355 57.417 8.05456 57.5945 7.98145C57.6794 7.9449 57.7433 7.9684 57.7851 8.05195Z" fill="#070004"/>
</svg>
