<svg width="27" height="11" viewBox="0 0 27 11" fill="none" xmlns="http://www.w3.org/2000/svg">
<path d="M13.0882 4.5436C13.1293 4.65334 13.0915 4.72875 12.9751 4.76982C12.4755 4.91929 11.9705 5.08963 11.4588 5.28152C10.9485 5.47206 10.4395 5.6626 9.93181 5.85247C9.04307 6.19383 8.28899 6.46853 7.66957 6.67657C7.05014 6.88529 6.55797 6.98898 6.19372 6.98898C5.8867 6.98898 5.68741 6.92703 5.59584 6.80315C5.50427 6.67792 5.48071 6.517 5.52582 6.32108C5.57228 6.12582 5.65307 5.92182 5.7682 5.70973C5.88468 5.49832 5.99308 5.3098 6.09407 5.14417C6.46707 4.53754 6.87374 3.9538 7.31407 3.39362C7.75575 2.8321 8.20416 2.25577 8.66064 1.66462C8.74481 1.56632 8.82627 1.46264 8.90572 1.35491C8.9845 1.24584 9.05721 1.13272 9.12387 1.01557C8.86532 1.13272 8.61284 1.26334 8.36709 1.40877C8.12269 1.5542 7.87155 1.73128 7.61301 1.93932C7.56453 1.98107 7.45209 2.08475 7.27637 2.25173C7.10198 2.41736 6.89461 2.60857 6.65425 2.82537C6.41321 3.04082 6.17218 3.24483 5.92979 3.43671C5.68876 3.62725 5.47061 3.77268 5.27536 3.873C5.08145 3.97198 4.93871 3.98342 4.84715 3.90801C4.74615 3.83463 4.70576 3.74845 4.72595 3.64947C4.7475 3.54915 4.77039 3.46903 4.79598 3.40978C4.86196 3.27714 4.93063 3.13777 5.00066 2.99234C5.07202 2.84691 5.14945 2.70822 5.23227 2.57491C5.37366 2.3507 5.52111 2.13054 5.67394 1.91508C5.82813 1.69829 5.98433 1.47745 6.14255 1.25257C6.1513 1.24584 6.15602 1.24045 6.15602 1.23641C6.15602 1.23102 6.16006 1.22429 6.16948 1.21487C6.16006 1.21487 6.1513 1.21958 6.14255 1.22833C5.33595 1.8518 4.56167 2.55605 3.81836 3.34245C3.07505 4.12751 2.34588 5.00951 1.63153 5.98982C1.53996 6.12313 1.44839 6.25644 1.35682 6.3911C1.26526 6.52441 1.17369 6.65705 1.08212 6.78968C1.04779 6.84759 1.01008 6.90751 0.969011 6.97013C0.927267 7.03139 0.886197 7.09132 0.845126 7.15057C0.8357 7.15999 0.83166 7.16605 0.83166 7.16942C0.83166 7.17346 0.83166 7.1748 0.83166 7.1748C0.799343 7.21655 0.775104 7.24617 0.758945 7.26368C0.749519 7.27108 0.732687 7.28118 0.707775 7.2933C0.68219 7.3061 0.653912 7.31216 0.621595 7.31216C0.59601 7.31216 0.579177 7.30812 0.570425 7.29869C0.48761 7.26637 0.454619 7.20039 0.470778 7.0994C0.49569 7.02601 0.53676 6.94723 0.594663 6.8624C1.01075 6.22345 1.43493 5.62557 1.86583 5.06876C2.29808 4.51263 2.7438 3.98006 3.20163 3.47172C3.49922 3.13979 3.8224 2.79507 4.17117 2.43756C4.52127 2.08071 4.88889 1.73734 5.27536 1.40877C5.66317 1.08021 6.05166 0.80012 6.44149 0.56851C6.54181 0.50926 6.61924 0.489062 6.6731 0.506567C6.72696 0.522726 6.76601 0.551677 6.7916 0.592748C6.81651 0.627086 6.82661 0.675562 6.82122 0.738178C6.81718 0.799447 6.80776 0.850617 6.7916 0.891687C6.70878 1.05866 6.6125 1.21689 6.50343 1.36568C6.37012 1.53266 6.2422 1.70771 6.11831 1.89085C5.99443 2.07263 5.86112 2.27193 5.71973 2.48872C5.54534 2.75467 5.38712 3.02062 5.24573 3.2859C5.21139 3.33639 5.18244 3.41113 5.15955 3.50943L5.14609 3.52289C5.22823 3.48182 5.29017 3.44075 5.33191 3.39901C5.54871 3.20712 5.748 3.03476 5.92979 2.88192C6.11293 2.72774 6.28327 2.58433 6.44149 2.45102L6.50343 2.39985C6.89461 2.05917 7.28983 1.74272 7.68842 1.45186C8.087 1.161 8.52733 0.899767 9.01075 0.668156C9.07674 0.634492 9.15618 0.60756 9.24775 0.587362C9.33932 0.565816 9.42617 0.600827 9.50899 0.692394C9.57497 0.775209 9.59382 0.858696 9.56554 0.942857C9.53659 1.02567 9.50158 1.10041 9.46051 1.16639C9.28411 1.42358 9.1003 1.67943 8.90841 1.93394C8.71787 2.18709 8.51522 2.44698 8.29976 2.71226C8.08431 2.98696 7.86751 3.26368 7.65071 3.54175C7.43526 3.82049 7.21981 4.10461 7.00436 4.39547C7.00436 4.4049 6.96194 4.46752 6.87778 4.584C6.79497 4.69913 6.69532 4.84658 6.57884 5.02567C6.46169 5.20342 6.34521 5.39059 6.22873 5.58585C6.1136 5.78177 6.01867 5.96491 5.94326 6.13525C5.8692 6.30626 5.83621 6.44092 5.84361 6.53922C5.93518 6.63079 6.11158 6.66243 6.37416 6.63348C6.63607 6.6052 6.95386 6.53518 7.32754 6.42342C7.70054 6.3103 8.10114 6.17295 8.52868 6.01136C8.95756 5.84843 9.38376 5.68751 9.80793 5.52929C10.3156 5.33942 10.8273 5.14888 11.343 4.95834C11.8581 4.76646 12.3691 4.5914 12.8754 4.43318C12.9165 4.41702 12.9596 4.41971 13.0047 4.44126C13.0512 4.46146 13.0788 4.49512 13.0882 4.5436Z" fill="#E3D3CF"/>
<path d="M21.7808 4.42064C21.7983 4.46238 21.797 4.50614 21.7754 4.5526C21.7539 4.59771 21.7189 4.62801 21.6704 4.64417C21.6704 4.64417 21.5579 4.68861 21.3337 4.77613C21.1089 4.86433 20.8092 4.97475 20.4342 5.10739C20.0605 5.2407 19.6451 5.37805 19.1873 5.51944C18.9213 5.60226 18.6446 5.68305 18.3578 5.76182C18.0723 5.84127 17.8192 5.90995 17.5983 5.9692C17.3788 6.0271 17.2321 6.06346 17.1567 6.07962C16.6827 6.19677 16.2955 6.27824 15.9959 6.32469C15.6976 6.3698 15.4613 6.39202 15.2876 6.39202C15.1206 6.39202 14.9994 6.37586 14.924 6.34354C14.85 6.30988 14.7927 6.26746 14.7517 6.21697C14.7335 6.19206 14.718 6.15435 14.7059 6.10385C14.6931 6.05403 14.7093 5.96852 14.7544 5.84801C14.8008 5.72816 14.8924 5.56186 15.0291 5.34977C15.1671 5.13836 15.3772 4.85827 15.6593 4.50951C15.1435 4.65898 14.6413 4.84548 14.1511 5.06969C13.6609 5.29456 13.158 5.4777 12.6429 5.61909C12.5446 5.62649 12.4329 5.64265 12.309 5.66756C12.1838 5.69315 12.0908 5.64737 12.0316 5.53021C11.9831 5.43191 11.9905 5.34102 12.0531 5.25821C12.1144 5.17405 12.1743 5.09864 12.2336 5.03198C12.4746 4.76671 12.7278 4.50884 12.993 4.25905C13.2583 4.00993 13.5411 3.78505 13.8414 3.58576C13.9148 3.51978 14.0037 3.50362 14.108 3.53728C14.2117 3.5696 14.2353 3.6477 14.178 3.77159C13.869 3.99647 13.5707 4.23346 13.2839 4.48258C12.9984 4.73237 12.7311 5.00236 12.4814 5.29322C13.0308 5.14442 13.56 4.94984 14.0703 4.7088C14.582 4.46642 15.1159 4.27925 15.6727 4.14594C15.7731 4.11362 15.8855 4.10554 16.0094 4.1217C16.1346 4.13786 16.1979 4.2173 16.1979 4.35869C16.1979 4.39303 16.1743 4.44151 16.1279 4.50412C16.0828 4.56539 16.0558 4.59569 16.0471 4.59569C15.8976 4.77883 15.7508 4.96667 15.6054 5.15856C15.46 5.3491 15.3368 5.52146 15.2364 5.67564C15.1375 5.82848 15.0789 5.94227 15.0614 6.01767C15.153 6.04999 15.3314 6.05201 15.5973 6.02306C15.8626 5.99478 16.1851 5.9389 16.5642 5.85609C16.9426 5.77192 17.3479 5.6743 17.7788 5.56253C18.211 5.44942 18.6359 5.32688 19.0526 5.19357C19.0526 5.19357 19.1395 5.16529 19.3139 5.10739C19.4876 5.04814 19.7057 4.97408 19.9683 4.88386C20.2302 4.79229 20.5022 4.69668 20.7843 4.59569C21.0658 4.49537 21.3189 4.4038 21.5438 4.32099C21.6529 4.27992 21.7323 4.31291 21.7808 4.42064ZM15.4115 3.26258C15.3038 3.26258 15.2075 3.22959 15.1233 3.16294C15.0567 3.09695 15.017 2.99865 15.0048 2.86938C14.9941 2.74011 15.0547 2.58391 15.188 2.40077C15.3024 2.23582 15.4182 2.12809 15.5354 2.0776C15.6519 2.02777 15.7515 2.00219 15.8343 2.00219C15.9346 1.99546 16.0134 2.00421 16.0713 2.02912C16.1306 2.05269 16.1636 2.06884 16.171 2.0776H16.1844L16.1979 2.09106C16.2046 2.09847 16.2336 2.12877 16.2841 2.18263C16.3339 2.23649 16.3595 2.322 16.3595 2.43848C16.3595 2.63777 16.2302 2.83706 15.9717 3.03636C15.8222 3.16226 15.6687 3.23767 15.5111 3.26258C15.495 3.26258 15.4775 3.26258 15.46 3.26258C15.4438 3.26258 15.4277 3.26258 15.4115 3.26258ZM15.8613 2.31459C15.802 2.31459 15.736 2.3321 15.6647 2.36576C15.5946 2.39808 15.5179 2.4681 15.4357 2.57583C15.3119 2.75896 15.2782 2.87948 15.3361 2.93671C15.3522 2.95489 15.3994 2.9596 15.4788 2.95018C15.5576 2.94142 15.6599 2.88756 15.7858 2.78859C15.9023 2.69702 15.975 2.62296 16.004 2.56506C16.0323 2.50581 16.0471 2.46406 16.0471 2.43848C16.0471 2.39741 16.0343 2.36442 16.0094 2.33883C15.9771 2.32267 15.9272 2.31459 15.8613 2.31459Z" fill="#E3D3CF"/>
<path d="M22.4057 3C22.5457 3 22.6137 3.04578 22.6104 3.13735C22.6063 3.22892 22.5653 3.30635 22.4865 3.36896C22.407 3.43225 22.3262 3.43023 22.2441 3.36358C22.1593 3.29759 22.1458 3.22488 22.2037 3.14543C22.263 3.06666 22.3303 3.01818 22.4057 3ZM16.7447 10.4196C16.4882 10.4196 16.2936 10.3106 16.1603 10.0938C16.0276 9.8783 15.9771 9.66285 16.0095 9.4474C16.0512 9.16327 16.1926 8.86366 16.435 8.54789C16.676 8.23144 16.9891 7.92712 17.3749 7.63222C17.7614 7.33799 18.2017 7.07675 18.6972 6.84851C19.1914 6.61892 19.7166 6.44992 20.2727 6.3422C20.573 5.90995 20.8396 5.50867 21.0726 5.13836C21.3042 4.76873 21.488 4.46777 21.6247 4.23616C21.7627 4.0032 21.8321 3.88605 21.8321 3.88605C21.8893 3.78775 21.9721 3.76687 22.0798 3.8241C22.164 3.88201 22.1855 3.96078 22.1445 4.0611C22.1445 4.0611 22.0812 4.16075 21.9559 4.36004C21.8321 4.55933 21.6678 4.82326 21.4631 5.15183C21.2604 5.48039 21.0261 5.84397 20.7602 6.24255C22.1552 5.95169 23.9004 5.4575 25.9957 4.75863C26.1034 4.72631 26.1774 4.76401 26.2192 4.87174C26.2529 4.98889 26.2165 5.06295 26.1088 5.09527C23.8391 5.86012 21.9647 6.3799 20.4855 6.6546C20.3939 6.78791 20.301 6.92055 20.2054 7.05319C20.1084 7.1865 20.0108 7.31914 19.9118 7.45178C19.454 8.08399 19.0527 8.59434 18.708 8.98418C18.3633 9.37536 18.0643 9.6743 17.8112 9.881C17.558 10.089 17.3466 10.2311 17.1756 10.3065C17.0053 10.3819 16.8618 10.4196 16.7447 10.4196ZM19.9738 6.76502C19.4675 6.89093 19.0009 7.06396 18.5733 7.2848C18.1445 7.50429 17.7701 7.74466 17.4503 8.00656C17.1291 8.26847 16.8753 8.52971 16.6881 8.79027C16.5016 9.05218 16.3919 9.28716 16.3596 9.49588C16.3098 9.72883 16.3885 9.90389 16.5966 10.021C16.6545 10.0439 16.7474 10.0453 16.8767 10.0237C17.0059 10.0035 17.1877 9.91062 17.4207 9.74365C17.6523 9.57802 17.9485 9.29995 18.3094 8.90877C18.6703 8.51894 19.1133 7.96751 19.6371 7.25248C19.695 7.17034 19.7516 7.08955 19.8068 7.0101C19.8607 6.93132 19.9166 6.84986 19.9738 6.76502Z" fill="#E3D3CF"/>
</svg>
