<svg width="39" height="11" viewBox="0 0 39 11" fill="none" xmlns="http://www.w3.org/2000/svg">
<path d="M10.1567 4.5328C10.1904 4.64052 10.1527 4.71526 10.0436 4.75633C9.58714 4.93946 9.10775 5.11048 8.60548 5.26803C8.10254 5.42625 7.58074 5.57976 7.04076 5.72855C6.55734 5.86187 6.0746 6.00326 5.59185 6.15407C5.11045 6.30354 4.64521 6.46917 4.1968 6.6523L3.87362 7.164C3.59151 7.60433 3.29594 8.03928 2.98757 8.47018C2.68055 8.90243 2.33583 9.3064 1.9534 9.6821C1.8955 9.73933 1.80259 9.82012 1.67332 9.92448C1.54404 10.0282 1.40063 10.1278 1.24241 10.2234C1.08486 10.3184 0.92664 10.3884 0.768418 10.4335C0.610868 10.4799 0.469478 10.4779 0.345593 10.4281C0.221708 10.3796 0.130141 10.2544 0.0708919 10.0538C0.0136625 9.84705 0.0385741 9.64574 0.1463 9.45049C0.254026 9.25456 0.361752 9.07412 0.469478 8.90916C0.911154 8.30926 1.43901 7.80228 2.05305 7.38753C2.66843 6.97144 3.30402 6.60921 3.9598 6.3022C4.09244 6.11906 4.22103 5.93256 4.34492 5.74202C4.47015 5.55013 4.57114 5.34209 4.64655 5.11721C4.66271 5.00275 4.62299 4.93408 4.52805 4.91253C4.43245 4.89099 4.34357 4.88964 4.26143 4.90714C4.00289 4.93273 3.75849 4.99871 3.5289 5.10644C3.30065 5.21416 3.07914 5.32997 2.86369 5.45385C2.7398 5.42154 2.69402 5.35353 2.72634 5.24917C2.76 5.14549 2.8105 5.07277 2.87715 5.03103C3.06702 4.83914 3.26227 4.65399 3.46157 4.47624C3.66086 4.29715 3.86015 4.12007 4.05945 3.94569C3.5942 4.12882 3.22861 4.27425 2.96333 4.38198C2.69739 4.48971 2.49809 4.57185 2.36546 4.62706C2.23214 4.68092 2.12846 4.72401 2.05305 4.75633C1.94532 4.79807 1.87126 4.76912 1.82952 4.67015C1.81336 4.62908 1.81336 4.58329 1.82952 4.5328C1.84568 4.48297 1.87463 4.44931 1.9157 4.43315C1.97495 4.40824 2.04362 4.37929 2.12307 4.34697C2.20185 4.3133 2.28735 4.27897 2.37892 4.24463C2.75933 4.08708 3.06163 3.96454 3.28651 3.87836C3.51072 3.79083 3.67837 3.72418 3.79013 3.67907C3.90324 3.63261 3.98471 3.59962 4.03521 3.57942C4.08503 3.55788 4.12677 3.53902 4.15909 3.52287C4.44255 3.4313 4.62568 3.4313 4.70849 3.52287C4.74957 3.58952 4.73677 3.67503 4.67079 3.77871C4.60414 3.88307 4.52334 3.98272 4.42841 4.07765C4.3328 4.17326 4.25605 4.24598 4.1968 4.2958C4.18939 4.2958 4.18602 4.29782 4.18602 4.30119C4.18602 4.30523 4.18602 4.30657 4.18602 4.30657C4.12677 4.35707 4.06551 4.40756 4.00289 4.45739C3.94162 4.50788 3.87766 4.56175 3.81168 4.61898C3.93556 4.59407 4.07022 4.57319 4.21565 4.55703C4.36108 4.54088 4.49978 4.54761 4.63309 4.57589C4.76572 4.60484 4.87008 4.68563 4.94549 4.81827C5.01147 4.97649 5.01821 5.13875 4.96434 5.30573C4.91048 5.47136 4.84989 5.61208 4.7839 5.72855C4.74957 5.7878 4.71186 5.84907 4.67079 5.91169C4.62905 5.97296 4.5799 6.04904 4.52267 6.14061C4.91183 5.99922 5.31041 5.86793 5.71843 5.74741C6.12576 5.62756 6.5331 5.50906 6.94112 5.39191C7.438 5.25187 7.93219 5.09836 8.42235 4.93138C8.91385 4.76441 9.41343 4.59878 9.91974 4.43315C10.0275 4.39208 10.1062 4.42507 10.1567 4.5328ZM1.28012 9.80598C1.77027 9.4074 2.19983 8.95023 2.57013 8.43517C2.93977 7.91943 3.29526 7.40033 3.63662 6.87584C3.07106 7.15794 2.52839 7.48987 2.00996 7.8723C1.49153 8.25473 1.04851 8.70785 0.682237 9.23234C0.558352 9.4653 0.48429 9.6693 0.458705 9.84369C0.433794 10.0174 0.485637 10.113 0.614908 10.1292C0.742833 10.1453 0.964344 10.0376 1.28012 9.80598ZM3.36192 3.03541C3.31142 3.03541 3.27843 3.02733 3.26227 3.01117C3.21178 2.9701 3.18687 2.92095 3.18687 2.86304V2.214C3.18687 2.09752 3.24477 2.03894 3.36192 2.03894C3.4784 2.03894 3.53697 2.09752 3.53697 2.214V2.61258L4.88355 2.13859C4.98387 2.09752 5.0586 2.13051 5.10708 2.23823C5.14815 2.35539 5.11112 2.42945 4.99666 2.46176L3.41309 3.03541C3.40366 3.03541 3.39491 3.03541 3.38616 3.03541C3.37875 3.03541 3.37067 3.03541 3.36192 3.03541Z" fill="#E3D3CF"/>
<path d="M11.2652 2.86304C11.4066 2.87044 11.4753 2.91825 11.4699 3.00577C11.4658 3.09195 11.4248 3.16871 11.346 3.23469C11.2665 3.30135 11.1857 3.30135 11.1036 3.23469C11.0188 3.16871 11.0053 3.09397 11.0632 3.01116C11.1225 2.92902 11.1898 2.8792 11.2652 2.86304ZM15.3292 4.53279C15.3702 4.63176 15.3372 4.7065 15.2295 4.75632C15.2295 4.75632 15.1581 4.78191 15.0168 4.83173C14.8767 4.88223 14.7057 4.9408 14.5051 5.00678C14.3058 5.07344 14.1045 5.14144 13.9018 5.21146C13.6985 5.28149 13.5281 5.34208 13.3901 5.3919C13.2534 5.4424 13.1854 5.46731 13.1854 5.46731C12.9107 5.55013 12.5801 5.64775 12.1943 5.76087C11.8079 5.87263 11.4174 5.96756 11.0228 6.04634C10.6276 6.12579 10.2802 6.16484 9.98057 6.16484C9.83177 6.16484 9.67018 6.13791 9.4958 6.08404C9.32007 6.03018 9.22379 5.9036 9.20763 5.70431C9.2009 5.54676 9.25072 5.36767 9.35845 5.16837C9.46617 4.96908 9.60083 4.7745 9.76242 4.58396C9.92401 4.39207 10.0789 4.22308 10.2283 4.07765C10.3792 3.93222 10.4828 3.83459 10.5407 3.78409C10.5744 3.75178 10.6141 3.73562 10.6592 3.73562C10.7057 3.73562 10.7454 3.75649 10.7777 3.79756C10.8208 3.82988 10.8397 3.87162 10.8343 3.92144C10.8303 3.97194 10.808 4.01301 10.767 4.04533C10.666 4.14632 10.5354 4.27963 10.3738 4.44661C10.2122 4.61224 10.0587 4.78595 9.91324 4.96908C9.76781 5.15221 9.6621 5.3165 9.59545 5.46193C9.52946 5.60736 9.53283 5.70431 9.60622 5.75279C9.70721 5.81204 9.90246 5.82954 10.1933 5.80396C10.4842 5.77904 10.8242 5.72316 11.214 5.63698C11.6052 5.54945 12.0085 5.44711 12.4233 5.32996C12.8393 5.21348 13.2218 5.09296 13.5705 4.96908C13.5793 4.96908 13.6729 4.93811 13.8506 4.87482C14.0297 4.8122 14.2398 4.73747 14.4808 4.65129C14.7212 4.56376 14.9292 4.48633 15.1056 4.41968C15.2295 4.38736 15.3036 4.42506 15.3292 4.53279Z" fill="#E3D3CF"/>
<path d="M23.6187 4.53274C23.6349 4.57448 23.6322 4.61824 23.6106 4.6647C23.5904 4.70981 23.5601 4.74011 23.5191 4.75627C22.8364 5.01481 22.1509 5.25652 21.4615 5.48072C20.7721 5.7056 20.0691 5.81737 19.3528 5.81737C18.9542 5.81737 18.5556 5.75139 18.157 5.61808C17.7584 5.48342 17.4339 5.24642 17.1848 4.90708C16.8522 5.13869 16.5155 5.35415 16.1748 5.55344C15.8335 5.75273 15.4807 5.92779 15.1164 6.0786C15.0323 6.11092 14.9387 6.13381 14.8364 6.14593C14.7327 6.15873 14.6411 6.14459 14.5617 6.10284C14.4829 6.06177 14.4391 5.983 14.4297 5.86584C14.5125 5.48342 14.66 5.13062 14.8714 4.80744C15.0834 4.48291 15.2679 4.14627 15.4262 3.79751C15.4854 3.67228 15.5608 3.62447 15.6524 3.65477C15.7439 3.68372 15.7803 3.74768 15.7628 3.84598C15.6389 4.18734 15.4773 4.51388 15.278 4.82629C15.0787 5.13735 14.9165 5.46726 14.7906 5.81737C15.1979 5.66655 15.5884 5.48207 15.9621 5.26258C16.3371 5.04174 16.7034 4.80676 17.0609 4.55697C17.0676 4.34152 17.1067 4.12203 17.1767 3.89715C17.2481 3.67295 17.376 3.49453 17.5591 3.36122C17.6669 3.26965 17.7995 3.21444 17.9577 3.19424C18.1153 3.1727 18.2445 3.22387 18.3455 3.34775C18.4115 3.43056 18.4297 3.52684 18.3994 3.63592C18.3704 3.74364 18.3273 3.83925 18.2701 3.92139C18.1624 4.07086 18.0372 4.20821 17.8958 4.33344C17.7537 4.45733 17.613 4.57785 17.4729 4.69433C17.679 4.96903 17.9341 5.16293 18.2378 5.27605C18.5408 5.38781 18.8606 5.44773 19.1966 5.45649C19.5339 5.46389 19.8564 5.45514 20.1634 5.42955C20.4381 5.38848 20.7492 5.31846 21.0979 5.21949C21.448 5.11917 21.7887 5.00875 22.1213 4.88823C22.4533 4.76839 22.7381 4.66403 22.9751 4.57583C23.212 4.4883 23.3507 4.4405 23.3925 4.43309C23.4928 4.39202 23.5682 4.42501 23.6187 4.53274ZM17.3706 4.30651C17.512 4.19205 17.648 4.06951 17.7773 3.94024C17.9065 3.81097 18.0122 3.6642 18.0951 3.49857C17.8958 3.54031 17.7423 3.6413 17.6345 3.80289C17.5268 3.96448 17.4386 4.1328 17.3706 4.30651Z" fill="#E3D3CF"/>
<path d="M30.1353 4.53285C30.1764 4.65 30.1434 4.72406 30.0357 4.75638C30.0357 4.75638 29.9791 4.77725 29.866 4.81832C29.7542 4.86006 29.6243 4.90854 29.4755 4.96375C29.326 5.01761 29.1934 5.06542 29.0769 5.10649C28.9598 5.14823 28.8971 5.16843 28.8884 5.16843C28.3154 5.35156 27.8004 5.47814 27.3425 5.54816C26.886 5.61818 26.4794 5.6532 26.1225 5.6532C25.7973 5.6532 25.5179 5.633 25.285 5.59125C25.0533 5.55018 24.8628 5.5044 24.714 5.4539L24.7005 5.46737C24.4669 5.70841 24.1942 5.91847 23.8818 6.09756C23.5708 6.27531 23.2375 6.35207 22.88 6.32648C22.7224 6.32648 22.5938 6.25848 22.4949 6.1218C22.3945 5.9858 22.3777 5.84643 22.4437 5.70437C22.5514 5.45525 22.6968 5.23239 22.88 5.03646C23.0631 4.84121 23.2462 4.65269 23.4294 4.4709C23.3701 4.29517 23.3371 4.11204 23.3297 3.9215C23.321 3.73163 23.3701 3.55725 23.4779 3.39903C23.5782 3.2233 23.7236 3.09605 23.9141 3.0166C24.106 2.93783 24.302 2.91561 24.5012 2.94927C24.7005 2.98159 24.8628 3.0772 24.9887 3.23475C25.2291 3.50272 25.3368 3.82118 25.3119 4.19082C25.2863 4.5591 25.1745 4.88497 24.9752 5.16843C25.1907 5.22633 25.4869 5.2674 25.864 5.29231C26.2424 5.3179 26.7022 5.29097 27.2429 5.21152C27.7829 5.13274 28.4104 4.96846 29.1254 4.71867C29.1503 4.71194 29.2183 4.6877 29.3301 4.64596C29.4432 4.60287 29.5597 4.5591 29.6802 4.51399C29.8 4.46754 29.8774 4.44061 29.9118 4.4332C30.0121 4.39213 30.0868 4.42512 30.1353 4.53285ZM24.9375 3.93497C24.9032 3.68585 24.8137 3.51147 24.6682 3.4125C24.5228 3.31218 24.3666 3.27918 24.1996 3.31285C24.034 3.34517 23.8993 3.44212 23.7956 3.60371C23.6933 3.7653 23.6623 3.98344 23.7041 4.25814C23.8441 4.18274 23.9471 4.17062 24.0138 4.22044C24.0798 4.27094 24.0434 4.37866 23.9034 4.54362C23.9949 4.64461 24.0946 4.73685 24.2023 4.82101C24.31 4.90383 24.4427 4.97856 24.6009 5.04454C24.7174 4.87757 24.817 4.70251 24.8998 4.51938C24.982 4.33625 24.9948 4.14167 24.9375 3.93497ZM22.7318 5.94136C23.0389 5.99927 23.3291 5.95954 23.6017 5.82286C23.8764 5.68686 24.1256 5.52258 24.3504 5.33002C24.0771 5.16304 23.832 4.97654 23.6152 4.76984C23.4408 4.94422 23.2732 5.12466 23.1116 5.31117C22.95 5.49834 22.8234 5.7084 22.7318 5.94136Z" fill="#E3D3CF"/>
<path d="M38.6494 4.53278C38.6656 4.57453 38.6629 4.61829 38.6413 4.66475C38.6211 4.70986 38.5908 4.74016 38.5498 4.75631C38.5498 4.75631 38.4454 4.79604 38.2374 4.87481C38.0286 4.95426 37.7506 5.05391 37.4025 5.17375C37.0537 5.29427 36.6632 5.42691 36.231 5.57234C35.798 5.71777 35.3537 5.86589 34.8979 6.01671C34.9389 5.9992 34.8777 6.01334 34.7147 6.0598C34.5531 6.10491 34.3269 6.16685 34.036 6.24563C33.7452 6.32507 33.4126 6.40654 33.0396 6.4907C32.6659 6.57352 32.2855 6.64623 31.8977 6.70885C31.5112 6.77012 31.1416 6.80513 30.7881 6.81388C30.436 6.82331 30.135 6.79436 29.8859 6.7277C29.7122 6.69404 29.5668 6.60651 29.4496 6.46646C29.3331 6.32507 29.2793 6.16618 29.288 5.98978C29.3042 5.69892 29.3661 5.43768 29.4739 5.20607C29.5816 4.97311 29.7102 4.7314 29.859 4.48161C30.0758 4.12477 30.3094 3.77803 30.5592 3.44206C30.8083 3.10474 31.0695 2.7782 31.3429 2.46175C31.1113 2.47118 30.877 2.49003 30.64 2.51831C30.403 2.54726 30.164 2.57419 29.9236 2.5991C29.9236 2.50753 29.9458 2.4227 29.9909 2.34325C30.0374 2.26448 30.1101 2.22475 30.2091 2.22475C30.4582 2.17628 30.708 2.14598 30.9578 2.13319C31.2069 2.12107 31.4567 2.10626 31.7065 2.0901C31.9542 1.84771 32.2108 1.60802 32.4767 1.37103C32.744 1.13403 33.0436 0.949548 33.3762 0.816237C33.5001 0.76776 33.6469 0.750255 33.8179 0.762374C33.9882 0.773147 34.0906 0.86202 34.1249 1.029C34.1572 1.23771 34.1101 1.42691 33.9849 1.59725C33.861 1.76827 33.7405 1.93255 33.624 2.0901L35.0352 2.15204C35.1497 2.1682 35.2076 2.23014 35.2076 2.33787C35.1914 2.45502 35.1335 2.51292 35.0352 2.51292C35.0352 2.51292 35.0325 2.51292 35.0271 2.51292C35.0231 2.51292 35.0217 2.51292 35.0217 2.51292L33.3008 2.42405H33.2874C32.9547 2.74924 32.606 3.05559 32.2397 3.34241C31.8748 3.62788 31.4971 3.89989 31.1059 4.15844C30.9564 4.25741 30.813 4.34898 30.675 4.43314C30.5383 4.51595 30.3828 4.60752 30.2091 4.70784C30.2091 4.70784 30.1673 4.78055 30.0852 4.92598C30.0024 5.07141 29.9155 5.24041 29.824 5.43229C29.7324 5.62284 29.6745 5.78779 29.6489 5.92783C29.6152 6.08606 29.6529 6.20254 29.762 6.27794C29.8697 6.35335 30.0105 6.40183 30.1848 6.42337C30.3586 6.44357 30.5282 6.44896 30.6939 6.43953C30.8608 6.43078 30.9773 6.42607 31.044 6.42607C31.4513 6.37759 31.8317 6.32507 32.1859 6.26717C32.5393 6.20792 32.9029 6.13723 33.2766 6.05441C33.6496 5.97025 34.069 5.85983 34.5343 5.72315C35.0009 5.58513 35.5496 5.41277 36.1798 5.20607C36.8113 4.99802 37.56 4.74016 38.4259 4.43314C38.5403 4.39207 38.6151 4.42506 38.6494 4.53278ZM33.826 1.08017C33.492 1.12191 33.1998 1.24445 32.9507 1.44913C32.7029 1.65246 32.4619 1.85714 32.2289 2.06317C32.3777 2.06317 32.5265 2.06317 32.676 2.06317C32.8268 2.06317 32.981 2.06788 33.1392 2.07663C33.1392 2.07663 33.1406 2.07663 33.1446 2.07663C33.15 2.07663 33.1527 2.07259 33.1527 2.06317C33.2927 1.92312 33.4227 1.7723 33.5432 1.61072C33.663 1.44778 33.7573 1.27071 33.826 1.08017ZM31.8546 2.43751C31.6136 2.69606 31.3813 2.9647 31.1571 3.24276C30.9322 3.52151 30.7241 3.80967 30.5323 4.10727C30.9322 3.8595 31.3173 3.59489 31.6876 3.31279C32.0573 3.02933 32.4208 2.73309 32.7783 2.42405C32.6201 2.42405 32.4659 2.42674 32.3151 2.43213C32.1657 2.43617 32.0121 2.43751 31.8546 2.43751Z" fill="#E3D3CF"/>
</svg>
