<svg width="72" height="12" viewBox="0 0 72 12" fill="none" xmlns="http://www.w3.org/2000/svg">
<path d="M6.4016 5.02045C6.52823 5.01719 6.59024 5.05635 6.58698 5.13795C6.58502 5.21823 6.54912 5.28677 6.47993 5.34421C6.41205 5.40165 6.33959 5.40165 6.26322 5.34421C6.1862 5.28677 6.17314 5.2228 6.22406 5.151C6.27432 5.07985 6.33372 5.03612 6.4016 5.02045ZM1.47993 11.7933C1.25016 11.7998 1.07392 11.7078 0.949904 11.5165C0.826536 11.3246 0.77758 11.1314 0.80369 10.9369C0.835021 10.6823 0.955126 10.4108 1.164 10.1223C1.37288 9.83507 1.64834 9.55505 1.98907 9.28155C2.32849 9.0087 2.71753 8.76392 3.15617 8.54787C3.59481 8.33246 4.06348 8.17058 4.56087 8.06223C4.8187 7.66732 5.04847 7.30178 5.25016 6.96562C5.45056 6.62815 5.60917 6.354 5.72797 6.14317C5.84612 5.93103 5.90552 5.82463 5.90552 5.82463C5.95578 5.73259 6.02954 5.71171 6.12745 5.76197C6.20382 5.81288 6.22471 5.88338 6.19011 5.97345C6.19011 5.97345 6.13594 6.06419 6.02823 6.245C5.91988 6.42646 5.77823 6.66667 5.60265 6.96562C5.42706 7.26523 5.22406 7.59748 4.99429 7.96301C6.24037 7.67058 7.79651 7.18951 9.6627 6.51915C9.758 6.48651 9.82588 6.51784 9.86635 6.61314C9.89768 6.71627 9.86439 6.78416 9.76714 6.8168C7.74951 7.55309 6.07915 8.05962 4.75669 8.33638C4.67836 8.45844 4.59742 8.5805 4.51387 8.70191C4.43032 8.82202 4.34612 8.94343 4.26061 9.06484C3.86244 9.64121 3.51257 10.1079 3.211 10.4669C2.91009 10.8253 2.64834 11.1001 2.4251 11.292C2.20251 11.4832 2.01518 11.6138 1.86374 11.6836C1.71231 11.7548 1.58437 11.7913 1.47993 11.7933ZM4.29977 8.44865C3.84938 8.57071 3.43424 8.7352 3.05434 8.94212C2.67314 9.14969 2.34285 9.37424 2.06218 9.61575C1.78019 9.85727 1.55826 10.0975 1.39638 10.3364C1.2345 10.5746 1.1405 10.7881 1.11439 10.9761C1.07654 11.1849 1.15095 11.3396 1.33894 11.4408C1.39116 11.4617 1.47471 11.4604 1.58959 11.4382C1.70447 11.4173 1.86505 11.3292 2.07001 11.1745C2.27562 11.0211 2.53672 10.7652 2.8533 10.4069C3.17053 10.0479 3.55565 9.54395 4.00996 8.89251C4.06087 8.81614 4.10917 8.74238 4.15617 8.67058C4.20186 8.59943 4.24951 8.52567 4.29977 8.44865Z" fill="#AF733A"/>
<path d="M15.4885 6.4793C15.5042 6.51781 15.5029 6.55763 15.4859 6.59941C15.4683 6.63988 15.4402 6.66729 15.4023 6.68296C15.3952 6.69209 15.3273 6.72147 15.1987 6.77173C15.0694 6.82264 14.9102 6.88269 14.7209 6.95189C14.5329 7.01977 14.3331 7.09418 14.123 7.17382C13.9141 7.25215 13.7222 7.32395 13.5485 7.38792C13.3743 7.45254 13.2431 7.5041 13.1543 7.54196C12.9258 7.61703 12.698 7.68687 12.4702 7.75084C12.2437 7.81546 12.012 7.8729 11.7757 7.92316C11.5512 7.96494 11.3142 8.00606 11.0655 8.04588C10.8162 8.08635 10.5701 8.09027 10.3266 8.05894C10.0845 8.0276 9.8573 7.93557 9.64516 7.78217C9.49372 7.66598 9.418 7.51585 9.418 7.33309C9.4167 7.15032 9.45455 6.96364 9.53288 6.77173C9.60991 6.58048 9.68824 6.42382 9.76787 6.30176C9.91017 6.06024 10.0897 5.84745 10.3057 5.66468C10.5211 5.48061 10.7581 5.33961 11.0159 5.2417C11.1288 5.20384 11.2561 5.19079 11.3971 5.20254C11.5381 5.21298 11.636 5.28087 11.6922 5.40619C11.732 5.51781 11.7248 5.62225 11.6713 5.71951C11.619 5.81742 11.5564 5.90097 11.4833 5.97016C11.2568 6.17773 11.0009 6.34484 10.7157 6.47147C10.4317 6.59679 10.1491 6.70776 9.86709 6.80306C9.84098 6.90946 9.80442 7.02695 9.75743 7.15554C9.71239 7.28283 9.73262 7.39771 9.81748 7.50019C9.96892 7.63074 10.1438 7.70645 10.3423 7.72734C10.5407 7.74823 10.7326 7.75345 10.9193 7.74301C11.4552 7.68426 11.98 7.5746 12.4937 7.41403C13.0087 7.25215 13.5153 7.07134 14.0133 6.87095C14.1282 6.83309 14.2796 6.77826 14.4676 6.70645C14.6569 6.63531 14.8358 6.56742 15.0029 6.5028C15.17 6.43883 15.264 6.40293 15.2848 6.39575C15.3736 6.35593 15.4415 6.384 15.4885 6.4793ZM11.4389 5.49236C11.1549 5.50476 10.8971 5.60136 10.666 5.78217C10.4363 5.96363 10.2385 6.16468 10.0734 6.38531C10.3305 6.29001 10.5831 6.17578 10.8305 6.04327C11.0773 5.91142 11.2803 5.72734 11.4389 5.49236Z" fill="#AF733A"/>
<path d="M22.0044 6.31391C22.037 6.41705 22.0057 6.48819 21.9104 6.52801C21.8301 6.56848 21.7047 6.6194 21.5344 6.68206C21.3634 6.74472 21.1963 6.80477 21.0331 6.86222C20.8712 6.91835 20.7524 6.95817 20.678 6.98232C20.114 7.14616 19.535 7.263 18.9417 7.33219C18.3477 7.40203 17.7563 7.45491 17.1662 7.49146C17.0807 7.61352 16.9867 7.74146 16.8842 7.87527C16.7831 8.00778 16.6682 8.12005 16.5396 8.21209C16.4123 8.30477 16.2628 8.35242 16.0905 8.35569C15.9717 8.36809 15.8718 8.32305 15.7903 8.21992C15.71 8.11744 15.695 8.00974 15.7459 7.89616C15.8503 7.64746 16.0259 7.46665 16.2733 7.35308C16.52 7.23819 16.7707 7.15464 17.0252 7.10242C17.0357 7.02083 17.0494 6.93728 17.067 6.85177C17.084 6.76496 17.099 6.67945 17.1114 6.5959C16.9339 6.60112 16.757 6.63115 16.5814 6.68467C16.4071 6.73689 16.2348 6.78258 16.0644 6.82044C15.8934 6.85699 15.7185 6.86679 15.5396 6.84916C15.3986 6.82305 15.3151 6.74146 15.2889 6.60373C15.2628 6.4647 15.2746 6.34655 15.3229 6.24864C15.4286 5.99994 15.5735 5.77279 15.7563 5.56718C15.9391 5.36222 16.148 5.20034 16.3829 5.08154C16.4854 5.02605 16.6036 4.99733 16.738 4.99538C16.8718 4.99211 16.9782 5.04172 17.0566 5.1442C17.1173 5.24015 17.1225 5.33676 17.0722 5.43402C17.0233 5.53193 16.9587 5.61156 16.879 5.67423C16.757 5.66248 16.695 5.61352 16.6936 5.52801C16.6917 5.44316 16.7015 5.36287 16.7224 5.2878C16.4417 5.38898 16.2002 5.55412 15.9965 5.78389C15.7929 6.01235 15.6453 6.26953 15.5553 6.55673C15.7413 6.56065 15.9234 6.53585 16.101 6.48363C16.2798 6.4301 16.46 6.38049 16.6414 6.3348C16.8242 6.28976 17.005 6.28715 17.1845 6.32697C17.2974 6.37592 17.366 6.44903 17.3908 6.54629C17.4149 6.6442 17.4195 6.74864 17.4038 6.8596C17.3882 6.97122 17.366 7.07566 17.3386 7.17292C17.8014 7.11744 18.2635 7.07109 18.725 7.03454C19.1858 6.99668 19.6421 6.91966 20.0931 6.80477C20.3751 6.73885 20.6656 6.64812 20.9652 6.53323C21.2641 6.41835 21.5403 6.31783 21.7929 6.23036C21.8882 6.18859 21.9587 6.21665 22.0044 6.31391ZM16.0618 8.08937C16.2185 8.03389 16.3549 7.95295 16.4717 7.84655C16.5879 7.73885 16.6891 7.61679 16.7746 7.48101C16.6349 7.53715 16.488 7.60765 16.3333 7.6925C16.178 7.77801 16.0879 7.91052 16.0618 8.08937ZM16.3908 4.48885C16.347 4.49081 16.3164 4.48493 16.2994 4.47057C16.2537 4.43402 16.2302 4.38963 16.2289 4.33741L16.2158 3.75517C16.2119 3.65073 16.2628 3.5972 16.3673 3.59329C16.4717 3.59198 16.5252 3.64289 16.5292 3.74733L16.537 4.10504L17.7354 3.65334C17.8255 3.61352 17.8934 3.64159 17.9391 3.73689C17.9789 3.84133 17.9476 3.90921 17.8451 3.94054L16.4352 4.48885C16.428 4.48885 16.4208 4.48885 16.4143 4.48885C16.4071 4.48885 16.3993 4.48885 16.3908 4.48885Z" fill="#AF733A"/>
<path d="M29.6365 6.14062C29.6502 6.17913 29.6483 6.21895 29.6313 6.26073C29.6137 6.3025 29.5869 6.33057 29.5504 6.34428C29.5504 6.34428 29.457 6.38279 29.271 6.45916C29.0863 6.53422 28.8382 6.63018 28.5269 6.74637C28.2168 6.86125 27.8696 6.98918 27.4851 7.13018C27.1019 7.26986 26.7077 7.41086 26.3023 7.55315C26.335 7.53945 26.2801 7.55511 26.1378 7.60015C25.9949 7.64388 25.7938 7.70394 25.5347 7.78031C25.2749 7.85733 24.9786 7.93697 24.6444 8.02052C24.3115 8.10276 23.972 8.17587 23.6261 8.23984C23.2795 8.3025 22.9479 8.34167 22.6313 8.35733C22.3141 8.373 22.0425 8.35341 21.8167 8.29728C21.66 8.27117 21.5288 8.19676 21.4224 8.07274C21.3147 7.94937 21.2625 7.80903 21.2658 7.65237C21.2749 7.39127 21.3252 7.15563 21.4172 6.9448C21.5099 6.73266 21.6202 6.51268 21.7488 6.28422C21.9348 5.96046 22.1359 5.64584 22.3519 5.33905C22.5673 5.03096 22.7964 4.73266 23.0386 4.44349C22.8297 4.4559 22.6189 4.47744 22.4068 4.50877C22.194 4.5401 21.9799 4.57012 21.7645 4.59754C21.7632 4.51595 21.7821 4.43958 21.8219 4.36777C21.8604 4.29663 21.9244 4.26007 22.0151 4.25811C22.2357 4.2059 22.4577 4.17195 22.6809 4.15629C22.9055 4.13932 23.13 4.11973 23.3545 4.09885C23.5739 3.87822 23.7997 3.6589 24.0334 3.44088C24.2664 3.22352 24.5301 3.0512 24.8245 2.92391C24.9374 2.87691 25.0699 2.85798 25.2214 2.86647C25.3741 2.87365 25.4675 2.95133 25.5008 3.09885C25.5334 3.28357 25.4962 3.45394 25.3885 3.61059C25.2821 3.76595 25.1783 3.91543 25.0778 4.05968L26.3389 4.08579C26.4433 4.09819 26.4968 4.15302 26.5008 4.25028C26.4884 4.35472 26.4368 4.40824 26.3467 4.40955C26.3467 4.40955 26.3448 4.40955 26.3415 4.40955C26.3376 4.40955 26.3363 4.40955 26.3363 4.40955L24.7932 4.36777H24.7801C24.489 4.66412 24.1829 4.9448 23.8611 5.21112C23.5386 5.47613 23.2044 5.72809 22.8585 5.9683C22.7279 6.06099 22.6013 6.14584 22.4799 6.22417C22.3598 6.3012 22.222 6.38605 22.0673 6.48005C22.0673 6.48005 22.0314 6.54663 21.9603 6.67848C21.8885 6.81099 21.8141 6.96438 21.7357 7.13801C21.6574 7.31033 21.6091 7.46046 21.5895 7.5871C21.5634 7.732 21.6 7.83644 21.6992 7.90041C21.7971 7.96503 21.9237 8.00485 22.0804 8.02052C22.237 8.03488 22.3898 8.03618 22.5399 8.02574C22.6894 8.01529 22.7938 8.00942 22.8532 8.00746C23.2168 7.95394 23.5562 7.89715 23.8715 7.83775C24.1881 7.77704 24.5138 7.70589 24.848 7.62365C25.1822 7.5401 25.5562 7.4324 25.9707 7.29989C26.3846 7.16608 26.8728 6.99963 27.4355 6.8012C27.9975 6.60146 28.6633 6.35341 29.4329 6.05707C29.5354 6.01921 29.6032 6.04663 29.6365 6.14062ZM25.2318 3.14845C24.9355 3.19415 24.6783 3.31033 24.459 3.49832C24.2397 3.68631 24.0269 3.87626 23.8219 4.06751C23.9557 4.06425 24.0895 4.06164 24.224 4.05968C24.3578 4.05642 24.4962 4.05642 24.6391 4.05968C24.6391 4.05968 24.6404 4.05968 24.6444 4.05968C24.6476 4.05838 24.6496 4.05381 24.6496 4.04663C24.7749 3.91804 24.8898 3.77965 24.9942 3.63148C25.0987 3.48396 25.1776 3.32274 25.2318 3.14845ZM23.4929 4.40955C23.284 4.6465 23.081 4.89193 22.8846 5.14584C22.6894 5.40041 22.5092 5.66412 22.3441 5.93697C22.6972 5.70394 23.0367 5.45655 23.3624 5.19545C23.6874 4.93435 24.0079 4.66281 24.3232 4.38083C24.1803 4.38279 24.0419 4.38736 23.9081 4.39388C23.7736 4.40106 23.6352 4.40629 23.4929 4.40955Z" fill="#AF733A"/>
<path d="M35.258 6.0082C35.2737 6.04672 35.2724 6.08653 35.2554 6.12831C35.2378 6.16878 35.2097 6.19619 35.1719 6.21186C35.1647 6.221 35.0968 6.25037 34.9682 6.30063C34.839 6.35155 34.6797 6.4116 34.4904 6.48079C34.3024 6.54867 34.1027 6.62309 33.8925 6.70272C33.6836 6.78105 33.4917 6.85285 33.3181 6.91682C33.1438 6.98144 33.0126 7.03301 32.9238 7.07087C32.6954 7.14593 32.4676 7.21578 32.2398 7.27974C32.0133 7.34437 31.7815 7.40181 31.5452 7.45207C31.3207 7.49384 31.0837 7.53497 30.8351 7.57478C30.5857 7.61525 30.3396 7.61917 30.0961 7.58784C29.854 7.55651 29.6268 7.46447 29.4147 7.31108C29.2633 7.19489 29.1875 7.04476 29.1875 6.86199C29.1862 6.67922 29.2241 6.49254 29.3024 6.30063C29.3794 6.10938 29.4578 5.95272 29.5374 5.83066C29.6797 5.58914 29.8592 5.37635 30.0753 5.19358C30.2907 5.00951 30.5276 4.86852 30.7854 4.77061C30.8984 4.73275 31.0257 4.71969 31.1666 4.73144C31.3076 4.74189 31.4055 4.80977 31.4617 4.9351C31.5015 5.04672 31.4943 5.15115 31.4408 5.24841C31.3886 5.34632 31.3259 5.42987 31.2528 5.49907C31.0263 5.70664 30.7704 5.87374 30.4852 6.00037C30.2012 6.1257 29.9186 6.23666 29.6366 6.33196C29.6105 6.43836 29.574 6.55585 29.527 6.68444C29.4819 6.81173 29.5022 6.92661 29.587 7.02909C29.7384 7.15964 29.9134 7.23536 30.1118 7.25625C30.3102 7.27713 30.5022 7.28236 30.6888 7.27191C31.2247 7.21316 31.7495 7.1035 32.2633 6.94293C32.7783 6.78105 33.2848 6.60024 33.7828 6.39985C33.8977 6.36199 34.0492 6.30716 34.2371 6.23536C34.4264 6.16421 34.6053 6.09632 34.7724 6.0317C34.9395 5.96773 35.0335 5.93183 35.0544 5.92465C35.1431 5.88484 35.211 5.9129 35.258 6.0082ZM31.2084 5.02126C30.9245 5.03366 30.6666 5.13027 30.4356 5.31108C30.2058 5.49254 30.008 5.69358 29.8429 5.91421C30.1001 5.81891 30.3527 5.70468 30.6001 5.57217C30.8468 5.44032 31.0498 5.25625 31.2084 5.02126ZM31.1875 4.18314C31.1418 4.18314 31.1125 4.17661 31.0988 4.16225C31.0518 4.1257 31.0283 4.08131 31.0283 4.02909L31.0126 3.44946C31.0106 3.34502 31.0622 3.29215 31.1666 3.29019C31.2711 3.28692 31.324 3.33719 31.3259 3.44162L31.3364 3.79933L32.5348 3.34502C32.6216 3.3052 32.6888 3.33327 32.7358 3.42857C32.7757 3.53301 32.7437 3.60089 32.6392 3.63222L31.2319 4.18053C31.2247 4.18053 31.2169 4.18053 31.2084 4.18053C31.2012 4.18053 31.1941 4.18183 31.1875 4.18314Z" fill="#AF733A"/>
<path d="M52.1125 5.60538C52.1438 5.70329 52.1105 5.77118 52.0133 5.80904C51.5413 5.98658 51.0537 6.18632 50.5511 6.40695C50.0479 6.62823 49.5492 6.85277 49.0551 7.08058C48.3481 7.40956 47.7476 7.67523 47.2535 7.87692C46.7587 8.07927 46.3664 8.18371 46.0759 8.19024C45.9402 8.19416 45.8344 8.17849 45.76 8.14324C45.5929 8.07927 45.4859 7.9546 45.4389 7.76987C45.3148 7.37692 45.4859 6.72418 45.9506 5.81165C45.9937 5.7281 46.0368 5.64455 46.0786 5.561C46.1216 5.47745 46.1654 5.39846 46.2091 5.3234C45.8971 5.44873 45.5733 5.59624 45.2378 5.76465C44.9036 5.93371 44.5799 6.0982 44.2665 6.25812C43.9532 6.4187 43.6765 6.55251 43.4363 6.66021C43.196 6.76661 43.0205 6.82144 42.9088 6.8247C42.7417 6.81295 42.6464 6.73006 42.6216 6.57666C42.5955 6.42392 42.619 6.29403 42.6921 6.18763C42.9428 5.76465 43.2848 5.41217 43.7182 5.13019C44.1517 4.8482 44.6177 4.69677 45.1177 4.67588C45.29 4.67262 45.4624 4.69873 45.6347 4.75421C45.807 4.81034 45.9545 4.89977 46.0786 5.02314C46.1582 4.96961 46.2417 4.9187 46.3292 4.8717C46.418 4.8247 46.4872 4.75617 46.5381 4.66544C46.9852 3.99376 47.4767 3.3469 48.0133 2.72549C48.5492 2.10408 49.1477 1.55316 49.8096 1.07275C49.9624 0.965044 50.1334 0.862563 50.3214 0.764652C50.5107 0.667394 50.7032 0.657603 50.8984 0.735932C51.0498 0.828621 51.1288 0.965697 51.136 1.14846C51.1445 1.33123 51.1053 1.4905 51.0185 1.62627C50.8201 1.97484 50.572 2.28685 50.2744 2.56361C49.978 2.84037 49.6725 3.10147 49.3579 3.3469C48.9558 3.66413 48.5316 3.95395 48.0864 4.21635C47.6425 4.4794 47.2 4.74638 46.76 5.01792C46.6308 5.23071 46.4989 5.46374 46.3631 5.71765C46.2274 5.97027 46.1047 6.22288 45.995 6.47483C45.8853 6.72745 45.8044 6.95917 45.7522 7.16935C45.7013 7.37823 45.696 7.5499 45.7365 7.68371C45.7607 7.77444 45.8109 7.83384 45.888 7.86126C46.0237 7.91739 46.2483 7.89455 46.5616 7.79337C46.8762 7.69285 47.2417 7.5499 47.6582 7.36517C48.0759 7.1811 48.4989 6.9905 48.9271 6.79337C49.4141 6.56361 49.9036 6.34298 50.3945 6.13019C50.8853 5.91609 51.3899 5.70982 51.9088 5.51139C52.0028 5.48006 52.0707 5.51139 52.1125 5.60538ZM44.606 5.76465C44.7972 5.65499 44.995 5.55773 45.1987 5.47222C45.4023 5.38541 45.5916 5.27118 45.7678 5.13019C45.4421 4.9892 45.1073 4.96047 44.7626 5.04403C44.418 5.12627 44.1053 5.26008 43.8253 5.44611C43.6353 5.58384 43.4545 5.7405 43.2822 5.91609C43.1118 6.09233 42.9885 6.29664 42.9115 6.52967C43.2156 6.45656 43.5054 6.34429 43.7809 6.19285C44.0577 6.04141 44.3325 5.89912 44.606 5.76465ZM50.149 1.23463C49.5329 1.65238 48.9728 2.13998 48.4702 2.69677C47.9689 3.25421 47.5022 3.83515 47.0707 4.44089C47.636 4.12953 48.1869 3.79011 48.7235 3.42262C49.2594 3.05577 49.7528 2.63933 50.2039 2.17457C50.3501 2.00617 50.495 1.82862 50.6399 1.64194C50.7842 1.45591 50.8423 1.24376 50.8148 1.00486C50.5537 1.01204 50.3318 1.08841 50.149 1.23463Z" fill="#AF733A"/>
<path d="M59.1101 5.43845C59.1499 5.54289 59.1212 5.61078 59.0239 5.64211C59.0167 5.64211 58.9227 5.67866 58.7419 5.75177C58.5605 5.82357 58.3176 5.91756 58.0135 6.03375C57.7106 6.14863 57.3692 6.27592 56.99 6.41495C56.6101 6.55464 56.2171 6.69628 55.8098 6.84054C55.8098 6.84054 55.7537 6.85882 55.6427 6.89537C55.533 6.93192 55.3901 6.97631 55.2145 7.02853C55.0402 7.08075 54.862 7.13427 54.6793 7.1878C54.4978 7.24002 54.3411 7.28179 54.2093 7.31313C54.0683 7.33924 53.9116 7.36012 53.7393 7.37579C53.5683 7.39145 53.4221 7.34576 53.3007 7.23741C53.2237 7.1643 53.1949 7.07749 53.2145 6.97631C53.2354 6.87383 53.2628 6.78506 53.2981 6.70999C53.4195 6.46848 53.5657 6.24655 53.7367 6.0442C53.9071 5.8425 54.0794 5.63884 54.2537 5.43323C53.4077 5.62514 52.6009 5.9391 51.8333 6.37579C51.7622 6.42997 51.6708 6.45869 51.5592 6.46195C51.4462 6.46391 51.3914 6.39798 51.3947 6.26352C51.5605 5.91561 51.7752 5.60229 52.0396 5.32357C52.3059 5.0455 52.5781 4.77918 52.8568 4.52461C52.9208 4.46391 52.9874 4.44563 53.0552 4.46978C53.1231 4.49459 53.161 4.55072 53.1701 4.6395C52.9678 4.8536 52.7589 5.06443 52.5435 5.27135C52.3274 5.47892 52.1297 5.70412 51.9508 5.94759C52.332 5.75112 52.7217 5.57683 53.1205 5.4254C53.5206 5.27396 53.9325 5.16822 54.3555 5.10686C54.4756 5.07422 54.567 5.11078 54.6297 5.21652C54.6923 5.32292 54.6825 5.41887 54.6009 5.50373C54.4143 5.75438 54.2132 5.9985 53.9978 6.2348C53.7837 6.46978 53.6205 6.74263 53.5096 7.05203C53.8072 7.06769 54.0983 7.0331 54.3842 6.94759C54.6695 6.86273 54.9534 6.77918 55.2354 6.69694C55.3098 6.67279 55.3842 6.65125 55.4573 6.63166C55.5304 6.61078 55.6042 6.58467 55.6793 6.55333C56.1388 6.39341 56.6401 6.21391 57.1832 6.01548C57.7263 5.81574 58.3007 5.59511 58.9064 5.3549C58.9952 5.31704 59.0631 5.34446 59.1101 5.43845Z" fill="#AF733A"/>
<path d="M64.7346 5.3059C64.7503 5.34441 64.749 5.38423 64.732 5.426C64.7144 5.46647 64.6863 5.49389 64.6484 5.50956C64.6412 5.51869 64.5734 5.54807 64.4448 5.59833C64.3155 5.64924 64.1563 5.70929 63.967 5.77848C63.779 5.84637 63.5792 5.92078 63.3691 6.00042C63.1602 6.07875 62.9683 6.15055 62.7946 6.21452C62.6204 6.27914 62.4892 6.3307 62.4004 6.36856C62.1719 6.44363 61.9441 6.51347 61.7163 6.57744C61.4898 6.64206 61.2581 6.6995 61.0218 6.74976C60.7973 6.79154 60.5603 6.83266 60.3116 6.87248C60.0623 6.91295 59.8162 6.91687 59.5727 6.88553C59.3305 6.8542 59.1034 6.76217 58.8912 6.60877C58.7398 6.49258 58.6641 6.34245 58.6641 6.15969C58.6628 5.97692 58.7006 5.79023 58.779 5.59833C58.856 5.40707 58.9343 5.25042 59.014 5.12835C59.1563 4.88684 59.3358 4.67405 59.5518 4.49128C59.7672 4.30721 60.0042 4.16621 60.262 4.0683C60.3749 4.03044 60.5022 4.01739 60.6432 4.02914C60.7842 4.03958 60.8821 4.10747 60.9382 4.23279C60.9781 4.34441 60.9709 4.44885 60.9174 4.54611C60.8651 4.64402 60.8025 4.72757 60.7294 4.79676C60.5029 5.00433 60.247 5.17144 59.9617 5.29807C59.6778 5.42339 59.3952 5.53436 59.1132 5.62966C59.0871 5.73606 59.0505 5.85355 59.0035 5.98214C58.9585 6.10942 58.9787 6.22431 59.0636 6.32679C59.215 6.45734 59.3899 6.53305 59.5884 6.55394C59.7868 6.57483 59.9787 6.58005 60.1654 6.56961C60.7013 6.51086 61.2261 6.4012 61.7398 6.24063C62.2548 6.07875 62.7614 5.89794 63.2594 5.69754C63.3743 5.65969 63.5257 5.60486 63.7137 5.53305C63.903 5.46191 64.0818 5.39402 64.249 5.3294C64.4161 5.26543 64.51 5.22953 64.5309 5.22235C64.6197 5.18253 64.6876 5.2106 64.7346 5.3059ZM60.685 4.31895C60.401 4.33136 60.1432 4.42796 59.9121 4.60877C59.6824 4.79023 59.4846 4.99128 59.3194 5.21191C59.5766 5.1166 59.8292 5.00238 60.0766 4.86987C60.3234 4.73801 60.5264 4.55394 60.685 4.31895Z" fill="#AF733A"/>
<path d="M71.2524 5.14053C71.285 5.24366 71.2537 5.31481 71.1584 5.35463C71.0781 5.3951 70.9528 5.44601 70.7824 5.50867C70.6114 5.57134 70.4443 5.63139 70.2811 5.68883C70.1192 5.74497 70.0004 5.78478 69.926 5.80893C69.3621 5.97277 68.7831 6.08961 68.1897 6.1588C67.5957 6.22865 67.0044 6.28152 66.4143 6.31807C66.3288 6.44014 66.2348 6.56807 66.1323 6.70189C66.0311 6.83439 65.9162 6.94666 65.7876 7.0387C65.6604 7.13139 65.5109 7.17904 65.3386 7.1823C65.2198 7.1947 65.1199 7.14967 65.0383 7.04653C64.958 6.94405 64.943 6.83635 64.9939 6.72277C65.0984 6.47408 65.2739 6.29327 65.5213 6.17969C65.7681 6.06481 66.0187 5.98126 66.2733 5.92904C66.2837 5.84745 66.2974 5.7639 66.3151 5.67839C66.332 5.59157 66.347 5.50606 66.3595 5.42251C66.1819 5.42773 66.005 5.45776 65.8294 5.51128C65.6551 5.5635 65.4828 5.6092 65.3125 5.64705C65.1414 5.68361 64.9665 5.6934 64.7876 5.67578C64.6467 5.64967 64.5631 5.56807 64.537 5.43034C64.5109 5.29131 64.5226 5.17316 64.5709 5.07525C64.6767 4.82656 64.8216 4.5994 65.0044 4.39379C65.1871 4.18883 65.396 4.02695 65.631 3.90815C65.7335 3.85267 65.8516 3.82395 65.9861 3.82199C66.1199 3.81873 66.2263 3.86833 66.3046 3.97081C66.3653 4.06677 66.3705 4.16337 66.3203 4.26063C66.2713 4.35854 66.2067 4.43818 66.1271 4.50084C66.005 4.48909 65.943 4.44014 65.9417 4.35463C65.9397 4.26977 65.9495 4.18948 65.9704 4.11442C65.6897 4.21559 65.4482 4.38074 65.2446 4.6105C65.0409 4.83896 64.8934 5.09614 64.8033 5.38335C64.9893 5.38726 65.1715 5.36246 65.349 5.31024C65.5279 5.25672 65.708 5.20711 65.8895 5.16142C66.0722 5.11638 66.2531 5.11376 66.4326 5.15358C66.5455 5.20254 66.614 5.27564 66.6388 5.3729C66.663 5.47081 66.6675 5.57525 66.6519 5.68622C66.6362 5.79784 66.614 5.90228 66.5866 5.99954C67.0494 5.94405 67.5115 5.89771 67.973 5.86115C68.4339 5.8233 68.8901 5.74627 69.3412 5.63139C69.6232 5.56546 69.9136 5.47473 70.2132 5.35985C70.5122 5.24497 70.7883 5.14444 71.0409 5.05698C71.1362 5.0152 71.2067 5.04327 71.2524 5.14053ZM65.3098 6.91598C65.4665 6.8605 65.6029 6.77956 65.7198 6.67316C65.836 6.56546 65.9371 6.4434 66.0226 6.30763C65.8829 6.36376 65.7361 6.43426 65.5814 6.51912C65.426 6.60463 65.336 6.73713 65.3098 6.91598Z" fill="#AF733A"/>
</svg>
