<svg width="6" height="66" viewBox="0 0 6 66" fill="none" xmlns="http://www.w3.org/2000/svg">
<path d="M3.32483 49.9152C3.39889 49.8883 3.44602 49.9091 3.46757 49.9771C3.46757 49.9825 3.49113 50.0499 3.53759 50.1791C3.58472 50.3071 3.64666 50.4781 3.72342 50.6935C3.79882 50.909 3.88366 51.1527 3.97657 51.4234C4.06814 51.6947 4.16105 51.9748 4.25397 52.2636C4.25397 52.2636 4.26676 52.3034 4.29167 52.3821C4.31524 52.4596 4.34419 52.5599 4.37785 52.6838C4.41219 52.8076 4.44653 52.9342 4.48019 53.0635C4.51453 53.1914 4.54146 53.3025 4.56099 53.3974C4.57714 53.4964 4.58994 53.6068 4.59869 53.7287C4.6061 53.8492 4.57041 53.9516 4.49096 54.0357C4.43912 54.0882 4.37785 54.1071 4.30783 54.0923C4.23646 54.0761 4.17317 54.0546 4.11931 54.0276C3.95233 53.9381 3.80017 53.8324 3.66147 53.7099C3.52143 53.586 3.38071 53.4607 3.23865 53.3328C3.35917 53.9327 3.56654 54.5057 3.86077 55.051C3.89712 55.1049 3.91463 55.1702 3.91463 55.2476C3.91463 55.3264 3.86817 55.3634 3.77459 55.3581C3.5322 55.2375 3.3154 55.082 3.12284 54.8921C2.93096 54.7003 2.7485 54.5037 2.57613 54.3023C2.53506 54.2559 2.52362 54.2094 2.54112 54.1623C2.5593 54.1138 2.5997 54.0869 2.66231 54.0815C2.80976 54.229 2.95452 54.3804 3.09591 54.5366C3.23798 54.6915 3.3935 54.8342 3.56183 54.9649C3.43121 54.6922 3.3154 54.4141 3.21441 54.13C3.11409 53.8465 3.04609 53.555 3.00973 53.2547C2.98819 53.1705 3.01646 53.1079 3.09322 53.0662C3.16863 53.0251 3.23528 53.0332 3.29251 53.0904C3.46689 53.2271 3.63589 53.3725 3.79882 53.5267C3.96041 53.6816 4.14893 53.8007 4.36439 53.8849C4.38054 53.6748 4.36102 53.4695 4.30514 53.2682C4.24993 53.0655 4.19606 52.8642 4.14355 52.6649C4.12739 52.611 4.11325 52.5585 4.10046 52.506C4.08834 52.4542 4.07083 52.4023 4.04929 52.3498C3.9456 52.0233 3.82778 51.6671 3.69648 51.2806C3.56385 50.8948 3.41842 50.4862 3.26019 50.0552C3.23528 49.9926 3.25683 49.9462 3.32483 49.9152Z" fill="#070004"/>
<path d="M3.32488 23.7583C3.33565 23.7529 3.35383 23.7502 3.37874 23.7502C3.42183 23.761 3.45146 23.7846 3.46762 23.8203C3.46762 23.8257 3.48647 23.8788 3.52417 23.9792C3.56053 24.0781 3.60699 24.2121 3.66422 24.3804C3.71135 24.5117 3.77127 24.6814 3.84466 24.8894C3.91872 25.0961 3.99211 25.315 4.06549 25.5466C4.13956 25.7782 4.20015 26.0017 4.24863 26.2172C4.29576 26.4326 4.31865 26.6131 4.31865 26.7585C4.31865 26.8541 4.30518 26.9275 4.27825 26.9793C4.23718 27.0588 4.17457 27.1032 4.08973 27.114C4.02712 27.1194 3.95373 27.1052 3.86889 27.0709C3.78473 27.0372 3.69788 26.9888 3.60766 26.9255C3.60766 26.9255 3.57938 26.9026 3.52148 26.8554C3.46425 26.807 3.40029 26.7531 3.33026 26.6939C3.2589 26.6333 3.20369 26.5821 3.16598 26.5403C3.25082 26.8817 3.35114 27.2136 3.46762 27.5368C3.58275 27.86 3.68239 28.1872 3.76655 28.5171C3.78271 28.5642 3.78743 28.6181 3.78002 28.6787C3.77127 28.7393 3.74905 28.7891 3.71269 28.8268C3.67499 28.8659 3.62516 28.876 3.56188 28.8565C3.42049 28.7932 3.30064 28.7003 3.20369 28.5764C3.10539 28.4525 3.00911 28.3333 2.91552 28.2182C2.76874 28.0189 2.64015 27.8007 2.5304 27.5637C2.41931 27.3267 2.39507 27.083 2.45768 26.8312C2.47923 26.7255 2.53242 26.6373 2.61658 26.5673C2.69939 26.4959 2.79635 26.4649 2.90744 26.4757C2.90744 26.4542 2.90744 26.4367 2.90744 26.4218C2.90744 26.4057 2.90744 26.3868 2.90744 26.3653C2.91283 26.335 2.92225 26.2858 2.93437 26.2172C2.94716 26.1492 2.98285 26.1276 3.0421 26.1525C3.18753 26.2697 3.29727 26.3613 3.37066 26.4272C3.44472 26.4919 3.5235 26.5666 3.60766 26.6508C3.70865 26.7282 3.7982 26.7895 3.87697 26.8339C3.95642 26.879 4.01634 26.8985 4.05741 26.8931C4.06819 26.8931 4.07627 26.8878 4.08165 26.877C4.11262 26.8198 4.1106 26.6979 4.07627 26.5107C4.0426 26.3242 3.99009 26.1027 3.92006 25.8455C3.8487 25.589 3.76588 25.3244 3.67229 25.051C3.57736 24.7763 3.48512 24.5245 3.3949 24.2943C3.3949 24.2943 3.37807 24.2458 3.34373 24.1488C3.31007 24.0505 3.28044 23.967 3.25486 23.8984C3.24408 23.8735 3.24543 23.8459 3.25755 23.8149C3.27034 23.7826 3.29256 23.7637 3.32488 23.7583ZM2.98554 26.7289C2.89061 26.6965 2.81722 26.7006 2.7647 26.7396C2.71286 26.7794 2.68054 26.8386 2.66775 26.9174C2.65361 26.9968 2.65092 27.079 2.65967 27.1652C2.66708 27.2513 2.68122 27.3241 2.70276 27.3833C2.7876 27.619 2.90609 27.8398 3.05826 28.0458C3.20907 28.2505 3.3747 28.439 3.5538 28.6114C3.48041 28.2922 3.38884 27.9785 3.27909 27.6715C3.168 27.3631 3.07038 27.0487 2.98554 26.7289Z" fill="#070004"/>
<path d="M2.97415 6.0073C3.00108 5.99653 3.02936 5.99788 3.05764 6.01C3.08659 6.02279 3.10611 6.04232 3.11689 6.06925C3.12227 6.07463 3.14247 6.12311 3.17614 6.21468C3.21047 6.30624 3.2502 6.41936 3.29464 6.55401C3.33773 6.68867 3.3862 6.83074 3.44007 6.97953C3.49258 7.129 3.53971 7.26501 3.5828 7.38889C3.62455 7.51278 3.65754 7.60636 3.68245 7.66898C3.73093 7.83259 3.77604 7.99418 3.81711 8.15374C3.85885 8.31399 3.89521 8.47827 3.92753 8.64659C3.95446 8.80481 3.98004 8.97179 4.00293 9.14752C4.0265 9.32392 4.02583 9.49695 4.00024 9.66729C3.97331 9.83831 3.90463 9.99721 3.79287 10.144C3.70871 10.2477 3.603 10.2982 3.47508 10.2948C3.34581 10.2928 3.21519 10.2632 3.08188 10.2059C2.94722 10.148 2.83815 10.0915 2.75331 10.0336C2.58499 9.92786 2.43754 9.79791 2.31164 9.64306C2.1864 9.48887 2.09214 9.31921 2.02886 9.13405C2.00192 9.05528 1.99384 8.9664 2.00462 8.86743C2.01539 8.76711 2.06589 8.69911 2.15543 8.66275C2.23286 8.63582 2.30625 8.64255 2.37627 8.6816C2.44495 8.72133 2.50218 8.76711 2.54863 8.81895C2.6907 8.98256 2.80381 9.1657 2.88797 9.36836C2.9728 9.56967 3.04619 9.76963 3.10881 9.96893C3.18287 9.99047 3.26434 10.0188 3.35388 10.0524C3.44209 10.0868 3.52288 10.0753 3.59627 10.0174C3.69187 9.9117 3.74843 9.78983 3.76594 9.65114C3.78412 9.51109 3.79017 9.37576 3.78479 9.24447C3.75449 8.86608 3.68716 8.49443 3.5828 8.12951C3.4771 7.76526 3.3586 7.40707 3.22731 7.05494C3.20038 6.97078 3.16402 6.86238 3.11689 6.72907C3.06841 6.59441 3.02397 6.46783 2.98223 6.34933C2.93914 6.23084 2.9149 6.16351 2.90952 6.14735C2.8846 6.08473 2.90615 6.03828 2.97415 6.0073ZM2.2093 8.84319C2.21468 9.04248 2.27932 9.22495 2.4032 9.3899C2.52709 9.55553 2.66444 9.69894 2.81525 9.8208C2.75264 9.63632 2.67723 9.45588 2.58903 9.27948C2.49948 9.10375 2.37291 8.95832 2.2093 8.84319Z" fill="#070004"/>
<path d="M2.83232 59.2856C2.90099 59.2587 2.94812 59.2769 2.97505 59.3395C3.19455 59.8499 3.36017 60.3562 3.47329 60.8584C3.5864 61.3594 3.66315 61.8253 3.7022 62.2562C3.74193 62.6871 3.76145 63.0547 3.76145 63.3577C3.76145 63.5051 3.75876 63.6351 3.75337 63.7482C3.74799 63.8613 3.7426 63.9522 3.73722 64.0202C4.01596 64.2989 4.24218 64.5528 4.41589 64.7824C4.59027 65.0106 4.67712 65.2079 4.67712 65.3748C4.67712 65.492 4.63673 65.5755 4.55593 65.6253C4.47379 65.6738 4.37414 65.6832 4.25699 65.6522C4.1156 65.6145 3.99576 65.5378 3.8988 65.4206C3.80185 65.3021 3.72644 65.1614 3.67258 64.9978C3.61737 64.8349 3.57495 64.6719 3.546 64.5103C3.51772 64.3474 3.49752 64.2053 3.48675 64.0848C3.42414 64.0256 3.35479 63.9596 3.27938 63.8855C3.20263 63.8121 3.10432 63.7206 2.98583 63.6108C2.86733 63.5018 2.71516 63.3597 2.52799 63.1853C2.34149 63.0116 2.10651 62.7948 1.82239 62.5363C1.53893 62.2764 1.19488 61.9566 0.79091 61.5775C0.812455 61.6354 0.832653 61.6974 0.850159 61.7633C0.868338 61.828 0.887863 61.8946 0.909408 61.9626C1.08716 62.5787 1.11341 62.9833 0.987509 63.1772C0.889209 63.3301 0.79091 63.4317 0.693956 63.4816C0.595656 63.53 0.514862 63.5529 0.451573 63.5489C0.388957 63.5435 0.354619 63.5408 0.349233 63.5408C0.281231 63.5193 0.257666 63.4721 0.279211 63.3981C0.300756 63.3301 0.347887 63.3065 0.419255 63.3281C0.419255 63.3281 0.458306 63.322 0.53506 63.3092C0.610469 63.2951 0.701362 63.2089 0.807068 63.0507C0.848812 62.988 0.862951 62.8857 0.850159 62.7436C0.83804 62.6022 0.809088 62.4393 0.763978 62.2562C0.719541 62.0717 0.665678 61.8872 0.602389 61.7041C0.539773 61.5196 0.478504 61.356 0.419255 61.2139C0.394343 61.1621 0.407809 61.1183 0.459652 61.082C0.512169 61.0496 0.556606 61.055 0.59431 61.0981C0.59431 61.0981 0.691263 61.189 0.88517 61.3701C1.07908 61.5499 1.38542 61.8334 1.80353 62.2212C2.22232 62.6076 2.76701 63.1126 3.43828 63.7374L3.52446 63.8155C3.52984 63.6378 3.52984 63.3954 3.52446 63.0884C3.51907 62.78 3.49483 62.4285 3.45174 62.0353C3.4073 61.6408 3.33055 61.2213 3.22282 60.7776C3.1151 60.3346 2.96361 59.8862 2.76768 59.4338C2.75893 59.4088 2.76095 59.3799 2.77307 59.3476C2.78586 59.3153 2.80539 59.2951 2.83232 59.2856ZM4.23545 65.4072C4.34519 65.4705 4.40781 65.4691 4.42397 65.4045C4.44013 65.3385 4.41993 65.2415 4.36203 65.1136C4.30278 64.9843 4.21862 64.8483 4.10887 64.7043C3.99778 64.5588 3.87389 64.439 3.73722 64.3434C3.77492 64.5911 3.82474 64.7891 3.88534 64.9359C3.94459 65.0813 4.00586 65.1904 4.06847 65.2617C4.13176 65.3318 4.18697 65.3802 4.23545 65.4072Z" fill="#070004"/>
<path d="M2.82488 54.5744C2.83565 54.569 2.85383 54.5663 2.87874 54.5663C2.92183 54.5771 2.95146 54.6006 2.96762 54.6363C2.96762 54.6417 2.98647 54.6949 3.02417 54.7952C3.06053 54.8942 3.10699 55.0282 3.16422 55.1965C3.21135 55.3278 3.27127 55.4974 3.34466 55.7055C3.41872 55.9122 3.49211 56.131 3.56549 56.3626C3.63956 56.5942 3.70015 56.8178 3.74863 57.0332C3.79576 57.2487 3.81865 57.4291 3.81865 57.5745C3.81865 57.6701 3.80518 57.7435 3.77825 57.7954C3.73718 57.8748 3.67457 57.9193 3.58973 57.93C3.52712 57.9354 3.45373 57.9213 3.36889 57.8869C3.28473 57.8533 3.19788 57.8048 3.10766 57.7415C3.10766 57.7415 3.07938 57.7186 3.02148 57.6715C2.96425 57.623 2.90029 57.5691 2.83026 57.5099C2.7589 57.4493 2.70369 57.3981 2.66598 57.3564C2.75082 57.6977 2.85114 58.0297 2.96762 58.3529C3.08275 58.676 3.18239 59.0032 3.26655 59.3332C3.28271 59.3803 3.28743 59.4342 3.28002 59.4947C3.27127 59.5553 3.24905 59.6052 3.21269 59.6429C3.17499 59.6819 3.12516 59.692 3.06188 59.6725C2.92049 59.6092 2.80064 59.5163 2.70369 59.3924C2.60539 59.2685 2.50911 59.1494 2.41552 59.0342C2.26874 58.8349 2.14015 58.6168 2.0304 58.3798C1.91931 58.1428 1.89507 57.8991 1.95768 57.6472C1.97923 57.5415 2.03242 57.4533 2.11658 57.3833C2.19939 57.3119 2.29635 57.281 2.40744 57.2918C2.40744 57.2702 2.40744 57.2527 2.40744 57.2379C2.40744 57.2217 2.40744 57.2029 2.40744 57.1813C2.41283 57.151 2.42225 57.1019 2.43437 57.0332C2.44716 56.9652 2.48285 56.9437 2.5421 56.9686C2.68753 57.0857 2.79727 57.1773 2.87066 57.2433C2.94472 57.3079 3.0235 57.3826 3.10766 57.4668C3.20865 57.5442 3.2982 57.6055 3.37697 57.6499C3.45642 57.6951 3.51634 57.7146 3.55741 57.7092C3.56819 57.7092 3.57627 57.7038 3.58165 57.693C3.61262 57.6358 3.6106 57.5139 3.57627 57.3268C3.5426 57.1403 3.49009 56.9188 3.42006 56.6616C3.3487 56.405 3.26588 56.1404 3.17229 55.8671C3.07736 55.5924 2.98512 55.3406 2.8949 55.1103C2.8949 55.1103 2.87807 55.0618 2.84373 54.9649C2.81007 54.8666 2.78044 54.7831 2.75486 54.7144C2.74408 54.6895 2.74543 54.6619 2.75755 54.6309C2.77034 54.5986 2.79256 54.5797 2.82488 54.5744ZM2.48554 57.5449C2.39061 57.5126 2.31722 57.5166 2.2647 57.5557C2.21286 57.5954 2.18054 57.6547 2.16775 57.7334C2.15361 57.8129 2.15092 57.895 2.15967 57.9812C2.16708 58.0674 2.18122 58.1401 2.20276 58.1993C2.2876 58.435 2.40609 58.6558 2.55826 58.8619C2.70907 59.0665 2.8747 59.2551 3.0538 59.4274C2.98041 59.1083 2.88884 58.7945 2.77909 58.4875C2.668 58.1791 2.57038 57.8647 2.48554 57.5449Z" fill="#070004"/>
<path d="M2.82488 44.9311C2.83565 44.9257 2.85383 44.923 2.87874 44.923C2.92183 44.9337 2.95146 44.9573 2.96762 44.993C2.96762 44.9984 2.98647 45.0516 3.02417 45.1519C3.06053 45.2509 3.10699 45.3848 3.16422 45.5532C3.21135 45.6845 3.27127 45.8541 3.34466 46.0622C3.41872 46.2689 3.49211 46.4877 3.56549 46.7193C3.63956 46.9509 3.70015 47.1744 3.74863 47.3899C3.79576 47.6054 3.81865 47.7858 3.81865 47.9312C3.81865 48.0268 3.80518 48.1002 3.77825 48.1521C3.73718 48.2315 3.67457 48.2759 3.58973 48.2867C3.52712 48.2921 3.45373 48.278 3.36889 48.2436C3.28473 48.21 3.19788 48.1615 3.10766 48.0982C3.10766 48.0982 3.07938 48.0753 3.02148 48.0282C2.96425 47.9797 2.90029 47.9258 2.83026 47.8666C2.7589 47.806 2.70369 47.7548 2.66598 47.7131C2.75082 48.0544 2.85114 48.3864 2.96762 48.7095C3.08275 49.0327 3.18239 49.3599 3.26655 49.6898C3.28271 49.737 3.28743 49.7908 3.28002 49.8514C3.27127 49.912 3.24905 49.9619 3.21269 49.9996C3.17499 50.0386 3.12516 50.0487 3.06188 50.0292C2.92049 49.9659 2.80064 49.873 2.70369 49.7491C2.60539 49.6252 2.50911 49.506 2.41552 49.3909C2.26874 49.1916 2.14015 48.9735 2.0304 48.7365C1.91931 48.4995 1.89507 48.2557 1.95768 48.0039C1.97923 47.8982 2.03242 47.81 2.11658 47.74C2.19939 47.6686 2.29635 47.6377 2.40744 47.6484C2.40744 47.6269 2.40744 47.6094 2.40744 47.5946C2.40744 47.5784 2.40744 47.5596 2.40744 47.538C2.41283 47.5077 2.42225 47.4586 2.43437 47.3899C2.44716 47.3219 2.48285 47.3004 2.5421 47.3253C2.68753 47.4424 2.79727 47.534 2.87066 47.6C2.94472 47.6646 3.0235 47.7393 3.10766 47.8235C3.20865 47.9009 3.2982 47.9622 3.37697 48.0066C3.45642 48.0517 3.51634 48.0713 3.55741 48.0659C3.56819 48.0659 3.57627 48.0605 3.58165 48.0497C3.61262 47.9925 3.6106 47.8706 3.57627 47.6835C3.5426 47.497 3.49009 47.2754 3.42006 47.0182C3.3487 46.7617 3.26588 46.4971 3.17229 46.2238C3.07736 45.9491 2.98512 45.6973 2.8949 45.467C2.8949 45.467 2.87807 45.4185 2.84373 45.3216C2.81007 45.2233 2.78044 45.1398 2.75486 45.0711C2.74408 45.0462 2.74543 45.0186 2.75755 44.9876C2.77034 44.9553 2.79256 44.9364 2.82488 44.9311ZM2.48554 47.9016C2.39061 47.8693 2.31722 47.8733 2.2647 47.9124C2.21286 47.9521 2.18054 48.0113 2.16775 48.0901C2.15361 48.1696 2.15092 48.2517 2.15967 48.3379C2.16708 48.4241 2.18122 48.4968 2.20276 48.556C2.2876 48.7917 2.40609 49.0125 2.55826 49.2185C2.70907 49.4232 2.8747 49.6117 3.0538 49.7841C2.98041 49.465 2.88884 49.1512 2.77909 48.8442C2.668 48.5358 2.57038 48.2214 2.48554 47.9016Z" fill="#070004"/>
<path d="M2.81779 32.1736C2.88647 32.1487 2.9336 32.1675 2.96053 32.2302C3.18541 32.7405 3.33218 33.2145 3.40221 33.6521C3.47088 34.0904 3.52272 34.5018 3.55841 34.8856C3.57995 35.0687 3.60015 35.2485 3.61766 35.4242C3.63584 35.6006 3.66613 35.7703 3.70922 35.9332L3.9139 36.1056C4.07011 36.2423 4.21554 36.383 4.35019 36.5284C4.48485 36.6725 4.61008 36.8206 4.72454 36.9728C4.76225 37.0253 4.79995 37.0819 4.83765 37.1425C4.87401 37.2037 4.91239 37.2711 4.95346 37.3444C4.98914 37.4239 5.01271 37.5074 5.02348 37.5949C5.02348 37.7585 4.98308 37.8548 4.90229 37.8831C4.8215 37.912 4.72656 37.9019 4.61682 37.8535C4.50572 37.8036 4.41079 37.7444 4.33134 37.6757C4.25257 37.5862 4.18187 37.5006 4.11858 37.4199C4.05597 37.3377 4.00009 37.2569 3.95161 37.1775C3.84792 37.0105 3.7577 36.8381 3.68229 36.6604C3.60554 36.4813 3.5436 36.2961 3.49647 36.1056C3.47492 36.0322 3.43048 35.9696 3.36181 35.9171C3.24196 35.8383 3.12212 35.7555 3.00362 35.6693C2.88512 35.5831 2.75518 35.4983 2.61311 35.4135C2.55588 35.3758 2.48519 35.3394 2.40035 35.303C2.31619 35.2653 2.23607 35.2512 2.16066 35.2599C2.08391 35.2674 2.03005 35.3239 1.99908 35.4296C1.97214 35.5124 1.96406 35.5979 1.97484 35.6855C1.98561 35.7716 1.99908 35.8518 2.01523 35.9252C2.08391 36.2504 2.19029 36.5176 2.33572 36.7277C2.35726 36.76 2.37275 36.7924 2.3815 36.8247C2.38891 36.8556 2.37342 36.8893 2.33572 36.927C2.30542 36.958 2.26974 36.9506 2.22799 36.9055C2.1849 36.861 2.15258 36.8287 2.13104 36.8085C2.08997 36.7513 2.0489 36.692 2.00715 36.6308C1.96406 36.5702 1.92232 36.5109 1.88058 36.453C1.79103 36.3278 1.69946 36.1999 1.60588 36.0706C1.51094 35.9413 1.41601 35.8114 1.3204 35.6801C1.29347 35.6498 1.24903 35.5939 1.18574 35.5131C1.12313 35.431 1.05378 35.3529 0.978371 35.2788C0.901617 35.2054 0.839674 35.1684 0.792544 35.1684C0.781772 35.2061 0.781098 35.2397 0.789851 35.268C0.797257 35.297 0.80601 35.3266 0.816782 35.3569C0.874685 35.4936 0.925855 35.6094 0.970292 35.7043C1.0154 35.7999 1.06119 35.8915 1.10764 35.979C1.47054 36.6415 1.96945 37.3276 2.60503 38.0366C2.7471 38.184 2.88647 38.3369 3.02247 38.4944C3.15915 38.6526 3.30121 38.8095 3.44799 38.9657C3.47492 39.0034 3.50993 39.0512 3.55302 39.1085C3.59477 39.1664 3.59342 39.2216 3.55033 39.2754C3.51464 39.3172 3.46617 39.3253 3.4049 39.2997C3.3443 39.2727 3.29583 39.2458 3.25947 39.2189C2.35659 38.6681 1.55067 37.9275 0.841021 36.997C0.719156 36.8449 0.606044 36.69 0.501684 36.5338C0.395978 36.3763 0.282866 36.218 0.162347 36.0598C0.105118 35.9918 0.0808795 35.9319 0.0896322 35.8794C0.0970384 35.8255 0.12397 35.7979 0.170427 35.7959C0.217557 35.7925 0.272093 35.8383 0.334709 35.9332C0.702997 36.4739 1.06455 36.9526 1.42005 37.3687C1.7742 37.7834 2.14854 38.1484 2.54309 38.4621C2.61177 38.5146 2.68179 38.5671 2.75316 38.621C2.82318 38.6735 2.89522 38.7254 2.96861 38.7772C2.98342 38.788 2.99823 38.8008 3.01439 38.8149C3.03055 38.8277 3.04671 38.8391 3.06287 38.8499C3.0521 38.8338 3.03055 38.8095 2.99823 38.7772C2.78278 38.5456 2.55858 38.2992 2.32495 38.0366C2.09199 37.7747 1.8725 37.5047 1.66782 37.2259C1.51565 37.0159 1.35676 36.7863 1.19113 36.5365C1.02617 36.2874 0.877378 36.0235 0.744068 35.7447C0.676066 35.5979 0.621529 35.4505 0.579785 35.303C0.569013 35.2653 0.560933 35.2142 0.555547 35.1495C0.550161 35.0835 0.584498 35.0297 0.657887 34.9879C0.753494 34.9253 0.86122 34.9381 0.981065 35.0256C1.02954 35.0633 1.08004 35.1051 1.13188 35.1495C1.1844 35.1946 1.23085 35.2431 1.27192 35.295C1.36215 35.3993 1.45439 35.5077 1.54932 35.6208C1.64493 35.7339 1.72909 35.8518 1.80248 35.9736C1.80248 35.9736 1.80248 35.973 1.80248 35.9709C1.80248 35.9676 1.80248 35.9656 1.80248 35.9656C1.7917 35.876 1.78295 35.7844 1.77554 35.6909C1.76679 35.5959 1.77285 35.4983 1.7944 35.3973C1.81998 35.2559 1.8799 35.1563 1.97484 35.0984C2.0792 35.025 2.20039 35.0115 2.33841 35.058C2.47509 35.1051 2.59561 35.1576 2.69929 35.2169C2.81443 35.2855 2.92754 35.3589 3.03863 35.4377C3.14838 35.5151 3.26418 35.5905 3.38605 35.6639L3.43183 35.7043C3.41231 35.5791 3.39615 35.4498 3.38335 35.3165C3.36921 35.1818 3.35373 35.0438 3.33757 34.9018C3.30189 34.5288 3.25004 34.1282 3.18137 33.7006C3.11337 33.2717 2.9713 32.8105 2.75585 32.3163C2.72892 32.2537 2.74979 32.2059 2.81779 32.1736ZM4.70838 37.3364C4.5037 36.9903 4.19399 36.6456 3.77925 36.3022C3.79541 36.3399 3.81156 36.3763 3.82772 36.4099C3.84254 36.4443 3.85735 36.4793 3.87351 36.515C3.92602 36.6267 3.97989 36.7385 4.0351 36.8516C4.09098 36.9647 4.14754 37.0765 4.20476 37.1855C4.25728 37.2812 4.32528 37.3714 4.40944 37.4576C4.49428 37.5437 4.58854 37.6165 4.69222 37.6757C4.76629 37.7067 4.80466 37.6972 4.80803 37.6488C4.81005 37.5989 4.79658 37.5397 4.76763 37.471C4.73935 37.401 4.71916 37.3566 4.70838 37.3364Z" fill="#070004"/>
<path d="M2.82571 28.2132C2.85264 28.2025 2.88092 28.2038 2.9092 28.2159C2.93815 28.2287 2.95768 28.2482 2.96845 28.2752C2.97384 28.2806 2.99404 28.329 3.0277 28.4206C3.06204 28.5122 3.10176 28.6253 3.1462 28.7599C3.18929 28.8946 3.23776 29.0367 3.29163 29.1855C3.34414 29.3349 3.39127 29.4709 3.43436 29.5948C3.47611 29.7187 3.5091 29.8123 3.53401 29.8749C3.58249 30.0385 3.6276 30.2001 3.66867 30.3597C3.71041 30.5199 3.74677 30.6842 3.77909 30.8525C3.80602 31.0107 3.8316 31.1777 3.8545 31.3534C3.87806 31.5299 3.87739 31.7029 3.8518 31.8732C3.82487 32.0442 3.7562 32.2031 3.64443 32.3499C3.56027 32.4536 3.45456 32.5041 3.32664 32.5007C3.19737 32.4987 3.06675 32.4691 2.93344 32.4119C2.79878 32.354 2.68971 32.2974 2.60487 32.2395C2.43655 32.1338 2.2891 32.0038 2.1632 31.849C2.03797 31.6948 1.94371 31.5251 1.88042 31.34C1.85349 31.2612 1.84541 31.1723 1.85618 31.0734C1.86695 30.973 1.91745 30.905 2.007 30.8687C2.08442 30.8418 2.15781 30.8485 2.22783 30.8875C2.29651 30.9273 2.35374 30.973 2.4002 31.0249C2.54226 31.1885 2.65537 31.3716 2.73953 31.5743C2.82437 31.7756 2.89775 31.9756 2.96037 32.1749C3.03443 32.1964 3.1159 32.2247 3.20545 32.2583C3.29365 32.2927 3.37444 32.2812 3.44783 32.2233C3.54344 32.1176 3.59999 31.9958 3.6175 31.8571C3.63568 31.717 3.64174 31.5817 3.63635 31.4504C3.60605 31.072 3.53872 30.7004 3.43436 30.3354C3.32866 29.9712 3.21016 29.613 3.07887 29.2609C3.05194 29.1767 3.01558 29.0683 2.96845 28.935C2.91997 28.8003 2.87554 28.6738 2.83379 28.5553C2.7907 28.4368 2.76646 28.3694 2.76108 28.3533C2.73617 28.2907 2.75771 28.2442 2.82571 28.2132ZM2.06086 31.0491C2.06624 31.2484 2.13088 31.4309 2.25477 31.5958C2.37865 31.7615 2.516 31.9049 2.66682 32.0267C2.6042 31.8423 2.52879 31.6618 2.44059 31.4854C2.35105 31.3097 2.22447 31.1643 2.06086 31.0491Z" fill="#070004"/>
<path d="M2.81656 18.0552C2.84349 18.0464 2.87177 18.0485 2.90004 18.0606C2.929 18.0734 2.94852 18.0956 2.95929 18.1279C2.95929 18.1279 2.98757 18.1993 3.04278 18.3407C3.09664 18.4827 3.16599 18.6719 3.25015 18.9089C3.33499 19.1446 3.42117 19.4065 3.5087 19.6953C3.56256 19.8643 3.61508 20.0394 3.6649 20.2205C3.71338 20.4023 3.75647 20.5625 3.79417 20.7026C3.83053 20.8412 3.85342 20.9335 3.86419 20.9799C3.93825 21.2802 3.98942 21.524 4.0177 21.7125C4.04665 21.901 4.06079 22.0511 4.06079 22.1622C4.06079 22.2666 4.05137 22.3427 4.03117 22.3912C4.00962 22.4383 3.98269 22.4746 3.95037 22.5016C3.93623 22.5123 3.91267 22.5218 3.88035 22.5285C3.84803 22.5359 3.79417 22.5251 3.71876 22.4962C3.64335 22.4679 3.53832 22.41 3.40366 22.3238C3.26901 22.2376 3.09126 22.105 2.87042 21.9252C2.96603 22.2504 3.08453 22.5682 3.22592 22.8786C3.36798 23.1897 3.48379 23.5075 3.57333 23.832C3.57872 23.8946 3.58949 23.9653 3.60565 24.0447C3.62046 24.1235 3.59084 24.1821 3.51678 24.2198C3.45416 24.2501 3.39693 24.2454 3.34441 24.2063C3.29257 24.1666 3.24477 24.1289 3.20168 24.0932C3.0347 23.9404 2.87244 23.7808 2.71422 23.6138C2.55667 23.4455 2.4146 23.2658 2.2887 23.0752C2.24763 23.0288 2.23753 22.9729 2.25908 22.9082C2.27927 22.8423 2.32842 22.8268 2.4072 22.8625C2.54926 23.0584 2.69941 23.2469 2.85695 23.428C3.01316 23.6078 3.18417 23.7761 3.36865 23.9343C3.27372 23.5883 3.14983 23.253 2.997 22.9298C2.84484 22.6066 2.72701 22.2693 2.6442 21.9172C2.62265 21.8545 2.61726 21.7838 2.62804 21.7044C2.63881 21.6256 2.68863 21.5859 2.77616 21.5859C2.79771 21.5859 2.82868 21.6007 2.86773 21.629C2.90745 21.6579 2.92698 21.6748 2.92698 21.6802C3.04211 21.7758 3.16061 21.8687 3.28247 21.9603C3.40299 22.0518 3.51139 22.1299 3.60834 22.1946C3.7053 22.2578 3.77801 22.2942 3.82649 22.305C3.84669 22.2457 3.84736 22.1326 3.82918 21.9656C3.81168 21.7973 3.77666 21.5933 3.72415 21.3543C3.67029 21.1159 3.60834 20.8601 3.53832 20.5867C3.46695 20.312 3.38885 20.0441 3.30402 19.7815C3.30402 19.7815 3.28651 19.727 3.25015 19.6172C3.21245 19.5061 3.16532 19.3681 3.10742 19.2025C3.05019 19.0375 2.99027 18.8658 2.92698 18.6881C2.86436 18.509 2.80713 18.3481 2.75461 18.206C2.72768 18.138 2.74856 18.0875 2.81656 18.0552Z" fill="#070004"/>
<path d="M2.82509 12.6834C2.90454 12.6618 2.95167 12.6854 2.96783 12.7534C2.96783 12.7534 2.99341 12.8201 3.04324 12.9527C3.09171 13.084 3.155 13.2597 3.23176 13.4806C3.30717 13.7 3.39065 13.9465 3.48222 14.2212C3.57379 14.4945 3.66738 14.7753 3.76231 15.0641C3.76231 15.0682 3.79597 15.1772 3.86196 15.3927C3.92659 15.6081 3.99796 15.899 4.07471 16.2653C4.15012 16.6302 4.20937 17.0382 4.25246 17.4907C4.25246 17.5842 4.25246 17.6947 4.25246 17.8219C4.25246 17.9478 4.24102 18.071 4.21745 18.1909C4.19254 18.3107 4.14474 18.4104 4.07471 18.4898C4.00335 18.5686 3.8936 18.6083 3.74615 18.6083C3.59399 18.6029 3.45664 18.5787 3.3341 18.5356C3.21021 18.4939 3.0668 18.4238 2.90319 18.3255C2.30532 17.9216 1.77409 17.4395 1.30885 16.8793C0.844282 16.3191 0.459161 15.7145 0.153489 15.0641C0.112418 14.9584 0.0747143 14.8507 0.0403766 14.741C0.00671215 14.6299 -0.00608018 14.5167 0.00267251 14.4016C0.00805881 14.3282 0.0450897 14.269 0.113092 14.2239C0.181767 14.1794 0.252462 14.1727 0.32585 14.205C0.484073 14.2629 0.621424 14.3545 0.737902 14.4797C0.853034 14.6056 0.96278 14.7295 1.06647 14.8514C1.45091 15.3456 1.79294 15.8653 2.09256 16.4107C2.39284 16.9567 2.68909 17.5028 2.9813 18.0481C3.20752 18.2218 3.4526 18.3323 3.71653 18.3794C3.8155 18.4063 3.88754 18.3828 3.93198 18.3094C3.97709 18.2353 4.00671 18.1424 4.02085 18.0293C4.03364 17.9162 4.03701 17.8078 4.03162 17.7034C4.02624 17.5977 4.02354 17.527 4.02354 17.4907C3.99123 17.2321 3.95756 16.9938 3.9212 16.7743C3.8835 16.5534 3.83906 16.3245 3.78655 16.0875C3.7347 15.8505 3.66536 15.5839 3.57917 15.2877C3.49165 14.9914 3.3819 14.6453 3.25061 14.2481C3.11999 13.8515 2.95638 13.3775 2.76046 12.8261C2.73555 12.7615 2.75709 12.7144 2.82509 12.6834ZM0.452428 15.1665C0.715011 15.6748 1.02472 16.1549 1.38156 16.6073C1.73908 17.0598 2.14373 17.4624 2.59618 17.8138C2.37534 17.3775 2.14507 16.9466 1.90404 16.5211C1.66165 16.0956 1.39907 15.6829 1.11494 15.2823C0.989712 15.1153 0.857747 14.9497 0.71905 14.784C0.579006 14.6171 0.411358 14.4871 0.215431 14.3935C0.220818 14.5302 0.246403 14.6629 0.290839 14.7921C0.33595 14.92 0.389813 15.0446 0.452428 15.1665Z" fill="#070004"/>
<path d="M1.76953 11.975C1.77492 11.8855 1.80589 11.8424 1.8611 11.8457C1.91496 11.8478 1.96344 11.874 2.00653 11.9238C2.04827 11.9743 2.04827 12.0255 2.00653 12.0774C1.96344 12.1299 1.91631 12.138 1.86379 12.1016C1.81195 12.0639 1.7803 12.0221 1.76953 11.975ZM2.82525 9.40575C2.88853 9.37882 2.93566 9.40037 2.96798 9.47039C2.96798 9.47039 2.98414 9.5155 3.01646 9.60505C3.04743 9.69325 3.08379 9.8003 3.12688 9.92553C3.16862 10.0514 3.21171 10.1787 3.25615 10.308C3.29924 10.4372 3.33694 10.545 3.36926 10.6311C3.40023 10.7173 3.41505 10.7604 3.41505 10.7604C3.46891 10.9348 3.5322 11.1442 3.60357 11.3879C3.67359 11.6323 3.73418 11.8794 3.78401 12.1285C3.83248 12.3783 3.85672 12.5971 3.85672 12.7857C3.85672 12.8806 3.83989 12.9829 3.80555 13.0927C3.77189 13.2038 3.69177 13.265 3.56586 13.2758C3.46554 13.2812 3.35243 13.2495 3.22653 13.1815C3.10129 13.1129 2.97808 13.028 2.85756 12.9257C2.7357 12.8234 2.62865 12.7251 2.53708 12.6295C2.44551 12.5345 2.38357 12.4692 2.35125 12.4329C2.33173 12.4113 2.32163 12.3864 2.32163 12.3574C2.32163 12.3292 2.33442 12.3036 2.35933 12.282C2.38088 12.2551 2.40781 12.2437 2.44013 12.247C2.4711 12.249 2.49668 12.2632 2.51823 12.2901C2.58152 12.3534 2.66568 12.4355 2.77138 12.5379C2.87574 12.6402 2.98616 12.7372 3.10264 12.8287C3.21777 12.9217 3.32079 12.989 3.41235 13.0307C3.50392 13.0718 3.56586 13.0691 3.59818 13.0227C3.63454 12.9594 3.64531 12.8368 3.6305 12.6537C3.61434 12.4692 3.57865 12.2538 3.52277 12.0073C3.46756 11.7596 3.40293 11.5051 3.32886 11.2425C3.25548 10.9806 3.17939 10.7389 3.09995 10.518C3.09995 10.5126 3.08042 10.4534 3.0407 10.3403C3.00165 10.2272 2.95452 10.0945 2.90065 9.94169C2.84544 9.78953 2.79697 9.65824 2.75522 9.54849C2.73368 9.46972 2.75724 9.42191 2.82525 9.40575Z" fill="#070004"/>
<path d="M2.56851 0.00537968C2.59544 -0.00337301 2.62372 -0.00135311 2.652 0.010766C2.68095 0.0235585 2.70047 0.0457769 2.71125 0.0780947C2.71125 0.0780947 2.73953 0.149463 2.79473 0.290854C2.8486 0.432917 2.91795 0.622111 3.00211 0.859108C3.08694 1.09476 3.17312 1.35667 3.26065 1.64551C3.31451 1.8145 3.36703 1.98956 3.41685 2.17067C3.46533 2.35246 3.50842 2.5127 3.54612 2.65275C3.58248 2.79144 3.60537 2.88368 3.61615 2.93014C3.69021 3.23043 3.74138 3.47416 3.76965 3.66268C3.79861 3.8512 3.81275 4.00134 3.81275 4.11243C3.81275 4.21679 3.80332 4.29287 3.78312 4.34135C3.76158 4.38848 3.73464 4.42484 3.70233 4.45177C3.68819 4.46254 3.66462 4.47197 3.6323 4.4787C3.59999 4.48611 3.54612 4.47533 3.47072 4.44638C3.39531 4.4181 3.29027 4.3602 3.15562 4.27402C3.02096 4.18784 2.84321 4.0552 2.62237 3.87544C2.71798 4.20063 2.83648 4.51842 2.97787 4.82881C3.11993 5.13987 3.23574 5.45766 3.32529 5.78219C3.33067 5.8448 3.34144 5.9155 3.3576 5.99494C3.37242 6.07372 3.34279 6.13229 3.26873 6.17C3.20611 6.2003 3.14888 6.19558 3.09637 6.15653C3.04452 6.11681 2.99672 6.0791 2.95363 6.04342C2.78666 5.89058 2.62439 5.73101 2.46617 5.56404C2.30862 5.39572 2.16656 5.21595 2.04065 5.02541C1.99958 4.97895 1.98948 4.92307 2.01103 4.85843C2.03123 4.79245 2.08038 4.77697 2.15915 4.81265C2.30122 5.00858 2.45136 5.1971 2.60891 5.37821C2.76511 5.55798 2.93613 5.7263 3.12061 5.88452C3.02567 5.53845 2.90179 5.20316 2.74895 4.87998C2.59679 4.5568 2.47896 4.21949 2.39615 3.86736C2.3746 3.80474 2.36922 3.73404 2.37999 3.6546C2.39076 3.57582 2.44059 3.5361 2.52811 3.5361C2.54966 3.5361 2.58063 3.55091 2.61968 3.57919C2.6594 3.60814 2.67893 3.62497 2.67893 3.63036C2.79406 3.72597 2.91256 3.81888 3.03443 3.91045C3.15494 4.00201 3.26334 4.08011 3.3603 4.14475C3.45725 4.20804 3.52996 4.2444 3.57844 4.25517C3.59864 4.19592 3.59931 4.08281 3.58113 3.91583C3.56363 3.74751 3.52862 3.5435 3.4761 3.30449C3.42224 3.06614 3.3603 2.81029 3.29027 2.53694C3.21891 2.26224 3.1408 1.99427 3.05597 1.73169C3.05597 1.73169 3.03846 1.67715 3.00211 1.56741C2.9644 1.45631 2.91727 1.31829 2.85937 1.15266C2.80214 0.987706 2.74222 0.816018 2.67893 0.63827C2.61631 0.459175 2.55908 0.29826 2.50657 0.156196C2.47964 0.0881941 2.50051 0.0376975 2.56851 0.00537968Z" fill="#070004"/>
</svg>
