<svg width="89" height="61" viewBox="0 0 89 61" fill="none" xmlns="http://www.w3.org/2000/svg">
<mask id="mask0_2008_8322" style="mask-type:luminance" maskUnits="userSpaceOnUse" x="0" y="8" width="85" height="53">
<path d="M0.707031 8.96533H84.4747V60.5014H0.707031V8.96533Z" fill="white"/>
</mask>
<g mask="url(#mask0_2008_8322)">
<mask id="mask1_2008_8322" style="mask-type:luminance" maskUnits="userSpaceOnUse" x="-36" y="8" width="127" height="55">
<path d="M-35.082 36.6501L84.4143 8.58618L90.4699 34.3724L-29.0265 62.4364L-35.082 36.6501Z" fill="white"/>
</mask>
<g mask="url(#mask1_2008_8322)">
<mask id="mask2_2008_8322" style="mask-type:luminance" maskUnits="userSpaceOnUse" x="-36" y="8" width="127" height="55">
<path d="M-35.082 36.6501L84.4143 8.58618L90.4699 34.3724L-29.0265 62.4364L-35.082 36.6501Z" fill="white"/>
</mask>
<g mask="url(#mask2_2008_8322)">
<path d="M-1.74972 44.5323C0.542826 41.4776 2.9027 38.4802 5.80524 35.9735C8.17454 33.9301 10.6825 32.121 13.948 31.8173C15.6238 31.6604 17.1865 31.9473 18.5809 32.9653C19.0508 33.31 19.0414 33.549 18.6596 33.9981C17.6995 35.1279 17.002 36.3916 17.0747 37.9543C17.1245 39.0242 17.9648 39.6571 19.0003 39.3817C19.7187 39.1911 20.1173 38.6619 20.3772 38.0284C20.967 36.599 20.765 35.2167 19.9651 33.9314C19.7241 33.5436 19.7409 33.3847 20.1086 33.0831C22.3169 31.2814 24.8976 30.2674 27.5955 29.5436C32.2021 28.3088 36.8869 27.4625 41.6389 26.9865C44.6351 26.6855 47.6197 26.2762 50.6152 25.9866C53.8732 25.6736 57.1084 25.2433 60.5549 24.4037C61.5561 24.1088 62.8461 23.8604 64.1018 23.443C66.2799 22.7219 68.4028 21.891 70.3924 20.7512C74.0126 18.6754 77.2222 16.0503 80.2735 13.2231C81.5393 12.0489 82.7963 10.8626 84.0466 9.6675C84.2021 9.51938 84.5664 9.34163 84.3348 9.08511C84.0473 8.76597 83.8796 9.20024 83.6904 9.3349C83.4521 9.50254 83.2569 9.73618 83.0468 9.94355C79.9173 13.007 76.7556 16.0213 73.1623 18.5589C70.0577 20.7505 66.6745 22.2667 63.0522 23.3817C59.7551 24.3957 56.3752 24.8925 52.9892 25.3773C50.8206 25.6877 48.6209 25.7739 46.4462 26.0344C44.0937 26.3172 41.7352 26.5603 39.3861 26.8781C36.4842 27.2679 33.5992 27.7385 30.7357 28.3378C29.2996 28.6367 27.8857 29.0178 26.4886 29.4689C24.3974 30.1449 22.3809 30.9643 20.5758 32.2408C20.2136 32.4973 19.918 32.9316 19.5275 33.0319C19.0542 33.1511 18.8111 32.5546 18.4213 32.3216C15.9544 30.8505 13.4141 31.1797 10.9269 32.129C8.60746 33.0144 6.6859 34.563 4.86466 36.2354C1.66991 39.1703 -0.887236 42.6384 -3.46054 46.0944C-5.59149 48.9565 -7.70427 51.8328 -10.3011 54.3112C-13.879 57.7247 -18.0271 59.8321 -23.0694 59.818C-25.8871 59.8099 -28.189 58.7764 -29.5417 56.1607C-30.0507 55.1743 -30.5624 54.1455 -29.91 53.0036C-29.8251 52.8528 -29.817 52.7148 -29.9894 52.63C-30.1409 52.5539 -30.283 52.5983 -30.39 52.7215C-30.7065 53.079 -30.8014 53.5207 -30.7509 53.9691C-30.5025 56.1055 -29.4858 57.8116 -27.7137 59.0161C-25.3935 60.5902 -22.7852 60.4839 -20.1971 60.0557C-16.7001 59.4773 -13.6689 57.8769 -11.0034 55.5547C-7.34272 52.3633 -4.6361 48.3721 -1.75308 44.5303L-1.74972 44.5323ZM19.3814 33.7766C20.1591 34.9912 20.5347 36.2401 20.0594 37.6399C20.0298 37.7315 20.0143 37.8304 19.9752 37.9186C19.6312 38.6916 18.8394 39.2039 18.2563 39.0417C17.717 38.8902 17.3716 38.1731 17.4901 37.2985C17.6746 35.9042 18.3883 34.7784 19.3841 33.7759L19.3814 33.7766Z" fill="#AF733A"/>
</g>
</g>
</g>
<mask id="mask3_2008_8322" style="mask-type:luminance" maskUnits="userSpaceOnUse" x="78" y="0" width="11" height="15">
<path d="M78.6152 0.519531H88.2675V14.3085H78.6152V0.519531Z" fill="white"/>
</mask>
<g mask="url(#mask3_2008_8322)">
<mask id="mask4_2008_8322" style="mask-type:luminance" maskUnits="userSpaceOnUse" x="78" y="-1" width="11" height="16">
<path d="M79.7794 -0.203613L88.4083 0.494586L87.2421 14.9184L78.6133 14.2209L79.7794 -0.203613Z" fill="white"/>
</mask>
<g mask="url(#mask4_2008_8322)">
<mask id="mask5_2008_8322" style="mask-type:luminance" maskUnits="userSpaceOnUse" x="78" y="-1" width="11" height="16">
<path d="M79.7794 -0.203613L88.4083 0.494586L87.2421 14.9184L78.6133 14.2209L79.7794 -0.203613Z" fill="white"/>
</mask>
<g mask="url(#mask5_2008_8322)">
<path d="M88.1855 1.64719C88.1249 1.30247 87.9236 0.922059 87.6152 0.736905C87.0147 0.381409 86.3064 0.735558 85.862 1.1806C85.5853 1.45867 85.3469 1.78185 85.1322 2.10974C84.9026 2.4585 84.6992 2.82612 84.5114 3.20046C84.3175 3.58491 84.1444 3.97946 83.9903 4.38141C83.9344 3.81383 83.797 3.25837 83.5062 2.75475C83.3607 2.50496 83.1864 2.26729 82.9884 2.05789C82.8275 1.89025 82.6504 1.73 82.4437 1.6216C82.2741 1.53071 82.0862 1.46338 81.8923 1.46944C81.6903 1.4755 81.5025 1.54552 81.3483 1.67681C80.9834 1.98989 80.8662 2.5164 80.8076 2.96953C80.7275 3.6179 80.6992 4.27301 80.7268 4.92677C80.7538 5.57784 80.7989 6.25517 80.8945 6.91432C80.9887 7.56 81.1248 8.20097 81.2917 8.82982C81.4594 9.45934 81.6607 10.0774 81.9159 10.678C81.9765 10.8187 82.0397 10.9534 82.1057 11.0914C81.7341 11.4893 81.3597 11.8872 80.9773 12.2757C80.4057 12.8534 79.7923 13.4062 79.1278 13.8741C78.9729 13.9832 78.8174 14.0895 78.6551 14.1865C78.6174 14.2087 78.643 14.2659 78.6834 14.2471C79.4415 13.9219 80.0919 13.3913 80.7019 12.8446C81.0089 12.5679 81.3133 12.2892 81.6149 12.0044C81.8304 11.8037 82.0478 11.6085 82.2653 11.4105C82.2889 11.457 82.3124 11.5055 82.3367 11.5519C82.4787 11.8394 82.6188 12.1269 82.7837 12.405C82.8228 12.4716 82.8645 12.539 82.9029 12.6056C82.9446 12.675 82.9972 12.743 83.0328 12.815C83.0679 12.8864 83.1803 12.8318 83.1446 12.7605C83.0786 12.6224 83.0355 12.4669 82.9783 12.3242C82.9184 12.1787 82.8558 12.0326 82.7871 11.8892C82.6807 11.6677 82.577 11.4442 82.4794 11.218C82.5124 11.1877 82.5447 11.1601 82.575 11.1291C82.9063 10.8248 83.2348 10.5198 83.558 10.206C83.8879 9.88755 84.2118 9.56572 84.5134 9.22302C85.0877 8.56791 85.5954 7.86096 86.0869 7.14121C86.5629 6.44773 87.0046 5.73 87.3567 4.96582C87.5371 4.57397 87.6913 4.17269 87.8152 3.76266C87.9135 3.44217 88.0165 3.119 88.0953 2.7938C88.1808 2.42282 88.2508 2.03096 88.1855 1.64719ZM87.5782 2.36289C87.5715 2.40666 87.5627 2.44705 87.554 2.49082C87.5499 2.50698 87.5486 2.52044 87.5445 2.53727C87.5412 2.54737 87.5398 2.55882 87.5365 2.57229C87.5156 2.65577 87.4947 2.73993 87.4718 2.82342C87.4281 2.98568 87.3796 3.14458 87.3304 3.30684C87.218 3.6758 87.1056 4.03938 86.9608 4.39757C86.8847 4.58474 86.8033 4.77192 86.7137 4.95505C86.6706 5.04796 86.6248 5.13818 86.5784 5.2284C86.5757 5.23379 86.5716 5.24187 86.5683 5.24995C86.569 5.24726 86.5716 5.24456 86.5716 5.24187C86.5615 5.26611 86.5461 5.28967 86.536 5.31055C86.5131 5.35296 86.4902 5.39807 86.4673 5.44049C86.2734 5.79464 86.0633 6.13667 85.8425 6.47533C85.386 7.17286 84.9181 7.8724 84.3929 8.5228C84.1229 8.85742 83.8401 9.18262 83.5594 9.50782C83.5257 9.5462 83.4893 9.58794 83.4563 9.62632C83.4409 9.6445 83.4227 9.662 83.4072 9.68018C83.3984 9.69095 83.3924 9.69836 83.383 9.70913C83.3796 9.71384 83.3405 9.75491 83.3554 9.7428C83.2887 9.81416 83.2187 9.89698 83.1527 9.96633C83.0039 10.1252 82.8558 10.2848 82.7077 10.4437C82.5784 10.5797 82.4511 10.7184 82.3212 10.8571C82.1104 10.3488 81.9004 9.84581 81.7529 9.31189C81.4223 8.10603 81.2035 6.84564 81.1416 5.60343C81.1093 4.9739 81.1328 4.3464 81.186 3.71822C81.2136 3.41389 81.2412 3.10418 81.3012 2.80524C81.3018 2.79986 81.3059 2.7837 81.3065 2.77562C81.3072 2.77023 81.3099 2.76485 81.3106 2.75609C81.3187 2.72916 81.3234 2.69954 81.3315 2.67261C81.3469 2.61268 81.3658 2.5568 81.384 2.50024C81.4021 2.44907 81.4197 2.4006 81.4425 2.35279C81.4526 2.33462 81.4594 2.31576 81.4695 2.29691C81.4755 2.28681 81.4789 2.27873 81.4856 2.26796C81.5079 2.23093 81.5307 2.19121 81.5583 2.15754C81.5671 2.14475 81.5799 2.12926 81.5893 2.11647C81.5893 2.11647 81.5947 2.11108 81.5981 2.103C81.6014 2.10031 81.6041 2.09829 81.6075 2.0956C81.6344 2.07001 81.658 2.04712 81.6876 2.0249C81.6903 2.02221 81.6937 2.01952 81.6991 2.0175C81.7139 2.01009 81.7253 2.00268 81.7395 1.99595C81.7543 1.98855 81.7684 1.98181 81.7826 1.9771C81.8135 1.97104 81.8472 1.96565 81.8775 1.96027C81.8943 1.96161 81.9112 1.95959 81.9273 1.96094C81.9468 1.96296 81.9657 1.96431 81.9845 1.96835C81.9872 1.96902 81.9899 1.96902 81.9933 1.96902C82.0283 1.98047 82.0606 1.98855 82.095 2.00268C82.1165 2.00942 82.1354 2.01952 82.1535 2.02894C82.1616 2.03298 82.167 2.03568 82.1697 2.03635C82.2545 2.08146 82.3326 2.13734 82.408 2.19861C82.4289 2.21746 82.4491 2.23564 82.4727 2.25382C82.4754 2.25382 82.4754 2.25651 82.4774 2.25988C82.4801 2.26257 82.4855 2.26594 82.4875 2.27133C82.5312 2.31374 82.5743 2.35885 82.6181 2.40396C82.709 2.50226 82.7918 2.60528 82.8719 2.71435C82.8915 2.74061 82.9117 2.76687 82.9285 2.79312C82.9359 2.80524 82.946 2.81669 82.9534 2.82881C82.9534 2.82881 82.9655 2.84901 82.9736 2.85776C82.9803 2.86921 82.9877 2.88065 82.9877 2.88065C82.9951 2.89277 83.0026 2.90422 83.01 2.91566C83.0295 2.94798 83.049 2.98232 83.0679 3.01733C83.1305 3.13246 83.187 3.25298 83.2348 3.37619C83.247 3.40447 83.2584 3.43275 83.2692 3.46439C83.2766 3.48122 83.2806 3.49536 83.2874 3.51287C83.29 3.51825 83.2921 3.52701 83.2941 3.53239C83.3143 3.59232 83.3311 3.65426 83.3486 3.7162C83.3823 3.84345 83.4106 3.97272 83.4301 4.10401C83.453 4.23598 83.4698 4.3666 83.4813 4.50058C83.4873 4.56454 83.4934 4.62581 83.4934 4.6891C83.4907 4.62245 83.4954 4.73084 83.4941 4.747C83.4941 4.78336 83.4967 4.81635 83.4967 4.85204C83.5028 5.12068 83.492 5.38797 83.4732 5.65392C83.4631 5.78589 83.4496 5.91448 83.4335 6.04578C83.4173 6.17976 83.5203 6.30095 83.6455 6.32788C83.7701 6.35481 83.9135 6.28883 83.9546 6.15956C84.1875 5.42433 84.4373 4.6992 84.7511 3.99562C84.8319 3.8145 84.9154 3.63608 85.0036 3.46103C85.0137 3.43948 85.0238 3.4213 85.0339 3.39976C85.0406 3.38629 85.0467 3.3735 85.0534 3.36003C85.0568 3.35195 85.0729 3.323 85.0763 3.31761C85.0891 3.29136 85.1052 3.2651 85.1187 3.23817C85.1638 3.15333 85.2096 3.06917 85.2574 2.98703C85.4506 2.65173 85.662 2.32384 85.899 2.0175C85.9549 1.94478 86.0128 1.87476 86.0714 1.80205C86.1017 1.76838 86.1293 1.73202 86.1596 1.69903C86.163 1.69634 86.1657 1.69365 86.169 1.69095C86.1805 1.67816 86.1926 1.66537 86.2047 1.65258C86.307 1.54754 86.4228 1.45463 86.5427 1.36777C86.5575 1.35835 86.5716 1.35094 86.5865 1.34084C86.6181 1.32132 86.6497 1.30449 86.6848 1.28833C86.713 1.27419 86.7393 1.26207 86.7676 1.24793C86.7851 1.2412 86.8019 1.23446 86.8167 1.22706C86.8221 1.22504 86.8362 1.22032 86.8477 1.21561C86.8538 1.21359 86.8564 1.21359 86.8591 1.21427C86.8733 1.20955 86.8874 1.20551 86.9016 1.20349C86.9352 1.19541 86.9662 1.18935 86.9992 1.18397C87.0133 1.18262 87.0248 1.1806 87.0382 1.17858C87.0631 1.17791 87.0881 1.17993 87.1157 1.18262C87.1318 1.18329 87.146 1.18464 87.1621 1.18868C87.1648 1.18935 87.1675 1.18935 87.1702 1.18935C87.1756 1.19003 87.181 1.19339 87.1837 1.19339C87.1998 1.19743 87.2133 1.20417 87.2294 1.20821C87.2402 1.21157 87.251 1.21831 87.2645 1.22167C87.2874 1.24052 87.3143 1.25332 87.3378 1.26947C87.3453 1.27553 87.3533 1.28159 87.3614 1.28765C87.3863 1.31459 87.4092 1.34152 87.4321 1.36777C87.4395 1.3772 87.4469 1.38865 87.4543 1.3974C87.457 1.40346 87.4617 1.40615 87.4644 1.41221C87.486 1.44992 87.5082 1.48762 87.5237 1.52734C87.5425 1.56774 87.5587 1.60747 87.5722 1.64719C87.5762 1.66402 87.5809 1.68085 87.5849 1.69769C87.593 1.73472 87.5984 1.76838 87.6038 1.80474C87.6078 1.82426 87.6092 1.84379 87.6099 1.86533C87.6099 1.8687 87.6092 1.87139 87.6092 1.87139C87.6213 2.03231 87.6051 2.19928 87.5782 2.36289Z" fill="#AF733A"/>
</g>
</g>
</g>
</svg>
