<svg width="25" height="6" viewBox="0 0 25 6" fill="none" xmlns="http://www.w3.org/2000/svg">
<path d="M7.11794 3.41761C7.15026 3.50379 7.12602 3.56034 7.04523 3.58727C7.03782 3.58727 6.9577 3.61825 6.80554 3.67884C6.65472 3.73809 6.45139 3.81619 6.19689 3.91314C5.94171 4.0101 5.65422 4.11782 5.33508 4.23632C5.01527 4.35347 4.68401 4.47197 4.34131 4.59182C4.34131 4.59182 4.29418 4.6073 4.20126 4.6376C4.1097 4.66857 3.98985 4.70628 3.84308 4.75071C3.69764 4.79582 3.54818 4.84093 3.39601 4.88537C3.24318 4.92846 3.11121 4.96347 3.00012 4.9904C2.8796 5.01195 2.74764 5.03013 2.60423 5.04427C2.46014 5.05706 2.3376 5.01734 2.23526 4.92577C2.17063 4.86517 2.14639 4.79111 2.16255 4.70493C2.18006 4.61875 2.20362 4.54536 2.23257 4.48409C2.33491 4.28143 2.45745 4.09561 2.60153 3.92661C2.74494 3.75627 2.89037 3.58458 3.03782 3.41222C2.32683 3.57246 1.64883 3.83504 1.0045 4.20131C0.9439 4.24844 0.866472 4.27268 0.772885 4.27403C0.677951 4.27605 0.631494 4.22016 0.632841 4.10705C0.772885 3.81485 0.954672 3.55159 1.17686 3.31796C1.39904 3.08298 1.62729 2.85945 1.86092 2.64736C1.91613 2.59552 1.97201 2.58004 2.02789 2.60158C2.08512 2.62313 2.11811 2.6716 2.12754 2.74701C1.95518 2.92476 1.7781 3.10116 1.59699 3.27487C1.4152 3.44925 1.24957 3.63844 1.09876 3.84312C1.42193 3.67615 1.75117 3.53004 2.08714 3.40414C2.42244 3.27891 2.76851 3.18869 3.124 3.13482C3.2223 3.10655 3.29771 3.13752 3.35023 3.22909C3.40207 3.31931 3.39467 3.39875 3.32868 3.46878C3.17046 3.67884 3.00079 3.88352 2.81968 4.08281C2.63991 4.28211 2.50323 4.51102 2.41032 4.76957C2.66146 4.78236 2.90653 4.75341 3.14555 4.68339C3.38591 4.61202 3.62358 4.542 3.85923 4.47332C3.92185 4.45379 3.98447 4.43494 4.04775 4.41676C4.11037 4.39926 4.17231 4.37637 4.23358 4.34944C4.61938 4.21478 5.04018 4.06396 5.49667 3.89699C5.95248 3.73001 6.43523 3.5462 6.94558 3.34489C7.02099 3.31257 7.07822 3.33681 7.11794 3.41761Z" fill="#AF733A"/>
<path d="M11.8438 3.30458C11.8559 3.33555 11.8545 3.36854 11.8384 3.40423C11.8236 3.43857 11.8013 3.46213 11.771 3.47425C11.7636 3.47964 11.7064 3.50522 11.5987 3.54966C11.4909 3.59275 11.3576 3.64325 11.2001 3.70048C11.0419 3.75838 10.8742 3.82032 10.6965 3.8863C10.5187 3.95296 10.3571 4.01288 10.2117 4.06674C10.0663 4.12061 9.95585 4.1637 9.88045 4.19602C9.68789 4.2593 9.49667 4.31721 9.30681 4.37107C9.11627 4.42493 8.92169 4.47341 8.72239 4.5165C8.53522 4.55286 8.33727 4.58787 8.12721 4.62153C7.91849 4.65385 7.71246 4.65654 7.50778 4.62961C7.3031 4.60268 7.11054 4.52593 6.93145 4.398C6.8042 4.30105 6.74023 4.17649 6.74023 4.02365C6.74023 3.86947 6.7739 3.71125 6.83988 3.54966C6.90452 3.38807 6.96915 3.25611 7.03379 3.15377C7.15565 2.94909 7.30714 2.77067 7.48893 2.61783C7.67004 2.46365 7.86934 2.34582 8.08681 2.26503C8.17838 2.23136 8.28408 2.21924 8.4046 2.23002C8.52445 2.23944 8.60726 2.29667 8.65237 2.40238C8.68603 2.49394 8.67998 2.58215 8.63352 2.66631C8.58841 2.74912 8.53656 2.81847 8.47732 2.87368C8.28476 3.05008 8.0693 3.1908 7.83096 3.2965C7.59194 3.40086 7.35495 3.4931 7.11997 3.5739C7.0964 3.66412 7.06476 3.76242 7.02571 3.87014C6.988 3.97787 7.00551 4.07482 7.07688 4.161C7.20615 4.27075 7.35293 4.33471 7.51855 4.35222C7.68553 4.3704 7.84712 4.37376 8.00332 4.36299C8.45375 4.31653 8.89543 4.22497 9.32835 4.08829C9.7606 3.95228 10.1854 3.80147 10.6022 3.63584C10.7005 3.60016 10.8291 3.55235 10.9873 3.4931C11.1449 3.43251 11.293 3.3746 11.4317 3.32074C11.5717 3.26688 11.6512 3.23725 11.6714 3.23187C11.7468 3.19955 11.804 3.22379 11.8438 3.30458ZM8.43961 2.4724C8.20059 2.48519 7.98447 2.56801 7.79056 2.72017C7.59666 2.87099 7.42968 3.03931 7.28964 3.22379C7.50644 3.14299 7.71852 3.04739 7.92522 2.93562C8.13327 2.82453 8.30495 2.67035 8.43961 2.4724Z" fill="#AF733A"/>
<path d="M19.1078 3.11931C19.1414 3.20751 19.1172 3.26474 19.0351 3.29167C19.0351 3.29167 18.9583 3.32264 18.8062 3.38324C18.6553 3.44249 18.452 3.52059 18.1975 3.61754C17.9423 3.71449 17.6575 3.82222 17.3438 3.94072C17.0314 4.05787 16.7122 4.17368 16.3877 4.28813C16.2975 4.31507 16.2086 4.34604 16.1211 4.3797C16.0329 4.41202 15.946 4.44434 15.8598 4.47665C15.6101 4.56688 15.3811 4.64498 15.1731 4.71096C14.9644 4.77761 14.786 4.81263 14.6372 4.81599C14.4486 4.82138 14.3147 4.76954 14.2359 4.65979C14.1531 4.55408 14.1423 4.42818 14.2036 4.28275C14.2662 4.13732 14.3651 3.9865 14.4998 3.8303C14.6345 3.67275 14.7678 3.53001 14.9011 3.40209C15.0357 3.27282 15.1313 3.17317 15.1893 3.10315C15.1515 3.10315 15.0627 3.13008 14.9226 3.18394C14.7826 3.23646 14.625 3.2984 14.4513 3.36977C14.2769 3.43979 14.116 3.50847 13.9693 3.57445C13.8238 3.64111 13.7242 3.68958 13.6703 3.71988C13.5518 3.78654 13.4367 3.85588 13.3256 3.92725C13.2138 3.99929 13.0926 4.05854 12.962 4.105C12.8987 4.13193 12.8388 4.12116 12.7816 4.07268C12.7257 4.02286 12.7095 3.9663 12.7331 3.90301C12.7614 3.78856 12.8031 3.67814 12.857 3.57176C12.9108 3.46403 12.9634 3.35563 13.0159 3.24589C12.7479 3.3287 12.5001 3.44518 12.2726 3.596C12.0443 3.74547 11.8026 3.86666 11.5481 3.95957C11.4478 3.969 11.3885 3.92995 11.3704 3.84377C11.3529 3.75624 11.3677 3.67948 11.4161 3.61485C11.5259 3.43037 11.641 3.25127 11.7609 3.07891C11.8827 2.90655 12.0201 2.74698 12.1729 2.59953C12.1978 2.55509 12.2335 2.53489 12.2807 2.54028C12.3271 2.54567 12.3648 2.56587 12.3938 2.59953C12.4241 2.63387 12.4241 2.67628 12.3938 2.72611C12.282 2.86077 12.1716 2.99744 12.0625 3.13547C11.9548 3.27214 11.8524 3.4169 11.7555 3.56906C11.9548 3.46538 12.1487 3.35765 12.3372 3.24589C12.5257 3.13479 12.725 3.05467 12.9351 3.0062C13.0105 2.97926 13.0859 2.98128 13.1613 3.01158C13.2381 3.04053 13.2906 3.0944 13.3175 3.17317C13.2993 3.2809 13.2637 3.38256 13.2098 3.4775C13.1573 3.5731 13.1074 3.6714 13.059 3.77374C13.4609 3.52463 13.8669 3.31052 14.2763 3.13277C14.3173 3.11325 14.3988 3.07824 14.5214 3.02774C14.6432 2.97792 14.7745 2.93213 14.9146 2.89039C15.0546 2.84932 15.1792 2.83383 15.2889 2.84461C15.398 2.85403 15.4613 2.90857 15.4774 3.00889C15.4916 3.06679 15.4586 3.15095 15.3778 3.26204C15.2983 3.37381 15.1946 3.49635 15.0654 3.63101C14.9374 3.76566 14.8075 3.90167 14.6749 4.03767C14.5887 4.14001 14.522 4.23427 14.4756 4.32045C14.4305 4.40529 14.4217 4.46252 14.4486 4.49281C14.4863 4.54129 14.5658 4.56014 14.6883 4.54937C14.8102 4.53725 14.9536 4.50561 15.1192 4.45511C15.2842 4.40327 15.4505 4.34604 15.6175 4.28275C15.7858 4.21811 15.9359 4.1629 16.0672 4.11577C16.4692 3.97438 16.9108 3.81414 17.3922 3.63639C17.875 3.45864 18.3901 3.26406 18.9381 3.05198C19.0095 3.01831 19.066 3.04053 19.1078 3.11931Z" fill="#AF733A"/>
<path d="M24.7354 2.9974C24.7407 3.01019 24.7434 3.03174 24.7434 3.06204C24.7327 3.11253 24.7057 3.14755 24.6626 3.16707C24.6573 3.16707 24.5953 3.19131 24.4768 3.23979C24.3583 3.28692 24.1994 3.34617 24.0001 3.41753C23.8453 3.47678 23.6453 3.55421 23.3996 3.64914C23.1552 3.74273 22.8966 3.83699 22.6239 3.93193C22.3506 4.02551 22.086 4.10361 21.8295 4.16623C21.5743 4.22952 21.3588 4.26251 21.1831 4.26588C21.07 4.26992 20.9818 4.25645 20.9192 4.22548C20.8236 4.177 20.769 4.10361 20.7549 4.00464C20.7455 3.92923 20.7603 3.8417 20.798 3.74071C20.837 3.63837 20.8936 3.53334 20.9676 3.42561C20.9676 3.42561 20.9946 3.3906 21.0484 3.32058C21.1023 3.25056 21.1642 3.17246 21.2343 3.08628C21.3056 3.0001 21.3662 2.93411 21.4147 2.88698C21.0087 2.99673 20.6148 3.126 20.2324 3.2748C19.85 3.42225 19.4622 3.5495 19.069 3.65722C19.0151 3.67877 18.9525 3.68618 18.8805 3.67877C18.8071 3.67002 18.7458 3.6451 18.6973 3.60336C18.6488 3.56027 18.6367 3.50102 18.6596 3.42561C18.7317 3.25325 18.8401 3.10782 18.9855 2.98932C19.1289 2.86948 19.2683 2.75098 19.4029 2.63383C19.6379 2.45473 19.8944 2.29584 20.1732 2.15714C20.4512 2.0171 20.7414 1.98141 21.0431 2.04941C21.1703 2.07096 21.2774 2.13155 21.3635 2.22985C21.4511 2.32883 21.4908 2.44396 21.482 2.57458C21.5069 2.57458 21.5285 2.57458 21.5467 2.57458C21.5642 2.57458 21.5857 2.5739 21.6113 2.57188C21.649 2.57727 21.7089 2.58737 21.7917 2.60151C21.8739 2.61632 21.9008 2.65739 21.8725 2.72539C21.7379 2.90516 21.6315 3.03982 21.5548 3.12937C21.4793 3.21959 21.3932 3.31519 21.2962 3.41753C21.2026 3.53805 21.1306 3.64645 21.0808 3.7434C21.0303 3.83901 21.0087 3.91173 21.0161 3.96155C21.0175 3.97434 21.0249 3.9831 21.0377 3.98848C21.1057 4.02484 21.2504 4.02013 21.4713 3.97502C21.6934 3.92856 21.9574 3.85921 22.2631 3.76764C22.568 3.67473 22.8811 3.56768 23.203 3.44716C23.5261 3.32731 23.8237 3.20949 24.0971 3.09436C24.0971 3.09436 24.1543 3.07281 24.2694 3.02972C24.3839 2.98663 24.4822 2.94893 24.563 2.91661C24.5953 2.90449 24.629 2.90516 24.6653 2.9193C24.703 2.93411 24.7259 2.9597 24.7354 2.9974ZM21.1831 2.67692C21.2188 2.56381 21.2114 2.47695 21.1616 2.41568C21.1131 2.35307 21.041 2.31536 20.9461 2.30257C20.8525 2.28843 20.7535 2.28776 20.6499 2.29988C20.5475 2.31065 20.462 2.3295 20.394 2.35643C20.1139 2.46416 19.8534 2.61161 19.613 2.79811C19.374 2.98528 19.1531 3.18794 18.9505 3.40676C19.3309 3.30981 19.7025 3.19131 20.0654 3.05127C20.4297 2.91122 20.802 2.78666 21.1831 2.67692ZM21.4767 1.54849C21.4389 1.55051 21.4039 1.53637 21.3716 1.5054C21.3137 1.43942 21.3184 1.37613 21.3851 1.31688L22.0665 0.692067C22.1345 0.634837 22.1971 0.63955 22.255 0.705532C22.2799 0.731117 22.2913 0.761415 22.29 0.797099C22.288 0.831437 22.2711 0.861062 22.2388 0.885973L21.5601 1.50809C21.5346 1.53502 21.5069 1.54849 21.4767 1.54849Z" fill="#AF733A"/>
</svg>
