<svg width="997" height="258" viewBox="0 0 997 258" fill="none" xmlns="http://www.w3.org/2000/svg">
<mask id="mask0_2027_22448" style="mask-type:luminance" maskUnits="userSpaceOnUse" x="609" y="57" width="386" height="107">
<path d="M609.334 57.3333H994.667V164H609.334V57.3333Z" fill="white"/>
</mask>
<g mask="url(#mask0_2027_22448)">
<mask id="mask1_2027_22448" style="mask-type:luminance" maskUnits="userSpaceOnUse" x="610" y="-1" width="386" height="203">
<path d="M995.995 61.802L634.089 201.568L610.188 139.682L972.099 -0.083374L995.995 61.802Z" fill="white"/>
</mask>
<g mask="url(#mask1_2027_22448)">
<mask id="mask2_2027_22448" style="mask-type:luminance" maskUnits="userSpaceOnUse" x="600" y="0" width="397" height="208">
<path d="M624.777 207.182L996.87 63.4896L972.37 0.036438L600.271 143.734L624.777 207.182Z" fill="white"/>
</mask>
<g mask="url(#mask2_2027_22448)">
<mask id="mask3_2027_22448" style="mask-type:luminance" maskUnits="userSpaceOnUse" x="600" y="0" width="396" height="207">
<path d="M625.464 206.922L995.969 63.8385L971.411 0.25L600.906 143.333L625.464 206.922Z" fill="white"/>
</mask>
<g mask="url(#mask3_2027_22448)">
<path d="M854.985 63.2917C855.427 63.125 855.875 62.9896 856.328 62.8698C856.839 62.75 857.344 62.6615 857.86 62.5938C858.443 62.5365 859.037 62.5052 859.625 62.5104C860.188 62.5261 860.75 62.5729 861.307 62.6406C861.948 62.7396 862.578 62.8698 863.198 63.0365C863.854 63.2292 864.495 63.4636 865.125 63.7188C865.86 64.0469 866.573 64.4063 867.266 64.8125C867.875 65.1823 868.453 65.5833 869.011 66.0208C869.542 66.4583 870.047 66.9219 870.537 67.4167C871.078 67.9948 871.583 68.6042 872.063 69.2396C872.094 69.2813 872.125 69.3229 872.156 69.3646C872.151 69.3646 872.151 69.3646 872.151 69.3594C872.651 70.0677 873.104 70.7969 873.526 71.5469C873.932 72.3177 874.297 73.099 874.625 73.9011C874.818 74.4167 874.985 74.9323 875.141 75.4584C873.469 75.625 871.792 75.7292 870.11 75.7136C868.891 75.6875 867.672 75.5938 866.458 75.4323C865.313 75.2604 864.177 75.0365 863.057 74.724C862.203 74.4792 861.365 74.1823 860.537 73.8386C859.636 73.4427 858.766 72.9896 857.917 72.4896C857.052 71.9636 856.219 71.4011 855.427 70.7709C854.943 70.375 854.485 69.9584 854.047 69.5104C853.781 69.224 853.531 68.9219 853.292 68.6094C853.125 68.3698 852.969 68.125 852.823 67.8646C852.724 67.6667 852.625 67.4583 852.537 67.25C852.485 67.099 852.438 66.9479 852.396 66.7969C852.365 66.6615 852.339 66.5313 852.323 66.3906C852.313 66.2917 852.307 66.1927 852.307 66.0938C852.313 65.9896 852.318 65.8854 852.328 65.7865C852.344 65.6979 852.365 65.6094 852.386 65.5208C852.417 65.4375 852.443 65.349 852.479 65.2656C852.521 65.1667 852.568 65.0729 852.62 64.9792C852.682 64.8854 852.74 64.8021 852.802 64.7188C852.896 64.6094 852.995 64.5104 853.094 64.4115C853.214 64.2969 853.339 64.1927 853.469 64.0938C853.672 63.9531 853.88 63.8229 854.094 63.6979C854.386 63.5469 854.682 63.4167 854.985 63.2917ZM763.771 82.0104C761.891 83.974 760.787 86.6354 760.656 89.3438C760.604 90.5521 760.958 91.7344 761.485 92.8073C761.787 93.4167 762.13 94.0209 762.557 94.5521C763.016 95.125 763.526 95.6406 764.073 96.1302C765.25 97.1927 766.62 97.9948 768.021 98.724C769.557 99.5156 771.156 100.188 772.766 100.807C776.151 102.109 779.636 103.135 783.12 104.156C786.453 105.125 789.802 106.078 793.016 107.422C794.146 107.917 795.24 108.458 796.302 109.083C796.985 109.505 797.646 109.953 798.276 110.443C798.271 110.438 798.261 110.432 798.25 110.422C798.261 110.432 798.276 110.443 798.287 110.453C798.323 110.484 798.365 110.51 798.401 110.542C798.37 110.521 798.339 110.495 798.307 110.469C798.828 110.891 799.318 111.333 799.792 111.807C800.198 112.229 800.578 112.672 800.932 113.135C801.255 113.583 801.547 114.042 801.823 114.521C802.026 114.906 802.214 115.297 802.386 115.698C802.531 116.115 802.667 116.526 802.776 116.953C802.88 117.401 802.958 117.844 803.026 118.297C803.068 118.755 803.099 119.208 803.11 119.672C803.099 119.99 803.078 120.302 803.052 120.62C803.005 120.911 802.943 121.198 802.87 121.49C802.771 121.781 802.667 122.073 802.547 122.354C802.344 122.792 802.125 123.214 801.886 123.625C801.563 124.151 801.219 124.651 800.844 125.146C800.333 125.771 799.792 126.37 799.208 126.938C798.552 127.542 797.875 128.104 797.162 128.641C796.177 129.339 795.162 129.974 794.11 130.568C792.729 131.307 791.313 131.958 789.854 132.542C787.745 133.344 785.599 134.005 783.417 134.557C780.677 135.198 777.906 135.661 775.115 136C771.5 136.406 767.854 136.688 764.214 136.661C755.755 136.458 747.349 135.25 738.979 134.063C739.016 134.068 739.057 134.078 739.099 134.078C738.958 134.063 738.818 134.042 738.677 134.021C738.682 134.021 738.682 134.021 738.682 134.021C737.844 133.901 737 133.781 736.162 133.661C735.74 133.599 735.318 133.542 734.891 133.479C734.886 133.479 734.88 133.479 734.875 133.479C734.818 133.464 734.755 133.458 734.698 133.453C734.662 133.453 734.625 133.443 734.594 133.443C734.552 133.432 734.511 133.427 734.469 133.422C734.458 133.417 734.448 133.417 734.443 133.417C734.391 133.406 734.344 133.401 734.292 133.396C733.865 133.333 733.432 133.276 733.005 133.214C731.146 132.948 729.281 132.693 727.417 132.448C725.656 132.219 723.886 132.031 722.12 131.849C720.349 131.667 718.578 131.5 716.813 131.411C713.115 131.224 709.406 131.156 705.708 131.203C703.61 131.234 701.516 131.297 699.422 131.38C697.349 131.469 695.287 131.63 693.224 131.828C689.099 132.224 684.995 132.755 680.922 133.495C677.11 134.188 673.307 134.943 669.521 135.797C665.495 136.714 661.469 137.688 657.485 138.807C653.688 139.875 649.901 141.01 646.141 142.214C642.485 143.391 638.906 144.823 635.333 146.224C633.448 146.969 631.557 147.714 629.693 148.521C627.833 149.328 626.005 150.193 624.182 151.083C623.287 151.521 622.391 151.969 621.5 152.422C621.083 152.63 620.672 152.854 620.261 153.068C620.073 153.167 619.886 153.271 619.703 153.37C619.583 153.438 619.464 153.495 619.349 153.568C619.255 153.615 619.167 153.667 619.068 153.714C617.542 154.552 616.042 155.438 614.542 156.328C613.141 157.156 611.74 158 610.422 158.964C609.724 159.474 608.99 160 608.443 160.672C608.417 160.698 608.396 160.729 608.375 160.755C608.354 160.776 608.339 160.802 608.323 160.823C607.906 161.38 608.026 162.214 608.526 162.672C609.073 163.172 610.042 163.188 610.526 162.589C610.625 162.469 610.729 162.354 610.839 162.25C611.245 161.88 611.677 161.557 612.115 161.229C613.386 160.328 614.719 159.516 616.063 158.719C617.531 157.844 619.011 156.969 620.511 156.151C620.735 156.031 620.953 155.906 621.172 155.786C621.136 155.807 621.094 155.828 621.057 155.849C623.729 154.427 626.448 153.068 629.208 151.828C632.099 150.536 635.042 149.375 637.99 148.224C637.932 148.245 637.88 148.266 637.818 148.292C639.86 147.5 641.901 146.708 643.958 145.964C646.13 145.172 648.339 144.474 650.552 143.802C655.063 142.427 659.589 141.109 664.167 139.974C664.104 139.99 664.047 140.005 663.985 140.016C668.099 139.016 672.224 138.063 676.375 137.234C678.427 136.828 680.49 136.443 682.552 136.078C684.86 135.667 687.182 135.354 689.511 135.073C689.5 135.078 689.49 135.078 689.474 135.078C692.953 134.677 696.422 134.339 699.922 134.198C703.281 134.057 706.641 133.995 710.005 134.026C709.943 134.026 709.886 134.021 709.823 134.026C713.417 134.078 717.005 134.203 720.583 134.542C724.229 134.891 727.86 135.349 731.485 135.854C732.318 135.969 733.156 136.089 733.99 136.208C734.151 136.234 734.318 136.25 734.485 136.276C734.521 136.286 734.563 136.292 734.604 136.292C734.886 136.333 735.167 136.375 735.448 136.417C736.438 136.557 737.422 136.698 738.412 136.839C738.37 136.833 738.333 136.828 738.297 136.823C745.761 137.88 753.24 138.938 760.776 139.359C762.693 139.464 764.615 139.521 766.537 139.474C768.328 139.432 770.12 139.297 771.912 139.156C775.49 138.88 779.042 138.38 782.557 137.651C786.261 136.885 789.886 135.703 793.323 134.135C796.485 132.693 799.453 130.755 801.88 128.266C803.068 127.052 804.083 125.625 804.844 124.109C805.188 123.438 805.469 122.74 805.656 122.005C805.87 121.214 805.953 120.375 805.938 119.552C805.906 117.974 805.656 116.401 805.11 114.917C804.568 113.453 803.755 112.094 802.766 110.891C799.422 106.802 794.38 104.698 789.474 103.115C786.552 102.177 783.594 101.365 780.656 100.479C777.651 99.5729 774.672 98.5729 771.781 97.3542C770.438 96.7708 769.12 96.1354 767.844 95.4011C767.396 95.1198 766.958 94.8229 766.537 94.5C766.068 94.125 765.63 93.724 765.203 93.2969C765.047 93.125 764.901 92.9427 764.75 92.7604C764.563 92.4948 764.391 92.224 764.229 91.9427C764.052 91.6042 763.896 91.2708 763.75 90.9219C763.693 90.7552 763.636 90.5886 763.594 90.4167C763.563 90.2708 763.531 90.125 763.511 89.974C763.495 89.8073 763.49 89.6458 763.485 89.474C763.5 89.2031 763.526 88.9375 763.563 88.6719C763.625 88.2917 763.698 87.9219 763.792 87.5521C763.896 87.2031 764.016 86.8542 764.156 86.5156C764.328 86.1354 764.521 85.7708 764.724 85.4063C764.927 85.0886 765.146 84.7761 765.375 84.474C765.615 84.1927 765.865 83.9219 766.13 83.6615C766.511 83.3125 766.912 82.9844 767.328 82.6667C767.86 82.2917 768.406 81.9531 768.974 81.6302C769.708 81.2448 770.458 80.9011 771.229 80.5938C772.182 80.2396 773.146 79.9375 774.13 79.6771C775.511 79.3386 776.917 79.0938 778.328 78.9167C780.203 78.7136 782.089 78.6302 783.974 78.6459C783.917 78.6459 783.854 78.6459 783.792 78.6459C786.24 78.6875 788.667 78.8854 791.089 79.2292C791.031 79.2188 790.969 79.2083 790.912 79.1979C793.266 79.5521 795.583 80.0469 797.88 80.6771C801.031 81.5833 804.104 82.7083 807.162 83.8854C809.818 84.9063 812.464 85.9479 815.12 86.9583C817.787 87.9688 820.464 88.9531 823.162 89.8698C825.886 90.7969 828.636 91.6354 831.401 92.4063C831.391 92.4063 831.386 92.4011 831.375 92.4011C834.448 93.2552 837.542 94.0261 840.656 94.724C843.901 95.4531 847.172 96.1146 850.458 96.5833C854.537 97.1667 858.667 97.2761 862.74 96.6146C864.537 96.3281 866.313 95.8125 867.99 95.1146C869.521 94.4844 870.938 93.6563 872.266 92.6667C874.177 91.2448 875.719 89.349 876.86 87.2708C877.979 85.2292 878.563 82.8698 878.625 80.5469C878.651 79.6563 878.61 78.7709 878.511 77.8906C878.943 77.8281 879.375 77.7604 879.802 77.6927C882.146 77.3229 884.474 76.8333 886.755 76.1563C888.729 75.5729 890.651 74.849 892.599 74.1875C895.073 73.3438 897.573 72.5834 900.11 71.9427C900.052 71.9584 899.995 71.9688 899.938 71.9792C902.854 71.2656 905.802 70.7396 908.787 70.3906C912.432 69.9896 916.099 69.8281 919.771 69.8646C919.708 69.8646 919.646 69.8646 919.589 69.8594C924.578 69.9323 929.542 70.4167 934.485 71.1146C934.464 71.1094 934.443 71.1042 934.422 71.1042C938.349 71.6667 942.261 72.3542 946.193 72.8646C948.078 73.1094 949.974 73.3073 951.87 73.4323C953.703 73.5469 955.547 73.5781 957.386 73.5573C960.828 73.5156 964.271 73.224 967.682 72.7709C970.573 72.3906 973.443 71.875 976.266 71.1667C979.552 70.3386 982.698 69.0573 985.557 67.2344C988.578 65.3177 991.266 62.9375 993.823 60.4531C994.38 59.9115 994.281 58.9479 993.74 58.4479C993.459 58.1979 993.084 58.0573 992.709 58.0781C992.328 58.099 992.011 58.2708 991.74 58.5365C991.516 58.7552 991.292 58.9688 991.063 59.1875C991.11 59.1406 991.156 59.099 991.203 59.0573C989.516 60.6563 987.771 62.1823 985.906 63.5677C985.943 63.5469 985.974 63.5208 986.011 63.4948C985.974 63.5261 985.938 63.5521 985.896 63.5781C984.771 64.3906 983.615 65.1458 982.401 65.8177C981.427 66.3333 980.427 66.8021 979.406 67.2083C978 67.7448 976.557 68.1771 975.099 68.5417C975.136 68.5365 975.177 68.5261 975.219 68.5156C972.13 69.2656 968.99 69.7761 965.834 70.1511C965.891 70.1459 965.953 70.1354 966.016 70.1302C962.573 70.5261 959.11 70.7448 955.646 70.7292C952.037 70.6875 948.453 70.3281 944.88 69.8334C940.958 69.2709 937.057 68.5938 933.125 68.0781C929.104 67.5365 925.063 67.1615 921.005 67.0625C916.995 66.9583 912.99 67.1042 909 67.5208C905.099 67.9271 901.261 68.6823 897.474 69.7031C894.797 70.4323 892.177 71.3281 889.557 72.2396C887.724 72.8802 885.886 73.5 884 73.9792C882.016 74.4531 880 74.8177 877.979 75.1042C877.266 72.4011 876 69.8386 874.349 67.5781C873.578 66.5365 872.729 65.5729 871.787 64.6823C870.86 63.8021 869.818 63.0521 868.729 62.3906C866.74 61.1927 864.511 60.3073 862.214 59.9219C860.271 59.5938 858.297 59.599 856.36 59.9636C855.511 60.125 854.677 60.3802 853.87 60.6927C853.182 60.9636 852.505 61.2969 851.906 61.7344C850.745 62.5833 849.813 63.7396 849.557 65.1927C849.292 66.7031 849.74 68.1823 850.49 69.4896C851.375 71.0208 852.703 72.2396 854.083 73.3125C854.86 73.9167 855.688 74.4531 856.537 74.9584C857.401 75.474 858.292 75.9427 859.208 76.349C863.386 78.1667 868.011 78.7188 872.531 78.5C873.589 78.4479 874.651 78.3594 875.703 78.25C875.708 78.2709 875.708 78.2969 875.714 78.3229C875.776 78.9531 875.807 79.5886 875.807 80.224C875.787 80.7604 875.75 81.2865 875.688 81.8177C875.61 82.3438 875.505 82.8594 875.375 83.375C875.208 83.9531 875.005 84.5208 874.776 85.0781C874.552 85.5677 874.307 86.0417 874.042 86.5104C873.698 87.0677 873.328 87.5938 872.927 88.1042C872.568 88.5313 872.198 88.9427 871.807 89.3333C871.307 89.8021 870.787 90.2396 870.24 90.6563C869.656 91.0625 869.052 91.4375 868.427 91.7865C867.745 92.1354 867.052 92.4479 866.344 92.7292C865.563 93.0156 864.776 93.2552 863.969 93.4688C862.938 93.7084 861.901 93.8958 860.849 94.0313C859.427 94.1823 858 94.25 856.568 94.2448C856.61 94.25 856.656 94.25 856.693 94.25C854.865 94.2188 853.047 94.0781 851.235 93.8386C848.016 93.375 844.818 92.7448 841.646 92.0417C838.505 91.349 835.386 90.5729 832.287 89.7188C832.141 89.6823 832 89.6406 831.86 89.599C831.87 89.6042 831.88 89.6042 831.886 89.6094C828.849 88.7552 825.839 87.8073 822.86 86.7708C819.807 85.7083 816.787 84.5677 813.771 83.4063C810.823 82.2761 807.891 81.1094 804.927 80.0156C801.083 78.5938 797.151 77.4011 793.115 76.6875C789.401 76.0313 785.615 75.724 781.839 75.8334C778.375 75.9323 774.88 76.3959 771.573 77.4688C771.115 77.6198 770.656 77.7813 770.203 77.9531C767.823 78.875 765.547 80.1719 763.771 82.0104Z" fill="#AA6E38"/>
</g>
</g>
</g>
</g>
<path d="M191.069 164.289C191.22 164.638 191.215 165.008 191.048 165.393C190.892 165.768 190.653 166.034 190.319 166.185C190.246 166.185 189.663 166.414 188.569 166.872C187.47 167.32 185.929 167.924 183.944 168.685C183.663 168.841 182.455 169.325 180.319 170.143C178.194 170.966 175.45 171.966 172.09 173.143C168.726 174.325 165.054 175.497 161.069 176.664C157.08 177.831 153.054 178.831 148.986 179.664C144.929 180.487 141.132 180.95 137.59 181.06C135.298 181.133 132.882 180.93 130.34 180.456C127.798 179.987 125.726 178.726 124.132 176.685C122.033 178.284 119.83 179.784 117.528 181.185C115.22 182.575 112.798 183.763 110.257 184.747C109.215 185.122 108.017 185.367 106.673 185.476C105.325 185.591 104.319 185.034 103.653 183.81C103.095 181.883 103.08 179.95 103.611 178.018C104.153 176.091 104.632 174.195 105.048 172.331C103.132 173.081 101.236 173.95 99.361 174.935C97.486 175.924 95.5537 176.867 93.5693 177.768C92.0589 178.159 91.0381 178.138 90.5068 177.706C89.9651 177.279 89.7047 176.737 89.7151 176.081C89.7308 175.43 89.7672 174.966 89.8193 174.685C90.5172 172.383 91.5276 170.164 92.861 168.039C94.1839 165.904 95.4651 163.841 96.7151 161.851C96.8401 161.159 97.1943 160.784 97.7776 160.726C98.361 160.674 98.8818 160.81 99.3401 161.143C99.8089 161.476 99.8818 161.966 99.5485 162.601C98.5068 164.659 97.3506 166.664 96.0901 168.622C94.8401 170.57 93.7672 172.622 92.861 174.789C94.8454 173.888 96.8245 172.924 98.7985 171.893C100.767 170.867 102.825 170.075 104.965 169.518C105.783 169.143 106.601 169.263 107.423 169.872C108.241 170.471 108.491 171.258 108.173 172.226C107.741 173.976 107.278 175.726 106.778 177.476C106.278 179.216 106.054 180.987 106.111 182.789C109.288 181.997 112.257 180.779 115.007 179.122C117.757 177.471 120.387 175.706 122.903 173.831C122.512 170.596 122.767 167.331 123.673 164.039C124.575 160.737 126.241 157.904 128.673 155.539C129.616 154.747 130.663 154.075 131.819 153.518C132.986 152.966 134.2 152.872 135.465 153.247C136.726 153.695 137.496 154.591 137.778 155.935C138.069 157.268 137.955 158.497 137.444 159.622C136.278 162.513 134.705 165.185 132.736 167.643C130.778 170.101 128.72 172.435 126.569 174.643L126.361 174.747C126.871 175.638 127.767 176.372 129.048 176.956C131.715 178.122 135.726 178.414 141.09 177.831C146.45 177.237 152.976 175.846 160.673 173.664C164.59 172.513 168.226 171.346 171.59 170.164C174.95 168.987 177.658 167.997 179.715 167.206C181.783 166.414 182.819 166.018 182.819 166.018C183.845 165.633 184.887 165.226 185.944 164.81C187.012 164.393 188.095 163.966 189.194 163.518C189.996 163.143 190.621 163.404 191.069 164.289ZM134.819 155.664C132.538 156.221 130.736 157.351 129.403 159.06C128.069 160.768 127.101 162.726 126.507 164.935C125.923 167.143 125.595 169.289 125.528 171.372C126.871 169.872 128.246 168.341 129.653 166.768C131.054 165.185 132.262 163.476 133.278 161.643C134.288 159.799 134.804 157.805 134.819 155.664Z" fill="#AF733A"/>
<path d="M243.451 162.613C243.602 162.962 243.597 163.331 243.43 163.717C243.274 164.107 243.024 164.378 242.68 164.529C242.607 164.602 241.977 164.878 240.784 165.363C239.586 165.852 238.117 166.42 236.367 167.071C234.617 167.712 232.763 168.415 230.805 169.175C228.847 169.925 227.06 170.602 225.451 171.196C223.852 171.795 222.643 172.279 221.826 172.654C219.685 173.352 217.565 174.009 215.472 174.634C213.373 175.248 211.232 175.8 209.055 176.3C206.972 176.706 204.768 177.102 202.451 177.488C200.143 177.878 197.857 177.936 195.597 177.654C193.331 177.378 191.206 176.545 189.222 175.154C187.795 174.087 187.071 172.712 187.055 171.029C187.045 169.337 187.388 167.592 188.097 165.8C188.795 163.998 189.508 162.524 190.242 161.384C191.56 159.123 193.211 157.128 195.201 155.404C197.185 153.686 199.378 152.363 201.784 151.446C202.826 151.071 204.003 150.936 205.326 151.029C206.643 151.128 207.565 151.759 208.097 152.925C208.472 153.956 208.409 154.925 207.909 155.842C207.42 156.748 206.847 157.524 206.18 158.175C204.081 160.123 201.711 161.691 199.076 162.884C196.451 164.081 193.831 165.134 191.222 166.05C190.972 167.04 190.638 168.128 190.222 169.321C189.821 170.503 190.013 171.561 190.805 172.488C192.232 173.696 193.867 174.399 195.701 174.592C197.545 174.774 199.336 174.8 201.076 174.675C206.06 174.092 210.935 173.04 215.701 171.509C220.461 169.967 225.138 168.269 229.722 166.404C230.831 166.019 232.263 165.482 234.013 164.8C235.763 164.123 237.399 163.482 238.93 162.884C240.472 162.274 241.347 161.925 241.555 161.842C242.373 161.467 243.003 161.727 243.451 162.613ZM205.722 153.717C203.081 153.884 200.701 154.816 198.576 156.509C196.451 158.191 194.617 160.066 193.076 162.134C195.461 161.232 197.805 160.154 200.097 158.904C202.388 157.644 204.263 155.915 205.722 153.717Z" fill="#AF733A"/>
<path d="M314.446 160.369C314.764 161.4 314.472 162.03 313.571 162.265C313.571 162.265 312.717 162.629 311.008 163.348C309.3 164.056 307.008 164.963 304.133 166.056C301.258 167.155 298.035 168.364 294.467 169.681C290.894 171.004 287.222 172.348 283.446 173.723C283.373 173.723 281.93 174.202 279.113 175.161C276.305 176.119 272.514 177.181 267.738 178.348C262.956 179.504 257.592 180.452 251.633 181.202C250.383 181.233 248.925 181.275 247.258 181.327C245.602 181.385 243.977 181.28 242.383 181.015C240.774 180.754 239.436 180.171 238.363 179.265C237.279 178.364 236.712 176.942 236.654 174.994C236.654 172.983 236.915 171.155 237.425 169.515C237.925 167.879 238.8 165.963 240.05 163.765C245.144 155.697 251.285 148.473 258.467 142.098C265.644 135.723 273.472 130.4 281.946 126.119C283.305 125.525 284.706 124.973 286.154 124.473C287.597 123.973 289.092 123.765 290.633 123.848C291.602 123.89 292.394 124.358 293.008 125.244C293.618 126.135 293.727 127.072 293.342 128.056C292.66 130.14 291.508 131.973 289.883 133.556C288.269 135.14 286.686 136.64 285.133 138.056C278.785 143.338 272.071 148.067 264.988 152.244C257.904 156.426 250.821 160.577 243.738 164.702C241.529 167.744 240.17 171.004 239.654 174.473C239.352 175.806 239.696 176.76 240.696 177.327C241.686 177.885 242.925 178.223 244.425 178.348C245.925 178.473 247.363 178.483 248.738 178.369C250.113 178.26 251.04 178.197 251.529 178.181C254.93 177.655 258.071 177.108 260.946 176.536C263.831 175.952 266.826 175.265 269.925 174.473C273.035 173.671 276.529 172.635 280.404 171.369C284.29 170.093 288.826 168.51 294.008 166.619C299.186 164.733 305.368 162.39 312.55 159.598C313.368 159.223 313.998 159.483 314.446 160.369ZM280.717 130.098C274.102 133.78 267.889 138.072 262.071 142.973C256.264 147.879 251.139 153.385 246.696 159.494C252.347 156.4 257.93 153.171 263.446 149.806C268.956 146.431 274.285 142.786 279.425 138.869C281.592 137.15 283.738 135.338 285.863 133.431C287.998 131.515 289.654 129.26 290.821 126.661C289.014 126.786 287.269 127.176 285.592 127.827C283.91 128.468 282.285 129.223 280.717 130.098Z" fill="#AF733A"/>
<path d="M385.442 158.114C385.76 159.146 385.468 159.776 384.567 160.01C384.567 160.01 383.713 160.375 382.005 161.093C380.296 161.802 378.005 162.708 375.13 163.802C372.255 164.901 369.031 166.109 365.463 167.427C361.89 168.75 358.218 170.093 354.442 171.468C354.369 171.468 352.926 171.948 350.109 172.906C347.301 173.864 343.51 174.927 338.734 176.093C333.952 177.25 328.588 178.198 322.63 178.948C321.38 178.979 319.921 179.021 318.255 179.073C316.598 179.13 314.973 179.026 313.38 178.76C311.77 178.5 310.432 177.916 309.359 177.01C308.275 176.109 307.708 174.687 307.65 172.739C307.65 170.729 307.911 168.901 308.421 167.26C308.921 165.625 309.796 163.708 311.046 161.51C316.14 153.442 322.281 146.218 329.463 139.843C336.64 133.468 344.468 128.146 352.942 123.864C354.301 123.271 355.702 122.718 357.15 122.218C358.593 121.718 360.088 121.51 361.63 121.593C362.598 121.635 363.39 122.104 364.005 122.989C364.614 123.88 364.723 124.817 364.338 125.802C363.656 127.885 362.505 129.718 360.88 131.302C359.265 132.885 357.682 134.385 356.13 135.802C349.781 141.083 343.067 145.812 335.984 149.989C328.9 154.172 321.817 158.323 314.734 162.448C312.525 165.489 311.166 168.75 310.65 172.218C310.348 173.552 310.692 174.505 311.692 175.073C312.682 175.63 313.921 175.968 315.421 176.093C316.921 176.218 318.359 176.229 319.734 176.114C321.109 176.005 322.036 175.942 322.525 175.927C325.926 175.401 329.067 174.854 331.942 174.281C334.827 173.698 337.822 173.01 340.921 172.218C344.031 171.416 347.525 170.38 351.4 169.114C355.286 167.838 359.822 166.255 365.005 164.364C370.182 162.479 376.364 160.135 383.546 157.343C384.364 156.968 384.994 157.229 385.442 158.114ZM351.713 127.843C345.098 131.526 338.885 135.817 333.067 140.718C327.26 145.625 322.135 151.13 317.692 157.239C323.343 154.146 328.926 150.916 334.442 147.552C339.952 144.177 345.281 140.531 350.421 136.614C352.588 134.896 354.734 133.083 356.859 131.177C358.994 129.26 360.65 127.005 361.817 124.406C360.01 124.531 358.265 124.922 356.588 125.573C354.906 126.213 353.281 126.968 351.713 127.843Z" fill="#AF733A"/>
<path d="M450.397 156.047C450.782 157.005 450.532 157.641 449.647 157.943C449.574 157.959 448.699 158.308 447.022 158.985C445.339 159.651 443.095 160.537 440.293 161.63C437.485 162.714 434.313 163.922 430.772 165.255C427.241 166.578 423.595 167.917 419.834 169.276C419.834 169.276 419.313 169.453 418.272 169.797C417.241 170.146 415.923 170.578 414.313 171.089C412.699 171.589 411.048 172.089 409.355 172.589C407.673 173.089 406.214 173.5 404.98 173.818C403.688 174.068 402.241 174.271 400.647 174.422C399.048 174.578 397.678 174.151 396.543 173.151C395.819 172.485 395.548 171.683 395.73 170.735C395.907 169.792 396.157 168.964 396.48 168.255C397.589 166.005 398.928 163.943 400.501 162.068C402.084 160.183 403.673 158.271 405.272 156.339C397.407 158.188 389.938 161.162 382.855 165.255C382.178 165.771 381.313 166.047 380.272 166.089C379.23 166.12 378.725 165.505 378.751 164.255C380.251 161.021 382.23 158.099 384.688 155.485C387.147 152.86 389.647 150.37 392.188 148.005C392.798 147.438 393.418 147.266 394.043 147.485C394.678 147.709 395.048 148.229 395.147 149.047C393.256 151.047 391.319 153.021 389.334 154.964C387.36 156.912 385.543 159.021 383.876 161.297C387.428 159.438 391.053 157.792 394.751 156.36C398.459 154.917 402.272 153.891 406.188 153.276C407.282 152.974 408.126 153.313 408.709 154.297C409.303 155.287 409.235 156.172 408.501 156.964C406.777 159.313 404.928 161.589 402.959 163.797C400.985 165.995 399.485 168.537 398.459 171.422C401.251 171.547 403.959 171.203 406.584 170.38C409.22 169.563 411.855 168.766 414.48 167.985C415.157 167.766 415.845 167.558 416.543 167.36C417.235 167.167 417.923 166.917 418.605 166.61C422.855 165.099 427.501 163.396 432.543 161.505C437.584 159.62 442.907 157.542 448.522 155.276C449.339 154.901 449.964 155.162 450.397 156.047Z" fill="#AF733A"/>
<path d="M502.697 154.38C502.848 154.729 502.843 155.099 502.676 155.484C502.52 155.875 502.27 156.145 501.926 156.296C501.853 156.369 501.223 156.645 500.03 157.13C498.832 157.619 497.364 158.187 495.614 158.838C493.864 159.479 492.009 160.182 490.051 160.942C488.093 161.692 486.306 162.369 484.697 162.963C483.098 163.562 481.89 164.046 481.072 164.421C478.931 165.119 476.811 165.776 474.718 166.401C472.619 167.015 470.478 167.567 468.301 168.067C466.218 168.474 464.015 168.869 461.697 169.255C459.39 169.645 457.103 169.703 454.843 169.421C452.577 169.145 450.452 168.312 448.468 166.921C447.041 165.854 446.317 164.479 446.301 162.796C446.291 161.104 446.634 159.359 447.343 157.567C448.041 155.765 448.754 154.291 449.489 153.151C450.806 150.89 452.457 148.895 454.447 147.171C456.431 145.453 458.624 144.13 461.03 143.213C462.072 142.838 463.249 142.703 464.572 142.796C465.89 142.895 466.811 143.526 467.343 144.692C467.718 145.724 467.655 146.692 467.155 147.609C466.666 148.515 466.093 149.291 465.426 149.942C463.327 151.89 460.957 153.458 458.322 154.651C455.697 155.849 453.077 156.901 450.468 157.817C450.218 158.807 449.884 159.895 449.468 161.088C449.067 162.27 449.259 163.328 450.051 164.255C451.478 165.463 453.114 166.166 454.947 166.359C456.791 166.541 458.582 166.567 460.322 166.442C465.306 165.859 470.181 164.807 474.947 163.276C479.707 161.734 484.384 160.036 488.968 158.171C490.077 157.786 491.509 157.25 493.259 156.567C495.009 155.89 496.645 155.25 498.176 154.651C499.718 154.041 500.593 153.692 500.801 153.609C501.619 153.234 502.249 153.494 502.697 154.38ZM464.968 145.484C462.327 145.651 459.947 146.583 457.822 148.276C455.697 149.958 453.864 151.833 452.322 153.901C454.707 153 457.051 151.921 459.343 150.671C461.634 149.411 463.509 147.682 464.968 145.484Z" fill="#AF733A"/>
<path d="M563.296 152.365C563.599 153.324 563.307 153.99 562.421 154.365C561.671 154.74 560.51 155.235 558.942 155.844C557.369 156.443 555.828 157.011 554.317 157.553C552.817 158.084 551.718 158.459 551.026 158.678C545.786 160.235 540.406 161.36 534.88 162.053C529.348 162.735 523.859 163.271 518.401 163.657C517.609 164.797 516.739 165.99 515.796 167.24C514.864 168.48 513.802 169.532 512.609 170.407C511.427 171.282 510.046 171.74 508.463 171.782C507.348 171.896 506.411 171.48 505.651 170.532C504.901 169.574 504.744 168.568 505.192 167.511C506.161 165.193 507.796 163.501 510.088 162.428C512.38 161.344 514.697 160.563 517.046 160.074C517.156 159.313 517.281 158.527 517.421 157.719C517.572 156.917 517.713 156.131 517.838 155.365C516.171 155.422 514.526 155.699 512.901 156.199C511.286 156.699 509.692 157.136 508.109 157.511C506.526 157.876 504.901 157.98 503.234 157.824C501.901 157.589 501.109 156.834 500.859 155.553C500.609 154.261 500.713 153.157 501.171 152.24C502.14 149.922 503.463 147.803 505.13 145.886C506.807 143.959 508.739 142.438 510.921 141.324C511.88 140.813 512.984 140.532 514.234 140.49C515.484 140.449 516.468 140.902 517.192 141.844C517.776 142.735 517.838 143.636 517.38 144.553C516.921 145.459 516.317 146.199 515.567 146.782C514.453 146.688 513.885 146.24 513.859 145.449C513.828 144.657 513.911 143.907 514.109 143.199C511.494 144.188 509.255 145.751 507.38 147.886C505.505 150.027 504.156 152.428 503.338 155.094C505.088 155.11 506.781 154.865 508.421 154.365C510.072 153.865 511.739 153.402 513.421 152.969C515.114 152.527 516.802 152.485 518.484 152.844C519.536 153.303 520.182 153.985 520.421 154.886C520.656 155.777 520.703 156.751 520.567 157.803C520.427 158.844 520.234 159.813 519.984 160.699C524.244 160.146 528.526 159.688 532.817 159.324C537.109 158.949 541.359 158.209 545.567 157.094C548.177 156.459 550.869 155.589 553.651 154.49C556.427 153.396 558.974 152.428 561.296 151.594C562.182 151.219 562.849 151.48 563.296 152.365ZM508.171 169.303C509.598 168.761 510.859 167.99 511.942 166.99C513.026 165.98 513.963 164.834 514.755 163.553C513.447 164.084 512.078 164.756 510.651 165.574C509.234 166.381 508.406 167.626 508.171 169.303Z" fill="#AF733A"/>
<path d="M623.793 150.444C624.095 151.402 623.803 152.069 622.918 152.444C622.168 152.819 621.006 153.314 619.438 153.923C617.865 154.522 616.324 155.09 614.813 155.631C613.313 156.163 612.214 156.538 611.522 156.756C606.282 158.314 600.902 159.439 595.376 160.131C589.845 160.814 584.355 161.35 578.897 161.736C578.105 162.876 577.235 164.069 576.293 165.319C575.36 166.559 574.298 167.611 573.105 168.486C571.923 169.361 570.543 169.819 568.959 169.861C567.845 169.975 566.907 169.559 566.147 168.611C565.397 167.652 565.24 166.647 565.688 165.59C566.657 163.272 568.293 161.579 570.584 160.506C572.876 159.423 575.194 158.642 577.543 158.152C577.652 157.392 577.777 156.605 577.918 155.798C578.069 154.996 578.209 154.21 578.334 153.444C576.668 153.501 575.022 153.777 573.397 154.277C571.782 154.777 570.188 155.215 568.605 155.59C567.022 155.954 565.397 156.059 563.73 155.902C562.397 155.668 561.605 154.913 561.355 153.631C561.105 152.34 561.209 151.236 561.668 150.319C562.636 148.001 563.959 145.881 565.626 143.965C567.303 142.038 569.235 140.517 571.418 139.402C572.376 138.892 573.48 138.611 574.73 138.569C575.98 138.527 576.964 138.98 577.688 139.923C578.272 140.814 578.334 141.715 577.876 142.631C577.418 143.538 576.813 144.277 576.063 144.861C574.949 144.767 574.381 144.319 574.355 143.527C574.324 142.736 574.407 141.986 574.605 141.277C571.99 142.267 569.751 143.829 567.876 145.965C566.001 148.105 564.652 150.506 563.834 153.173C565.584 153.189 567.277 152.944 568.918 152.444C570.569 151.944 572.235 151.48 573.918 151.048C575.61 150.605 577.298 150.564 578.98 150.923C580.032 151.381 580.678 152.064 580.918 152.965C581.152 153.855 581.199 154.829 581.063 155.881C580.923 156.923 580.73 157.892 580.48 158.777C584.74 158.225 589.022 157.767 593.313 157.402C597.605 157.027 601.855 156.288 606.063 155.173C608.673 154.538 611.365 153.668 614.147 152.569C616.923 151.475 619.47 150.506 621.793 149.673C622.678 149.298 623.345 149.559 623.793 150.444ZM568.668 167.381C570.095 166.84 571.355 166.069 572.438 165.069C573.522 164.059 574.459 162.913 575.251 161.631C573.944 162.163 572.574 162.835 571.147 163.652C569.73 164.46 568.902 165.704 568.668 167.381Z" fill="#AF733A"/>
<mask id="mask4_2027_22448" style="mask-type:luminance" maskUnits="userSpaceOnUse" x="21" y="152" width="51" height="18">
<path d="M21.334 152H72.0007V169.333H21.334V152Z" fill="white"/>
</mask>
<g mask="url(#mask4_2027_22448)">
<mask id="mask5_2027_22448" style="mask-type:luminance" maskUnits="userSpaceOnUse" x="21" y="139" width="53" height="48">
<path d="M36.334 186.823L21.5527 167.464L58.2611 139.438L73.0423 158.792L36.334 186.823Z" fill="white"/>
</mask>
<g mask="url(#mask5_2027_22448)">
<mask id="mask6_2027_22448" style="mask-type:luminance" maskUnits="userSpaceOnUse" x="21" y="139" width="53" height="48">
<path d="M36.334 186.823L21.5527 167.464L58.2611 139.438L73.0423 158.792L36.334 186.823Z" fill="white"/>
</mask>
<g mask="url(#mask6_2027_22448)">
<path d="M22.5579 166.651C30.8861 161.536 42.8288 157.693 53.6465 156.911C57.8392 156.792 62.0007 157.094 66.1309 157.823C65.1152 157.25 63.9746 156.641 63.0059 156.177C61.9225 155.615 61.9538 155.641 61.2819 155.266L61.2975 155.271C61.2871 155.271 61.2819 155.26 61.2715 155.255L61.1934 155.214C60.9277 155.068 61.1309 155.172 61.2402 155.234C61.0111 155.125 60.8392 154.964 60.7194 154.745C60.5996 154.521 60.5579 154.286 60.584 154.042C61.1673 151.88 63.6673 153.813 65.2819 154.516C66.6882 155.479 72.3444 157.479 71.0527 159.641C71.0319 159.859 70.9642 160.063 70.8496 160.25C70.735 160.438 70.5788 160.583 70.3913 160.698C70.2038 160.813 70.0007 160.88 69.7819 160.896C69.5632 160.917 69.3548 160.885 69.1517 160.802C66.7507 161.87 64.3184 162.891 61.9069 163.932C61.3913 164.13 60.9382 164.031 60.5475 163.635C60.1569 163.245 60.0632 162.792 60.2611 162.276C60.7923 161.281 62.1673 161.214 63.0788 160.688C63.5111 160.5 63.9434 160.318 64.3704 160.13C59.6517 159.484 55.1986 159.042 50.7246 159.719C41.6725 160.969 33.084 163.698 24.9694 167.906C24.3132 168.146 23.709 168.714 22.9902 168.667C22.7506 168.63 22.5475 168.526 22.3809 168.359C22.209 168.188 22.1048 167.984 22.0684 167.75C22.0319 167.51 22.0684 167.286 22.1777 167.073C22.2871 166.859 22.4486 166.703 22.6621 166.594C22.5788 166.641 22.4642 166.708 22.5579 166.651Z" fill="#AA6E38"/>
</g>
</g>
</g>
</svg>
