<svg width="46" height="8" viewBox="0 0 46 8" fill="none" xmlns="http://www.w3.org/2000/svg">
<path d="M8.08355 0.966146C8.1201 0.973327 8.15274 0.994867 8.18276 1.03142C8.21409 1.06797 8.22323 1.10453 8.21148 1.14108C8.19712 1.24748 8.13838 1.29448 8.03394 1.28207C7.65274 1.23181 7.19321 1.21354 6.65535 1.22724C6.11879 1.23965 5.5855 1.25857 5.05482 1.28468C5.05482 1.30753 5.04764 1.31863 5.03394 1.31863C4.90339 1.42698 4.72911 1.60844 4.51174 1.86432C4.29569 2.11889 4.05352 2.42045 3.78589 2.77032C3.51762 3.11889 3.2402 3.48508 2.953 3.86954C2.6671 4.2527 2.39033 4.62868 2.12271 4.99748C1.85639 5.36497 1.61422 5.70113 1.39686 6.00531C1.1808 6.30818 1.00913 6.55296 0.882501 6.73899C0.757174 6.92372 0.6919 7.02032 0.686678 7.02881C0.648166 7.06732 0.606391 7.08625 0.561352 7.08625C0.517618 7.08821 0.484328 7.08233 0.462135 7.06797C0.385112 7.00205 0.372057 6.92829 0.422971 6.84604C0.443858 6.81471 0.531326 6.68808 0.686678 6.46484C0.841378 6.2403 1.04308 5.9557 1.29242 5.61106C1.54308 5.2651 1.81592 4.88651 2.11227 4.47528C2.40796 4.06471 2.70757 3.65936 3.01044 3.25857C3.31462 2.85649 3.60313 2.48442 3.87467 2.14108C4.14621 1.79839 4.37989 1.52424 4.57702 1.31863C4.23563 1.34147 3.92297 1.36758 3.63968 1.39696C3.35574 1.42698 3.13054 1.44918 2.96344 1.46484C2.79764 1.48051 2.71083 1.48834 2.70234 1.48834C2.69516 1.49552 2.68798 1.49878 2.68146 1.49878C2.59073 1.50074 2.53655 1.45309 2.51958 1.35518C2.51762 1.25074 2.56462 1.19069 2.66057 1.17502C2.6919 1.17502 2.84073 1.16066 3.10704 1.13064C3.37467 1.10126 3.7167 1.07059 4.13315 1.03925C4.54895 1.00662 4.99542 0.97659 5.47258 0.950481C5.94908 0.924371 6.41775 0.910011 6.87728 0.906094C7.33681 0.902831 7.7389 0.923066 8.08355 0.966146Z" fill="#AF733A"/>
<path d="M11.5158 4.24028C11.5315 4.27879 11.5302 4.31861 11.5132 4.36039C11.4956 4.40086 11.4675 4.42827 11.4297 4.44394C11.4225 4.45308 11.3546 4.48245 11.226 4.53271C11.0968 4.58362 10.9375 4.64368 10.7482 4.71287C10.5602 4.78075 10.3605 4.85517 10.1503 4.9348C9.94143 5.01313 9.74952 5.08493 9.57589 5.1489C9.40161 5.21352 9.27041 5.26509 9.18164 5.30295C8.95318 5.37801 8.72537 5.44785 8.49756 5.51182C8.27106 5.57644 8.03934 5.63389 7.80305 5.68415C7.5785 5.72592 7.34156 5.76704 7.09286 5.80686C6.84352 5.84733 6.59743 5.85125 6.35396 5.81992C6.11179 5.78859 5.88464 5.69655 5.6725 5.54315C5.52106 5.42697 5.44535 5.27684 5.44535 5.09407C5.44404 4.9113 5.4819 4.72462 5.56023 4.53271C5.63725 4.34146 5.71558 4.1848 5.79521 4.06274C5.93751 3.82122 6.11702 3.60843 6.33307 3.42566C6.54848 3.24159 6.78542 3.1006 7.04326 3.00268C7.15618 2.96483 7.28347 2.95177 7.42446 2.96352C7.56545 2.97396 7.66336 3.04185 7.7195 3.16718C7.75931 3.27879 7.75213 3.38323 7.69861 3.48049C7.64639 3.5784 7.58373 3.66195 7.51062 3.73114C7.28412 3.93872 7.02824 4.10582 6.743 4.23245C6.45905 4.35778 6.17642 4.46874 5.89443 4.56404C5.86832 4.67044 5.83177 4.78793 5.78477 4.91652C5.73973 5.04381 5.75997 5.15869 5.84482 5.26117C5.99626 5.39172 6.17119 5.46744 6.36963 5.48832C6.56806 5.50921 6.75997 5.51443 6.94665 5.50399C7.48255 5.44524 8.00736 5.33558 8.52106 5.17501C9.03608 5.01313 9.5426 4.83232 10.0406 4.63193C10.1555 4.59407 10.307 4.53924 10.495 4.46744C10.6842 4.39629 10.8631 4.3284 11.0302 4.26378C11.1973 4.19981 11.2913 4.16391 11.3122 4.15673C11.401 4.11691 11.4688 4.14498 11.5158 4.24028ZM7.46623 3.25334C7.18229 3.26574 6.92446 3.36235 6.69339 3.54315C6.46362 3.72462 6.26584 3.92566 6.1007 4.14629C6.35788 4.05099 6.61049 3.93676 6.85788 3.80425C7.10461 3.6724 7.30762 3.48832 7.46623 3.25334ZM7.44535 2.41522C7.39965 2.41522 7.37028 2.40869 7.35657 2.39433C7.30957 2.35778 7.28608 2.31339 7.28608 2.26117L7.27041 1.68154C7.26845 1.5771 7.32002 1.52423 7.42446 1.52227C7.5289 1.519 7.58177 1.56926 7.58373 1.6737L7.59417 2.03141L8.7926 1.5771C8.87942 1.53728 8.94665 1.56535 8.99365 1.66065C9.03347 1.76509 9.00148 1.83297 8.89704 1.8643L7.48973 2.41261C7.48255 2.41261 7.47472 2.41261 7.46623 2.41261C7.45905 2.41261 7.45187 2.41391 7.44535 2.41522Z" fill="#AF733A"/>
<path d="M18.0337 4.07493C18.0663 4.17807 18.035 4.24922 17.9397 4.28903C17.8594 4.3295 17.734 4.38042 17.5637 4.44308C17.3927 4.50574 17.2256 4.5658 17.0624 4.62324C16.9005 4.67937 16.7817 4.71919 16.7073 4.74334C16.1433 4.90718 15.5643 5.02402 14.971 5.09321C14.377 5.16305 13.7856 5.21593 13.1955 5.25248C13.11 5.37454 13.016 5.50248 12.9135 5.63629C12.8124 5.7688 12.6975 5.88107 12.5689 5.97311C12.4416 6.0658 12.2921 6.11345 12.1198 6.11671C12.001 6.12911 11.9011 6.08407 11.8196 5.98094C11.7393 5.87846 11.7243 5.77076 11.7752 5.65718C11.8796 5.40848 12.0552 5.22768 12.3026 5.1141C12.5493 4.99922 12.8 4.91566 13.0545 4.86345C13.065 4.78185 13.0787 4.6983 13.0963 4.61279C13.1133 4.52598 13.1283 4.44047 13.1407 4.35692C12.9632 4.36214 12.7863 4.39217 12.6107 4.44569C12.4364 4.49791 12.2641 4.5436 12.0937 4.58146C11.9227 4.61801 11.7478 4.62781 11.5689 4.61018C11.4279 4.58407 11.3444 4.50248 11.3182 4.36475C11.2921 4.22572 11.3039 4.10757 11.3522 4.00966C11.4579 3.76096 11.6028 3.53381 11.7856 3.3282C11.9684 3.12324 12.1773 2.96136 12.4122 2.84256C12.5147 2.78707 12.6329 2.75835 12.7673 2.7564C12.9011 2.75313 13.0075 2.80274 13.0859 2.90522C13.1466 3.00117 13.1518 3.09778 13.1015 3.19504C13.0526 3.29295 12.988 3.37258 12.9083 3.43525C12.7863 3.4235 12.7243 3.37454 12.7229 3.28903C12.721 3.20418 12.7308 3.12389 12.7517 3.04882C12.471 3.15 12.2295 3.31514 12.0258 3.54491C11.8222 3.77337 11.6746 4.03055 11.5846 4.31775C11.7706 4.32167 11.9527 4.29687 12.1303 4.24465C12.3091 4.19112 12.4893 4.14151 12.6707 4.09582C12.8535 4.05078 13.0343 4.04817 13.2138 4.08799C13.3267 4.13694 13.3953 4.21005 13.4201 4.30731C13.4442 4.40522 13.4488 4.50966 13.4331 4.62063C13.4175 4.73224 13.3953 4.83668 13.3679 4.93394C13.8306 4.87846 14.2928 4.83211 14.7543 4.79556C15.2151 4.7577 15.6714 4.68068 16.1224 4.5658C16.4044 4.49987 16.6949 4.40914 16.9945 4.29425C17.2934 4.17937 17.5696 4.07885 17.8222 3.99138C17.9175 3.94961 17.988 3.97768 18.0337 4.07493ZM12.0911 5.85039C12.2478 5.79491 12.3842 5.71397 12.501 5.60757C12.6172 5.49987 12.7184 5.37781 12.8039 5.24204C12.6642 5.29817 12.5173 5.36867 12.3626 5.45352C12.2073 5.53903 12.1172 5.67154 12.0911 5.85039ZM12.4201 2.24987C12.3763 2.25183 12.3457 2.24595 12.3287 2.23159C12.283 2.19504 12.2595 2.15065 12.2582 2.09843L12.2451 1.51619C12.2412 1.41175 12.2921 1.35822 12.3966 1.35431C12.501 1.353 12.5545 1.40392 12.5585 1.50835L12.5663 1.86606L13.7647 1.41436C13.8548 1.37454 13.9227 1.40261 13.9684 1.49791C14.0082 1.60235 13.9769 1.67023 13.8744 1.70157L12.4645 2.24987C12.4573 2.24987 12.4501 2.24987 12.4436 2.24987C12.4364 2.24987 12.4286 2.24987 12.4201 2.24987Z" fill="#AF733A"/>
<path d="M22.6764 3.97469C22.7142 4.06346 22.6849 4.13135 22.5876 4.17834C22.5876 4.17834 22.5256 4.20315 22.4022 4.25145C22.2782 4.29845 22.1268 4.35458 21.9479 4.41855C21.7704 4.48122 21.5909 4.54649 21.4101 4.61438C21.2286 4.68226 21.0772 4.74101 20.9557 4.78931C20.8337 4.83631 20.773 4.85981 20.773 4.85981C20.5276 4.94205 20.2325 5.0367 19.8879 5.1444C19.5445 5.25276 19.1966 5.34675 18.8435 5.42639C18.4916 5.50667 18.1809 5.5491 17.9114 5.55432C17.7776 5.55824 17.632 5.53801 17.4753 5.49427C17.3174 5.44923 17.2286 5.33696 17.209 5.15746C17.1973 5.01646 17.2377 4.85589 17.3317 4.67443C17.4244 4.49166 17.5419 4.31346 17.6842 4.13918C17.8252 3.96359 17.961 3.80955 18.0915 3.67704C18.2221 3.54323 18.3121 3.4525 18.3631 3.4055C18.3924 3.37417 18.4283 3.3585 18.4701 3.3585C18.5119 3.3572 18.5484 3.37547 18.5798 3.41333C18.6163 3.4414 18.6326 3.47795 18.6294 3.52299C18.6274 3.56868 18.6085 3.60589 18.5719 3.63526C18.4845 3.72795 18.3696 3.85067 18.2273 4.00341C18.0863 4.15485 17.9518 4.31542 17.8252 4.48383C17.6986 4.65093 17.6072 4.80106 17.551 4.93291C17.4936 5.06346 17.5001 5.15093 17.5693 5.19401C17.6581 5.24297 17.833 5.25341 18.0941 5.22534C18.3552 5.19793 18.6594 5.14114 19.008 5.05563C19.3578 4.96881 19.7182 4.86895 20.0889 4.75537C20.4597 4.64049 20.7997 4.52299 21.1098 4.40289C21.1163 4.40289 21.1992 4.37351 21.3578 4.31411C21.5178 4.25537 21.7051 4.18357 21.9192 4.10002C22.1333 4.01646 22.3174 3.94336 22.4727 3.88069C22.5824 3.84806 22.6503 3.87939 22.6764 3.97469ZM19.0915 2.88331C19.0458 2.88526 19.0041 2.86764 18.9662 2.83109C18.8963 2.75145 18.9016 2.67639 18.9819 2.60654L19.7965 1.86503C19.8761 1.79388 19.9505 1.79845 20.0184 1.87808C20.0478 1.90811 20.0608 1.94336 20.0576 1.98513C20.0556 2.02691 20.0373 2.06346 20.0027 2.09479L19.1907 2.83631C19.1607 2.86764 19.1281 2.88331 19.0915 2.88331Z" fill="#AF733A"/>
<path d="M39.3136 3.56629C39.3553 3.67073 39.3273 3.73862 39.23 3.76995C39.23 3.76995 39.1393 3.80585 38.9585 3.877C38.777 3.9488 38.5355 4.0428 38.2326 4.15898C37.9298 4.27387 37.591 4.4018 37.217 4.5428C36.8443 4.68248 36.465 4.81891 36.0786 4.95272C35.9689 4.98797 35.8619 5.02452 35.7574 5.06238C35.6543 5.10089 35.5512 5.14071 35.4467 5.18248C35.1543 5.28692 34.8834 5.37961 34.6347 5.45925C34.3854 5.53953 34.1726 5.58131 33.995 5.58457C33.7705 5.58979 33.6119 5.52713 33.5198 5.39658C33.4187 5.27126 33.405 5.12243 33.4781 4.95011C33.5525 4.77648 33.6693 4.59632 33.8279 4.40964C33.9879 4.22165 34.1478 4.05193 34.3084 3.9005C34.4702 3.74776 34.5838 3.62896 34.6504 3.54541C34.6047 3.54541 34.499 3.57804 34.3318 3.64201C34.1661 3.70468 33.98 3.77778 33.7731 3.86133C33.5655 3.94488 33.3749 4.02713 33.2013 4.10676C33.029 4.18509 32.9095 4.24253 32.8436 4.27909C32.7039 4.35742 32.5675 4.43966 32.4337 4.52452C32.3012 4.61003 32.1576 4.68052 32.0029 4.73601C31.9298 4.7693 31.858 4.7569 31.7888 4.69945C31.7189 4.64071 31.6987 4.57347 31.7287 4.49841C31.7614 4.36264 31.8103 4.23079 31.8749 4.10154C31.9389 3.97295 32.0035 3.84436 32.0681 3.71512C31.7496 3.81434 31.4533 3.95272 31.1804 4.13026C30.9089 4.30781 30.6223 4.45337 30.3214 4.56629C30.2013 4.57543 30.1308 4.52844 30.1099 4.4253C30.089 4.32086 30.1073 4.23079 30.1647 4.15376C30.294 3.93444 30.4304 3.72295 30.5747 3.5193C30.7189 3.31434 30.8828 3.12243 31.0655 2.94488C31.0929 2.89267 31.1347 2.87047 31.1909 2.877C31.2463 2.88222 31.2914 2.90572 31.3266 2.9475C31.3632 2.98797 31.3619 3.03757 31.324 3.09632C31.1948 3.2569 31.0655 3.41878 30.935 3.58196C30.8044 3.7458 30.6804 3.91812 30.5642 4.09893C30.8005 3.97556 31.0316 3.84763 31.2561 3.71512C31.4807 3.58327 31.7189 3.48731 31.9715 3.42791C32.0603 3.39658 32.1497 3.39919 32.2405 3.43575C32.3305 3.47099 32.3926 3.53496 32.4258 3.62896C32.405 3.75624 32.3619 3.877 32.2979 3.99188C32.2333 4.10546 32.1732 4.22165 32.1178 4.34175C32.5943 4.04802 33.0766 3.79475 33.5642 3.58196C33.6164 3.55781 33.7137 3.51603 33.8567 3.45663C34.0009 3.39789 34.1569 3.34371 34.324 3.29475C34.4911 3.24449 34.6399 3.22622 34.7705 3.23992C34.901 3.25233 34.9741 3.3176 34.9898 3.43575C35.0068 3.50233 34.9696 3.6022 34.8775 3.73601C34.7849 3.86851 34.6621 4.01473 34.5094 4.17465C34.356 4.33522 34.1987 4.4958 34.0368 4.65768C33.9356 4.77778 33.858 4.8894 33.8044 4.99188C33.7522 5.09502 33.7405 5.16355 33.7705 5.19815C33.8175 5.25951 33.9128 5.283 34.0577 5.26864C34.2039 5.25298 34.3743 5.21512 34.5694 5.15376C34.7659 5.0911 34.9637 5.02256 35.1621 4.9475C35.3619 4.87308 35.5394 4.80781 35.6948 4.75167C36.1752 4.58327 36.7013 4.39332 37.2744 4.18248C37.8488 3.97034 38.4611 3.73731 39.1125 3.48274C39.2013 3.44293 39.2679 3.47099 39.3136 3.56629Z" fill="#AF733A"/>
<path d="M44.9397 3.44388C44.9553 3.4824 44.954 3.52221 44.9371 3.56399C44.9194 3.60446 44.8914 3.63187 44.8535 3.64754C44.8463 3.65668 44.7784 3.68605 44.6499 3.73631C44.5206 3.78723 44.3613 3.84728 44.172 3.91647C43.9841 3.98435 43.7843 4.05877 43.5741 4.1384C43.3653 4.21673 43.1734 4.28853 42.9997 4.3525C42.8254 4.41712 42.6942 4.46869 42.6055 4.50655C42.377 4.58161 42.1492 4.65146 41.9214 4.71542C41.6949 4.78005 41.4632 4.83749 41.2269 4.88775C41.0023 4.92952 40.7654 4.97065 40.5167 5.01046C40.2673 5.05093 40.0213 5.05485 39.7778 5.02352C39.5356 4.99219 39.3085 4.90015 39.0963 4.74676C38.9449 4.63057 38.8692 4.48044 38.8692 4.29767C38.8679 4.1149 38.9057 3.92822 38.9841 3.73631C39.0611 3.54506 39.1394 3.3884 39.219 3.26634C39.3613 3.02482 39.5408 2.81203 39.7569 2.62926C39.9723 2.44519 40.2093 2.3042 40.4671 2.20629C40.58 2.16843 40.7073 2.15537 40.8483 2.16712C40.9893 2.17757 41.0872 2.24545 41.1433 2.37078C41.1831 2.4824 41.176 2.58683 41.1224 2.68409C41.0702 2.782 41.0076 2.86556 40.9344 2.93475C40.7079 3.14232 40.4521 3.30942 40.1668 3.43605C39.8829 3.56138 39.6002 3.67234 39.3183 3.76764C39.2921 3.87404 39.2556 3.99153 39.2086 4.12012C39.1636 4.24741 39.1838 4.36229 39.2687 4.46477C39.4201 4.59532 39.595 4.67104 39.7935 4.69193C39.9919 4.71281 40.1838 4.71804 40.3705 4.70759C40.9064 4.64885 41.4312 4.53918 41.9449 4.37861C42.4599 4.21673 42.9664 4.03592 43.4645 3.83553C43.5794 3.79767 43.7308 3.74284 43.9188 3.67104C44.1081 3.59989 44.2869 3.532 44.454 3.46738C44.6211 3.40341 44.7151 3.36751 44.736 3.36033C44.8248 3.32052 44.8927 3.34858 44.9397 3.44388ZM40.8901 2.45694C40.6061 2.46934 40.3483 2.56595 40.1172 2.74676C39.8875 2.92822 39.6897 3.12926 39.5245 3.34989C39.7817 3.25459 40.0343 3.14036 40.2817 3.00785C40.5284 2.876 40.7314 2.69193 40.8901 2.45694ZM40.8692 1.61882C40.8235 1.61882 40.7941 1.61229 40.7804 1.59793C40.7334 1.56138 40.7099 1.51699 40.7099 1.46477L40.6942 0.885138C40.6923 0.780699 40.7438 0.727827 40.8483 0.725869C40.9527 0.722605 41.0056 0.772866 41.0076 0.877305L41.018 1.23501L42.2164 0.780699C42.3032 0.740882 42.3705 0.76895 42.4175 0.86425C42.4573 0.968689 42.4253 1.03657 42.3209 1.06791L40.9136 1.61621C40.9064 1.61621 40.8985 1.61621 40.8901 1.61621C40.8829 1.61621 40.8757 1.61751 40.8692 1.61882Z" fill="#AF733A"/>
<path d="M45.4652 5.76156C45.5383 5.69237 45.6121 5.6754 45.6872 5.71195C45.7635 5.7472 45.8229 5.80529 45.8647 5.88689C45.9078 5.96717 45.9156 6.04485 45.8882 6.11926C45.8673 6.20803 45.8138 6.28571 45.7289 6.35164C45.6454 6.41822 45.5546 6.45216 45.4574 6.45347C45.3614 6.45542 45.2785 6.40908 45.2093 6.31508C45.1989 6.21065 45.2237 6.11143 45.2851 6.01743C45.3477 5.92213 45.4078 5.83662 45.4652 5.76156Z" fill="#AF733A"/>
</svg>
